<svg width="75" height="35" viewBox="0 0 75 35" fill="none" xmlns="http://www.w3.org/2000/svg">
<path d="M24.8512 25.8922C26.6629 28.0771 25.6769 31.637 23.1628 33.1899C22.235 33.7638 21.2226 34.0596 20.1434 34.1564C19.955 34.1723 19.7666 34.167 19.5765 34.167C17.2226 34.167 14.8687 34.167 12.4531 34.167C12.5535 33.5068 12.6485 32.8712 12.7489 32.2356C13.1151 29.9204 13.4831 27.607 13.851 25.2936C14.2032 23.0788 14.5535 20.8622 14.918 18.6491C14.932 18.5611 15.0852 18.4308 15.1732 18.4308C17.6786 18.4414 20.1856 18.3939 22.6857 18.5083C25.0255 18.6157 26.5026 20.5858 26.1928 22.9098C26.0414 24.0401 25.603 25.0225 24.8512 25.894M16.7666 27.9028C16.6169 28.8588 16.4638 29.8412 16.3071 30.843C17.8423 30.843 19.3159 30.8817 20.7842 30.8289C21.7561 30.7937 22.1857 30.3624 22.3688 29.4662C22.3934 29.343 22.3969 29.218 22.4128 29.093C22.5008 28.3835 22.2473 27.9468 21.536 27.9222C19.9673 27.8641 18.3951 27.9046 16.7666 27.9046M17.3106 24.4908C18.7596 24.4908 20.1786 24.5383 21.5924 24.4732C22.3741 24.438 22.6153 24.1123 22.7984 23.3112C23.0642 22.1527 22.7438 21.7407 21.5536 21.7337C20.3846 21.7267 19.2138 21.7319 18.0448 21.7337C17.9497 21.7337 17.8529 21.7513 17.7437 21.7619C17.5976 22.6827 17.455 23.5806 17.3106 24.4908Z" fill="white"/>
<path d="M20.4994 5.49786C19.4272 5.04891 18.3039 4.9961 17.1648 5.1211C15.575 5.2954 14.1718 5.86407 13.0837 7.07536C12.545 7.67748 12.1594 8.36587 11.9675 9.19159C13.0151 9.19159 14.0221 9.19686 15.0292 9.18278C15.1172 9.18278 15.2387 9.07187 15.2863 8.98208C15.501 8.5701 15.8162 8.23911 16.2563 8.1458C16.8373 8.0208 17.4535 7.89755 18.031 7.96269C19.1578 8.08769 19.5592 8.86059 19.1578 9.95568C18.4976 9.95568 17.8303 9.94864 17.1648 9.95744C16.4482 9.96801 15.7299 9.97329 15.0151 10.0226C12.7281 10.1828 11.3337 11.5279 11.0908 13.785C10.964 14.9593 11.5732 16.079 12.6682 16.5262C13.1454 16.7216 13.6841 16.8554 14.1964 16.8642C15.7739 16.8907 17.2528 16.5209 18.5574 15.4787C18.4993 15.8906 18.4465 16.2551 18.3919 16.6407H21.473C21.7582 14.8607 22.0522 13.1071 22.3128 11.3466C22.4501 10.4187 22.6138 9.48208 22.6138 8.54897C22.6138 7.08944 21.8497 6.06478 20.5011 5.50139M17.8285 13.5913C17.0873 14.0948 16.2757 14.3448 15.376 14.2586C14.8197 14.2058 14.5151 13.9522 14.4236 13.505C14.3338 13.0667 14.5838 12.5068 14.9993 12.292C15.207 12.1846 15.4465 12.0878 15.6736 12.0825C16.7282 12.0614 17.781 12.0719 18.8655 12.0719C18.7581 12.7656 18.3655 13.2269 17.8285 13.5895" fill="white"/>
<path d="M42.004 16.6325H38.923C38.9776 16.2487 39.0304 15.8825 39.0885 15.4705C37.7821 16.5146 36.305 16.8825 34.7275 16.8561C34.2134 16.8473 33.6764 16.7135 33.1975 16.5181C32.1025 16.0709 31.4933 14.9529 31.6201 13.7768C31.8648 11.5197 33.2592 10.1729 35.5462 10.0144C36.261 9.96515 36.9793 9.95987 37.6959 9.9493C38.3614 9.93874 39.0286 9.94754 39.6889 9.94754C40.092 8.85421 39.6888 8.07956 38.5638 7.95456C37.9846 7.89118 37.3684 8.01442 36.7874 8.13766C36.3473 8.23273 36.0321 8.56196 35.8173 8.97394C35.7698 9.06373 35.6483 9.17289 35.5603 9.17465C34.555 9.18873 33.5479 9.18345 32.4986 9.18345C32.6923 8.35773 33.0761 7.66934 33.6148 7.06721C34.7011 5.85593 36.106 5.28726 37.6959 5.11296C38.8367 4.98796 39.96 5.04254 41.0304 5.48973C42.379 6.05312 43.1431 7.07778 43.1431 8.53731C43.1431 9.47043 42.9812 10.4071 42.8421 11.3349C42.5815 13.0937 42.2857 14.849 42.0005 16.629M39.3983 12.0462C39.2452 12.0462 39.1466 12.0462 39.0462 12.0462C38.129 12.0479 37.2099 12.0391 36.2927 12.0602C36.062 12.0655 35.8191 12.1412 35.606 12.2346C35.15 12.4335 34.8613 13.0127 34.9476 13.4775C35.0338 13.937 35.3437 14.1941 35.9265 14.2469C36.7839 14.3261 37.5656 14.0902 38.2821 13.6289C38.849 13.2645 39.2751 12.7944 39.3983 12.0444" fill="white"/>
<path d="M71.0772 27.4681C71.4398 26.0455 70.7708 25.3994 69.4011 25.4346C68.9574 25.4469 68.5032 25.5402 68.0771 25.6758C67.5877 25.8307 67.2655 26.2092 67.0771 26.6899H63.8376C64.188 25.4152 64.8957 24.4275 65.9662 23.7092C67.3465 22.7831 68.8958 22.505 70.5314 22.6053C71.3289 22.6546 72.0965 22.8201 72.8025 23.218C73.8765 23.8236 74.4874 24.755 74.4839 25.9698C74.4821 26.9522 74.3254 27.9399 74.1811 28.917C73.9258 30.653 73.6318 32.3819 73.3483 34.1407H70.2708C70.3219 33.7745 70.3729 33.4101 70.4363 32.9699C69.6564 33.6583 68.7761 33.9893 67.8447 34.2006C67.0031 34.3907 66.1563 34.477 65.3024 34.3027C63.5489 33.9435 62.658 32.5227 63.0506 30.7181C63.4556 28.8572 64.8447 27.6512 66.8007 27.5438C68.0683 27.4734 69.3412 27.4892 70.6124 27.4681C70.762 27.4663 70.9117 27.4681 71.0772 27.4681ZM70.7427 29.5843C69.6581 29.5843 68.6035 29.572 67.5507 29.5949C67.3236 29.6001 67.0841 29.697 66.8764 29.8044C66.4609 30.0192 66.2126 30.5808 66.3024 31.0192C66.394 31.4664 66.6986 31.7181 67.2567 31.7709C68.1704 31.8572 68.9926 31.5984 69.7391 31.0808C70.2602 30.7199 70.6441 30.2621 70.7444 29.5843" fill="white"/>
<path d="M29.8165 29.4388C29.7214 30.5339 30.4837 31.4106 31.5771 31.5321C32.7285 31.6589 33.7144 31.3561 34.4838 30.4564C34.5401 30.3895 34.6475 30.3279 34.7303 30.3279C35.7004 30.3191 36.6687 30.3226 37.6388 30.3208H38.0191C37.6546 31.099 37.1757 31.7363 36.5912 32.2909C35.1053 33.7029 33.3517 34.4653 31.276 34.3825C28.1967 34.261 26.1104 31.7803 26.5277 28.7539C26.9555 25.6447 29.1369 23.2767 32.232 22.6834C34.1194 22.3207 35.8782 22.6394 37.2374 24.1411C38.2251 25.2327 38.4856 26.5708 38.3729 27.9968C38.343 28.3701 38.2409 28.7363 38.1951 29.1078C38.1617 29.3789 38.0296 29.4458 37.769 29.4441C35.2637 29.4352 32.7584 29.4388 30.2548 29.4388H29.8182H29.8165ZM30.1879 27.2873H35.0806C35.012 26.4458 34.6422 25.8331 33.8605 25.5232C32.4521 24.9669 30.6844 25.8119 30.1879 27.2873Z" fill="white"/>
<path d="M42.2438 29.4443C42.1646 30.5728 42.9375 31.432 44.0519 31.5412C45.1928 31.6538 46.1611 31.344 46.9182 30.4549C46.9693 30.395 47.059 30.3334 47.1312 30.3334C48.221 30.3263 49.3108 30.3281 50.4517 30.3281C49.9711 31.3158 49.3214 32.1028 48.5115 32.7524C47.1101 33.8757 45.515 34.4673 43.6998 34.3898C40.6206 34.2595 38.5483 31.7912 38.9603 28.7541C39.3793 25.659 41.5783 23.2769 44.6717 22.6889C46.559 22.3297 48.3196 22.6502 49.6753 24.1537C50.6612 25.247 50.9218 26.5851 50.8038 28.0112C50.7739 28.3844 50.6718 28.7506 50.626 29.1221C50.5926 29.3985 50.4482 29.4531 50.1929 29.4513C47.6999 29.4425 45.2087 29.4461 42.7157 29.4461H42.2438M47.515 27.2964C47.4446 26.5481 47.1629 25.9618 46.4886 25.6256C45.059 24.9125 43.147 25.7171 42.6223 27.2964H47.515Z" fill="white"/>
<path d="M54.2145 34.1506H50.8359C51.4363 30.3724 52.0331 26.6117 52.6335 22.8423H55.8659C55.8184 23.1539 55.7762 23.4374 55.7427 23.6627C56.3008 23.3863 56.8501 23.0184 57.4558 22.8353C58.8009 22.4286 60.146 22.4603 61.3731 23.2508C62.396 23.911 62.9294 24.9128 62.9629 26.0941C62.9911 27.0748 62.8643 28.0677 62.7323 29.0449C62.5175 30.6206 62.2428 32.1893 61.9928 33.7615C61.9734 33.8847 61.94 34.0062 61.9101 34.1488H58.5297C58.6688 33.2773 58.8079 32.4164 58.9417 31.5555C59.1336 30.3301 59.3819 29.11 59.4998 27.8776C59.6565 26.2262 58.4998 25.3916 56.9153 25.9445C55.8924 26.3019 55.3783 27.0765 55.2075 28.0959C54.8888 30.0114 54.5948 31.9305 54.2885 33.8495C54.2726 33.9481 54.2427 34.0432 54.2163 34.1506" fill="white"/>
<path d="M28.3191 0.984375C27.4863 6.21685 26.6588 11.4212 25.8296 16.636H22.4316C23.2626 11.4176 24.0901 6.21509 24.9211 0.984375H28.3191Z" fill="white"/>
<path d="M29.253 0.972656H32.6509C31.8181 6.21042 30.9889 11.4218 30.1579 16.6384H26.7617C27.5927 11.4147 28.4202 6.2069 29.253 0.972656Z" fill="white"/>
<path d="M13.8277 1.96269C13.4527 2.85531 13.1111 3.6775 12.7661 4.49266C12.7344 4.5666 12.7044 4.63879 12.6727 4.71273C11.4315 7.64236 10.2062 10.5773 8.93677 13.4928C8.92092 13.5298 8.90508 13.5667 8.88923 13.6037C8.47373 14.5351 7.95964 15.4207 7.50012 16.3309C7.44378 16.4418 7.38569 16.5545 7.33287 16.6689C7.26949 16.8045 7.21315 16.9453 7.17617 17.0879C7.10575 17.3644 7.03004 17.7693 7.2642 18.0827C7.47195 18.3608 7.82055 18.4207 8.03886 18.4295C8.09168 18.4313 8.1357 18.4295 8.16915 18.4295H13.1393L12.5354 21.8222H7.44202C7.30294 21.8063 7.16561 21.787 7.02828 21.7641C6.66032 21.7042 6.317 21.6021 6.00362 21.4612C4.23598 20.6743 3.33456 18.7218 3.699 16.6672C3.76239 16.315 3.86098 15.9594 4.00006 15.6073C4.18493 15.1372 4.41556 14.6812 4.66557 14.2411L4.68318 14.2094L5.01945 13.602H6.97194C6.99307 13.5984 7.0142 13.5949 7.03709 13.5914C6.51419 13.3238 5.98601 13.0685 5.46664 12.7974C5.25185 12.6847 5.03882 12.572 4.82931 12.4523C4.57402 12.3079 4.30113 12.0738 4.18845 11.815C3.98598 11.3502 3.78527 10.8854 3.58457 10.4206L3.55816 10.3554L0 1.96445V1.96094H3.74478C3.77119 1.96094 3.7976 1.96269 3.82225 1.96798C3.83281 1.96798 3.84161 1.97149 3.85218 1.97325C3.8645 1.97501 3.87331 1.97854 3.88387 1.98206C3.88387 1.98206 3.88739 1.98206 3.88915 1.98206C3.96662 2.00671 4.03528 2.05249 4.08809 2.11411C4.09338 2.11939 4.09866 2.12467 4.10394 2.13171C4.18493 2.22854 4.25711 2.35706 4.29585 2.45741C4.54761 3.13348 4.79938 3.81132 5.04938 4.48914C5.59164 5.95924 6.12862 7.43286 6.66737 8.90471C6.74483 9.11774 6.83286 9.32725 6.96491 9.65824C7.32583 8.60012 7.62161 7.65645 7.96492 6.73037C8.24309 5.98036 8.52655 5.23388 8.81705 4.48914C9.08818 3.79195 9.36459 3.09476 9.64452 2.40109C9.69206 2.28313 9.81002 2.14755 9.93678 2.06304C9.94206 2.05776 9.94734 2.05424 9.95262 2.05248C10.0283 1.99438 10.1234 1.96094 10.2238 1.96094H13.8312L13.8277 1.96269Z" fill="white"/>
</svg>
