<svg width="17" height="24" viewBox="0 0 17 24" fill="none" xmlns="http://www.w3.org/2000/svg">
<path d="M6.5625 24H10.3125C10.8303 24 11.25 23.5803 11.25 23.0625C11.25 22.5447 10.8303 22.125 10.3125 22.125H6.5625C6.04472 22.125 5.625 22.5447 5.625 23.0625C5.625 23.5803 6.04472 24 6.5625 24Z" fill="#54B7CB"/>
<path d="M8.4375 0C7.91972 0 7.5 0.419719 7.5 0.9375V1.94227C4.32398 2.39855 1.875 5.13722 1.875 8.4375V14.2011C1.875 14.5314 1.72617 14.832 1.50473 14.949C0.576562 15.4391 0 16.3926 0 17.4375C0 18.9883 1.26169 20.25 2.8125 20.25H14.0625C15.6133 20.25 16.875 18.9883 16.875 17.4375C16.875 16.3926 16.2984 15.4391 15.3703 14.949C15.1488 14.832 15 14.5315 15 14.2011V8.4375C15 5.13722 12.551 2.39855 9.375 1.94227V0.9375C9.375 0.419719 8.95528 0 8.4375 0ZM13.125 8.4375V14.2011C13.125 15.239 13.6499 16.1609 14.4948 16.607C14.8064 16.7715 15 17.0898 15 17.4375C15 17.9544 14.5794 18.375 14.0625 18.375H2.8125C2.29556 18.375 1.875 17.9544 1.875 17.4375C1.875 17.0898 2.06859 16.7715 2.38022 16.607C3.22514 16.1609 3.75 15.239 3.75 14.2011V8.4375C3.75 5.85281 5.85281 3.75 8.4375 3.75C11.0222 3.75 13.125 5.85281 13.125 8.4375Z" fill="#54B7CB"/>
</svg>
