<svg width="12" height="12" viewBox="0 0 12 12" fill="none" xmlns="http://www.w3.org/2000/svg">
<path d="M5.99975 11.9995C9.31332 11.9995 11.9995 9.31332 11.9995 5.99975C11.9995 2.68618 9.31332 0 5.99975 0C2.68618 0 0 2.68618 0 5.99975C0 9.31332 2.68618 11.9995 5.99975 11.9995Z" fill="white"/>
<path d="M11.6578 4H7.96094C8.12153 5.2817 8.12246 6.69395 7.96405 7.97727H11.6656C11.8817 7.35817 12.0005 6.69329 12.0005 6.00057C12.0006 5.29875 11.8791 4.62574 11.6578 4Z" fill="#EFECEC"/>
<path d="M7.9604 4.0003H11.6572C11.6566 3.9984 11.656 3.99681 11.6553 3.99508C10.8875 1.82985 8.91223 0.23685 6.53906 0.0253906C7.45735 0.528844 7.72564 2.12382 7.9604 4.0003Z" fill="#C42B27"/>
<path d="M6.53906 11.975C8.91659 11.7631 10.8946 10.1646 11.6595 7.99361C11.6615 7.98784 11.6632 7.98216 11.6653 7.97656H7.96362C7.73065 9.86315 7.46123 11.4694 6.53906 11.975Z" fill="#0B0B0B"/>
<path d="M0 6.00057C0 6.69339 0.118992 7.35817 0.334884 7.97727H8.27227C8.43086 6.69387 8.42972 5.2817 8.26933 4H0.342864C0.12155 4.62574 0 5.29875 0 6.00057Z" fill="#EFEFEF"/>
<path d="M0.34565 3.99432C0.345093 3.99601 0.34451 3.99764 0.34375 3.99954H8.27024C8.0353 2.12308 7.45815 0.528078 6.53976 0.0246496C6.36214 0.00891741 6.18253 0 6.00081 0C3.39072 0 1.17112 1.667 0.34565 3.99432Z" fill="#CC3434"/>
<path d="M8.27335 7.97656H0.335938C0.337939 7.98216 0.339814 7.98784 0.341714 7.99361C1.16386 10.3269 3.38668 11.9998 6.00095 11.9998C6.18267 11.9998 6.36228 11.9908 6.53992 11.9749C7.46219 11.4694 8.04038 9.86315 8.27335 7.97656Z" fill="#151515"/>
<path d="M7.17128 7.39605C7.0987 7.37662 6.99108 7.39256 6.90432 7.38734C6.88782 7.39699 6.88993 7.42542 6.88253 7.44437C6.89107 7.462 6.90878 7.45232 6.92638 7.46615C6.95377 7.4924 6.97241 7.52792 7.01391 7.54053C6.97819 7.57795 6.97915 7.65175 6.92638 7.67194C6.9353 7.75797 6.87939 7.77312 6.79498 7.78999C6.39101 7.87053 5.76281 7.87866 5.33336 7.82049C5.28003 7.81348 5.12352 7.79017 5.08372 7.75503C5.06799 7.74082 5.05851 7.71969 5.06193 7.68047C5.01124 7.65527 5.01068 7.57995 4.97013 7.54481C5.02677 7.52558 5.03766 7.46078 5.10153 7.44857C5.10343 7.42177 5.09188 7.40839 5.08818 7.38737C4.99809 7.3922 4.88858 7.37723 4.8125 7.39608C4.81952 7.29822 4.82177 7.187 4.83013 7.07227C4.84123 6.9189 4.83961 6.73918 4.85192 6.58655C4.85835 6.50867 4.85579 6.42814 4.86084 6.35026C4.86993 6.20236 4.86339 6.05553 4.87401 5.91693C4.88528 5.76744 4.88006 5.60771 4.89144 5.46635C4.90309 5.31979 4.94345 5.2027 5.11455 5.21671C5.31737 5.23358 5.4448 5.40344 5.66591 5.40486C5.76861 5.34138 5.84335 5.09478 5.81464 4.91043C5.80147 4.82515 5.71118 4.70191 5.62224 4.74852C5.60906 4.6047 5.74607 4.62403 5.83653 4.66971C5.8641 4.65246 5.87225 4.62821 5.9022 4.62157C5.97637 4.60508 6.07168 4.63883 6.10796 4.66099C6.17684 4.70315 6.20876 4.79665 6.20866 4.91489C6.20848 4.97609 6.19483 5.03699 6.19974 5.09858C6.21063 5.22922 6.25507 5.33542 6.30926 5.40061C6.51464 5.41945 6.66565 5.23652 6.8649 5.21671C6.94969 5.20838 7.02037 5.24019 7.05751 5.29552C7.11416 5.50574 7.09617 5.73795 7.11436 5.97385C7.12525 6.11519 7.11882 6.26291 7.12753 6.40718C7.14732 6.73335 7.15707 7.06087 7.17128 7.39605ZM6.18657 5.10729C6.17765 4.98851 6.21063 4.86118 6.16914 4.75278C6.14971 4.73431 6.13843 4.70758 6.11211 4.69593C6.09032 4.69593 6.06844 4.69593 6.04665 4.69593C6.01387 4.71356 6.00183 4.74994 5.96784 4.75713C5.88692 4.77439 5.88049 4.69755 5.8191 4.67404C5.80319 4.66778 5.78158 4.6713 5.76208 4.66512C5.70343 4.64721 5.66867 4.62629 5.63959 4.70897C5.74673 4.70272 5.84241 4.7373 5.86716 4.82721C5.80596 4.81016 5.82311 4.86511 5.82774 4.90138C5.85029 5.08176 5.81011 5.2271 5.74893 5.326C5.71985 5.37317 5.68253 5.41003 5.6614 5.45295C5.72507 5.44111 5.78257 5.44479 5.81459 5.40463C5.85751 5.35121 5.84824 5.23685 5.8758 5.17281C5.87324 5.30867 5.83468 5.40889 5.77092 5.48345C5.92685 5.46146 5.95395 5.3314 5.96779 5.17281C5.97924 5.25144 5.95831 5.33565 5.93265 5.39156C5.95284 5.41677 5.96429 5.45059 5.99403 5.46612C6.01866 5.44557 6.03695 5.41857 6.05088 5.38731C6.02816 5.33568 6.00115 5.24189 6.02463 5.17283C6.02263 5.34117 6.06869 5.46151 6.21296 5.48347C6.1549 5.41006 6.09881 5.2884 6.11652 5.16837C6.12154 5.26254 6.14429 5.33899 6.17337 5.40909C6.21355 5.43468 6.26421 5.44965 6.32674 5.45295C6.25687 5.36782 6.19784 5.25461 6.18657 5.10729ZM5.91106 4.7091C5.91106 4.71488 5.91106 4.72076 5.91106 4.72653C5.92158 4.72483 5.92054 4.73469 5.93275 4.73099C5.93663 4.72597 5.93873 4.71934 5.93721 4.7092C5.93153 4.70325 5.91656 4.70325 5.91106 4.7091ZM5.06639 5.22978C4.96967 5.23736 4.91746 5.31827 4.91766 5.41368C4.96002 5.39909 5.00037 5.35949 5.04461 5.36111C5.02092 6.01963 4.99204 6.61874 4.96579 7.26921C4.92772 7.30511 4.87903 7.33097 4.85202 7.37855C4.93083 7.37855 5.00967 7.37855 5.08831 7.37855C5.10072 7.27415 5.21801 7.25274 5.31588 7.2821C5.36229 7.12151 5.40949 6.96161 5.45174 6.79638C5.40827 6.82301 5.38608 6.87076 5.34222 6.89708C5.35796 6.47597 5.37926 6.06614 5.39479 5.63679C5.46233 5.68936 5.57205 5.6925 5.67919 5.67621C5.80745 5.6566 5.91841 5.58554 5.99854 5.53609C6.08257 5.61065 6.23652 5.67299 6.39245 5.68482C6.48956 5.69222 6.53437 5.66058 6.59378 5.6454C6.60287 6.07448 6.63358 6.49415 6.64191 6.90144C6.60619 6.86848 6.57673 6.82944 6.53703 6.80064C6.57569 6.96625 6.626 7.1202 6.66823 7.2821C6.77018 7.24991 6.88271 7.27785 6.90024 7.37855C6.97735 7.37561 7.0664 7.38433 7.13632 7.37409C7.10876 7.3252 7.04081 7.31119 7.02273 7.26032C7.00218 7.20301 7.01713 7.11566 7.01401 7.04138C6.98994 6.51219 6.95633 5.88711 6.94391 5.35686C6.99347 5.36851 7.0249 5.39835 7.07086 5.4137C7.06101 5.30827 7.01723 5.23644 6.91767 5.22981C6.69116 5.21466 6.56052 5.42298 6.33135 5.41796C6.33135 5.44573 6.37596 5.45198 6.37077 5.47053C6.32691 5.46741 6.26201 5.46409 6.21758 5.44874C6.21332 5.47298 6.25737 5.48408 6.26125 5.5142C6.17428 5.49943 6.109 5.46275 6.05567 5.41368C6.0353 5.44276 6.01701 5.47423 5.99 5.49677C5.9669 5.47053 5.95259 5.43481 5.92434 5.41368C5.87831 5.46683 5.81426 5.50197 5.72322 5.50992C5.73601 5.48775 5.76243 5.47922 5.76689 5.44871C5.72653 5.46272 5.65938 5.47202 5.6137 5.46635C5.62725 5.45044 5.65036 5.44456 5.65312 5.41804C5.4355 5.42409 5.28401 5.21301 5.06639 5.22978ZM5.49083 5.70263C5.49955 6.18237 5.68248 6.52618 5.99834 6.71349C6.2994 6.51549 6.49049 6.18448 6.49295 5.70263C6.33862 5.70063 6.22986 5.67819 6.13418 5.63697C6.08037 5.61386 6.02854 5.5713 5.98544 5.55816C5.86645 5.65204 5.70361 5.70243 5.49083 5.70263ZM5.49955 6.02199C5.49547 6.23459 5.46147 6.49415 5.47776 6.71347C5.52237 6.59524 5.50996 6.44536 5.51718 6.28905C5.52202 6.18438 5.54342 6.07846 5.504 6.00892C5.50418 6.01487 5.5019 6.01839 5.49955 6.02199ZM6.47116 6.4159C6.47116 6.53357 6.47694 6.64828 6.51484 6.71772C6.5193 6.48496 6.49001 6.2429 6.4888 6.01307C6.48302 6.01289 6.48274 6.00767 6.47562 6.00881C6.4452 6.12431 6.47116 6.27322 6.47116 6.4159ZM5.56964 6.66533C5.60734 6.6228 5.64942 6.58462 5.68342 6.53818C5.67764 6.44344 5.65471 6.36576 5.6046 6.31517C5.59095 6.42755 5.48285 6.57259 5.56964 6.66533ZM6.3048 6.54267C6.34591 6.58057 6.38105 6.64727 6.42729 6.66536C6.49257 6.55896 6.39838 6.4448 6.38807 6.32391C6.38229 6.32374 6.38181 6.31814 6.37472 6.31966C6.33125 6.37354 6.30576 6.44584 6.3048 6.54267ZM5.71838 6.73971C5.75873 6.6968 5.79369 6.64849 5.82769 6.59959C5.7733 6.5563 5.7337 6.49823 5.68342 6.45066C5.69469 6.54741 5.70105 6.64887 5.71838 6.73971ZM6.16042 6.60385C6.1987 6.64866 6.22571 6.70483 6.2742 6.73971C6.28311 6.64496 6.29031 6.54872 6.3047 6.45957C6.30432 6.45418 6.30338 6.44924 6.29598 6.45066C6.25555 6.50657 6.20732 6.5547 6.16042 6.60385ZM5.55647 6.6914C5.55107 6.66326 5.53628 6.64461 5.53022 6.61722C5.49253 6.66754 5.48807 6.74285 5.46902 6.80963C5.462 6.83408 5.44515 6.85407 5.44723 6.87973C5.49734 6.85822 5.51791 6.80735 5.56972 6.78775C5.57899 6.83104 5.6006 6.86174 5.6134 6.90152C5.65395 6.88209 5.65205 6.82053 5.68795 6.79646C5.70776 6.86694 5.72851 6.93668 5.75341 7.00222C5.80003 6.9628 5.85318 6.92964 5.86719 6.85774C5.84094 6.79796 5.81687 6.73601 5.79281 6.67405C5.75729 6.69829 5.73474 6.75894 5.70528 6.77475C5.69733 6.70237 5.70216 6.61748 5.67458 6.56471C5.63853 6.61021 5.60146 6.65454 5.55647 6.6914ZM6.28291 6.77893C6.25107 6.74653 6.2291 6.70455 6.19538 6.67405C6.18279 6.70275 6.168 6.73107 6.15596 6.76158C6.14393 6.79208 6.12232 6.8297 6.121 6.85782C6.11768 6.9265 6.19338 6.95862 6.23478 7.0023C6.254 6.934 6.26254 6.85498 6.29163 6.79654C6.31881 6.83074 6.33104 6.87981 6.37044 6.90159C6.39063 6.86494 6.40464 6.82202 6.423 6.78336C6.46042 6.81614 6.495 6.85166 6.53678 6.87981C6.51773 6.80079 6.49386 6.68937 6.45797 6.61284C6.44905 6.64175 6.43739 6.66797 6.423 6.69148C6.38227 6.65206 6.35139 6.60261 6.30477 6.56899C6.29163 6.63313 6.28633 6.70513 6.28291 6.77893ZM5.83651 6.61277C5.76565 6.66326 5.84429 6.76576 5.87165 6.82298C5.88406 6.77249 5.89551 6.72124 5.90661 6.66961C5.88256 6.65143 5.85943 6.6322 5.83651 6.61277ZM6.08161 6.67397C6.09478 6.72352 6.09544 6.78557 6.12103 6.82291C6.14548 6.77128 6.16356 6.71359 6.18649 6.66082C6.17408 6.64274 6.16612 6.61989 6.14282 6.61269C6.13238 6.64289 6.09382 6.64534 6.08161 6.67397ZM5.55211 6.80517C5.51774 6.8409 5.48457 6.87776 5.43834 6.90162C5.40784 6.98991 5.47092 7.06484 5.49955 7.13345C5.53935 7.10454 5.55639 7.05291 5.59599 7.02413C5.6119 7.07538 5.62279 7.13147 5.64856 7.17287C5.69147 7.14274 5.7161 7.07151 5.7577 7.05481C5.76735 7.10219 5.76679 7.15949 5.79283 7.19047C5.80836 7.10682 5.82835 7.02763 5.84522 6.94529C5.80988 6.95249 5.78412 7.0065 5.74898 7.02857C5.72474 6.96528 5.709 6.89367 5.68352 6.83152C5.64914 6.85559 5.6443 6.90919 5.61342 6.93658C5.59561 6.89014 5.58299 6.83872 5.55211 6.80517ZM6.366 6.93658C6.341 6.9003 6.32621 6.85407 6.28719 6.83152C6.27146 6.89736 6.25355 6.96123 6.23926 7.02857C6.20278 7.00764 6.17833 6.95231 6.14282 6.94529C6.16045 7.03112 6.17038 7.12483 6.20402 7.19473C6.21122 7.14366 6.21993 7.09393 6.23473 7.05045C6.27415 7.08835 6.29469 7.145 6.34404 7.17294C6.35777 7.12093 6.37644 7.07414 6.39217 7.02421C6.42921 7.05585 6.44674 7.10672 6.48862 7.13352C6.51286 7.06322 6.57445 6.99766 6.54972 6.90615C6.50425 6.87725 6.47033 6.83682 6.42724 6.80535C6.40172 6.84383 6.39253 6.89868 6.366 6.93658ZM5.8892 7.28218C5.86665 7.29477 5.85075 7.31402 5.82782 7.32603C5.81855 7.31514 5.79154 7.27942 5.78414 7.29533C5.77809 7.31276 5.77733 7.3353 5.77097 7.35235C5.81274 7.35623 5.89536 7.34014 5.91524 7.3786C5.97445 7.37044 6.0222 7.3897 6.06844 7.3786C6.08569 7.37434 6.09914 7.35567 6.11657 7.35235C6.14915 7.34592 6.18079 7.35813 6.21301 7.35235C6.20704 7.3333 6.2117 7.30404 6.19966 7.29115C6.17096 7.29001 6.17598 7.32261 6.14727 7.32165C6.1323 7.30166 6.1053 7.2935 6.09025 7.27352C6.07358 7.15179 6.06307 7.0235 6.03786 6.91028C6.0279 7.03125 6.05567 7.15197 6.05083 7.28223C6.02735 7.30242 6.01607 7.335 5.98962 7.35233C5.97967 7.32304 5.93989 7.3081 5.9326 7.26923C5.91355 7.16228 5.9724 6.99649 5.94595 6.91028C5.9214 7.02857 5.916 7.16623 5.8892 7.28218ZM5.32892 7.28664C5.3476 7.29847 5.36928 7.30756 5.4033 7.30407C5.43201 7.27025 5.45161 7.22705 5.4864 7.19919C5.50193 7.24636 5.51824 7.29297 5.53917 7.33485C5.54912 7.33485 5.55954 7.33485 5.56967 7.33485C5.59336 7.30615 5.60653 7.26673 5.63088 7.23861C5.64623 7.27281 5.6536 7.31506 5.67009 7.34792C5.69008 7.35588 5.72248 7.35104 5.7489 7.35238C5.79314 7.27744 5.77591 7.15845 5.74465 7.08116C5.70447 7.11688 5.68078 7.16889 5.63959 7.20365C5.62178 7.15295 5.61535 7.09081 5.58256 7.05491C5.55206 7.08967 5.52468 7.12795 5.49521 7.16423C5.46413 7.10928 5.45542 7.03178 5.41194 6.98915C5.38851 7.09233 5.35877 7.18954 5.32892 7.28664ZM6.4887 7.16413C6.45837 7.12727 6.43648 7.08179 6.39671 7.05481C6.37105 7.09755 6.36704 7.16233 6.33968 7.20355C6.30604 7.16565 6.27564 7.1016 6.2348 7.08531C6.21461 7.17464 6.18819 7.27772 6.23926 7.35228C6.26426 7.35114 6.29497 7.3556 6.31364 7.34782C6.33383 7.31712 6.33712 7.26939 6.35732 7.23851C6.37578 7.27108 6.39559 7.30217 6.41416 7.33475C6.42599 7.33475 6.43765 7.33475 6.44912 7.33475C6.46873 7.28872 6.48229 7.2365 6.50615 7.19463C6.52984 7.2366 6.55816 7.27382 6.58924 7.3084C6.61369 7.30214 6.64457 7.30242 6.65491 7.28216C6.62524 7.18779 6.60052 7.08861 6.57181 6.99348C6.56736 6.99348 6.5631 6.99348 6.55864 6.99348C6.53794 7.05291 6.51352 7.1088 6.4887 7.16413ZM5.41645 7.31296C5.45331 7.31722 5.48126 7.32983 5.52151 7.33039C5.50768 7.29315 5.50096 7.24882 5.47338 7.22551C5.45861 7.2587 5.42773 7.27613 5.41645 7.31296ZM6.46671 7.33031C6.49171 7.33249 6.53386 7.31648 6.56741 7.31288C6.56409 7.28646 6.52999 7.25444 6.51056 7.22979C6.48299 7.25034 6.47722 7.29297 6.46671 7.33031ZM5.58707 7.33921C5.60146 7.34812 5.63151 7.34156 5.65274 7.34367C5.6444 7.31828 5.64592 7.28332 5.62224 7.27357C5.60924 7.29421 5.59389 7.3122 5.58707 7.33921ZM6.3355 7.34367C6.35587 7.34367 6.37644 7.34367 6.39671 7.34367C6.39093 7.31126 6.38004 7.28426 6.35286 7.27357C6.35179 7.29961 6.32925 7.32423 6.3355 7.34367ZM6.76002 7.28218C6.6577 7.30455 6.52469 7.34329 6.39678 7.35674C6.29836 7.36687 6.21025 7.36991 6.11665 7.36545C6.09098 7.39322 6.10423 7.42504 6.1211 7.45298C6.21005 7.46633 6.31002 7.46017 6.39678 7.44852C6.39195 7.35567 6.50222 7.33264 6.51484 7.43109C6.60938 7.41034 6.7152 7.40077 6.79052 7.36099C6.79128 7.32406 6.7911 7.28758 6.76002 7.28218ZM5.50844 7.34792C5.43332 7.33721 5.33214 7.30169 5.26326 7.28672C5.22422 7.27818 5.21257 7.28519 5.1978 7.30414C5.1978 7.32469 5.1978 7.34526 5.1978 7.36553C5.27833 7.39869 5.37734 7.41346 5.47348 7.43119C5.48164 7.33239 5.59265 7.35086 5.58707 7.44862C5.6822 7.4601 5.76547 7.46643 5.86296 7.45308C5.88239 7.42238 5.89515 7.39975 5.87167 7.36555C5.75465 7.36811 5.64998 7.36839 5.50844 7.34792ZM5.11027 7.40041C5.14059 7.39263 5.16408 7.37842 5.18465 7.36099C5.18265 7.33969 5.18911 7.30974 5.18019 7.29533C5.13109 7.30217 5.09613 7.34529 5.11027 7.40041ZM6.80369 7.36545C6.82568 7.37984 6.84792 7.39436 6.87807 7.40041C6.88841 7.34878 6.85715 7.30217 6.80815 7.29535C6.79906 7.31109 6.80569 7.34273 6.80369 7.36545ZM5.53022 7.48351C5.5397 7.47261 5.55315 7.4657 5.56519 7.45726C5.5683 7.42212 5.56387 7.39453 5.54776 7.37862C5.47084 7.36791 5.47376 7.47497 5.53022 7.48351ZM6.4186 7.45298C6.42485 7.46813 6.44502 7.47145 6.46227 7.48348C6.48018 7.47363 6.4887 7.4544 6.50169 7.43981C6.49949 7.34384 6.38941 7.38308 6.4186 7.45298ZM5.46459 7.44426C5.34805 7.44039 5.23068 7.35861 5.1276 7.4093C5.12428 7.43061 5.10855 7.43963 5.11443 7.47041C5.06508 7.46519 5.00823 7.53096 5.00509 7.55368C4.99827 7.60341 5.04782 7.63951 5.07501 7.67191C5.07189 7.70262 5.07774 7.72448 5.08818 7.74163C5.45861 7.86432 6.07069 7.86688 6.52791 7.81619C6.66225 7.80121 6.87635 7.78748 6.91311 7.71113C6.91311 7.6937 6.91311 7.67617 6.91311 7.65856C6.96162 7.64577 6.96937 7.59252 6.98303 7.54479C6.94419 7.5194 6.93102 7.46853 6.86926 7.46615C6.88147 7.44852 6.86072 7.43251 6.86054 7.41359C6.80597 7.36717 6.74079 7.40117 6.66367 7.41784C6.55765 7.44095 6.48821 7.44115 6.46217 7.51864C6.45128 7.49164 6.42513 7.47981 6.40532 7.46162C6.32167 7.47383 6.2116 7.48275 6.12536 7.46608C6.10261 7.50159 6.0526 7.50993 6.04655 7.56232C6.03413 7.52954 6.01339 7.50501 6.01584 7.45726C6.00145 7.45726 5.98656 7.45726 5.97217 7.45726C5.96591 7.498 5.95702 7.53552 5.93703 7.56232C5.93354 7.50899 5.88153 7.50425 5.86285 7.46608C5.77827 7.48569 5.6571 7.46798 5.58254 7.46608C5.55259 7.47535 5.5398 7.5018 5.51708 7.51867C5.51376 7.47981 5.48212 7.46909 5.46459 7.44426ZM5.94159 7.3916C5.94699 7.41414 5.96196 7.42673 5.9723 7.44437C6.02562 7.45526 6.03036 7.41794 6.04667 7.3916C6.02096 7.3845 5.96725 7.3845 5.94159 7.3916ZM5.88028 7.46615C5.89896 7.4852 5.91752 7.50481 5.94595 7.51429C5.963 7.46891 5.95117 7.40165 5.9021 7.39605C5.90605 7.43064 5.87659 7.43167 5.88028 7.46615ZM6.06854 7.39605C6.04136 7.41566 6.00715 7.48842 6.05091 7.51429C6.06758 7.49278 6.09732 7.48482 6.10793 7.45726C6.08956 7.44209 6.09364 7.40429 6.06854 7.39605Z" fill="#EEBC31"/>
<path d="M5.14092 7.08903C5.09375 7.13063 5.0386 7.18783 4.99219 7.2158C5.01294 6.61849 5.05101 6.00478 5.071 5.38672C5.1162 5.40726 5.16575 5.4609 5.20666 5.50049C5.18771 6.03488 5.16289 6.52468 5.14092 7.08903Z" fill="#EEBC31"/>
<path d="M6.99605 7.21182C6.97104 7.21666 6.9467 7.17572 6.92167 7.15479C6.89334 7.13131 6.86008 7.11168 6.84286 7.08487C6.81529 6.63411 6.82193 6.15842 6.78583 5.72841C6.78043 5.66163 6.76698 5.54538 6.77711 5.50512C6.79085 5.4518 6.88134 5.4315 6.90852 5.38281C6.94194 5.93174 6.96479 6.62048 6.99605 7.21182Z" fill="#EEBC31"/>
<path d="M5.24545 5.53125C5.28743 5.55473 5.31783 5.5899 5.35477 5.61878C5.34425 5.97053 5.32219 6.39165 5.30663 6.74321C5.30446 6.79466 5.31922 6.87565 5.30218 6.92275C5.28371 6.97362 5.21227 7.001 5.17969 7.04523C5.19884 6.53555 5.22858 6.0306 5.24545 5.53125Z" fill="#EEBC31"/>
<path d="M6.80343 7.0363C6.79766 7.04235 6.78552 7.02702 6.77719 7.01866C6.75132 6.99308 6.71522 6.95368 6.68966 6.92686C6.66749 6.49882 6.65062 6.05224 6.63281 5.62714C6.65744 5.58755 6.69941 5.56538 6.73351 5.53516C6.759 5.99572 6.78137 6.54254 6.80343 7.0363Z" fill="#EEBC31"/>
<path d="M6.45406 5.72355C6.44742 6.17185 6.27196 6.48959 5.99458 6.68182C5.71113 6.48695 5.54534 6.17431 5.51758 5.72355C5.71756 5.72223 5.88763 5.66767 5.99458 5.58789C6.1025 5.67836 6.26299 5.71615 6.45406 5.72355ZM5.83703 5.69285C5.82926 5.87201 5.83278 6.11328 5.83278 6.30997C5.83278 6.38179 5.81801 6.4661 5.83278 6.52001C5.84056 6.54816 5.88403 6.5742 5.90716 6.59439C5.9371 6.62064 5.96155 6.64433 5.99025 6.66006C6.03299 6.62652 6.13719 6.57527 6.15234 6.51994C6.16655 6.46699 6.15234 6.38559 6.15234 6.31436C6.15234 6.10953 6.15234 5.87819 6.15234 5.69277C6.09549 5.66483 6.04206 5.63374 5.98597 5.60524C5.94579 5.64416 5.88015 5.65713 5.83703 5.69285Z" fill="#EEBC31"/>
<path d="M5.23242 7.30859C5.25981 7.31769 5.3031 7.31077 5.3068 7.34373C5.2837 7.35227 5.26503 7.32222 5.23242 7.3261C5.23242 7.32025 5.23242 7.31445 5.23242 7.30859Z" fill="#EEBC31"/>
<path d="M6.75603 7.31828C6.73698 7.33419 6.70647 7.33847 6.68165 7.34878C6.68091 7.31828 6.74029 7.30351 6.75603 7.31828Z" fill="#EEBC31"/>
<path d="M5.36328 7.35156C5.40014 7.35564 5.43528 7.36121 5.45509 7.38206C5.42639 7.3832 5.36906 7.37611 5.36328 7.35156Z" fill="#EEBC31"/>
<path d="M6.62379 7.35769C6.611 7.37321 6.55757 7.38781 6.52734 7.38373C6.54771 7.3664 6.59194 7.34925 6.62379 7.35769Z" fill="#EEBC31"/>
<path d="M6.38355 7.4138C6.36063 7.421 6.31014 7.421 6.28711 7.4138C6.29468 7.38424 6.3737 7.3868 6.38355 7.4138Z" fill="#EEBC31"/>
<path d="M5.71053 7.40057C5.70199 7.43297 5.64043 7.41222 5.60547 7.418C5.6082 7.37878 5.68124 7.40057 5.71053 7.40057Z" fill="#EEBC31"/>
<path d="M5.84003 7.41001C5.81873 7.42128 5.77267 7.42906 5.74805 7.42298C5.75686 7.39929 5.81475 7.40203 5.84003 7.41001Z" fill="#EEBC31"/>
<path d="M6.23456 7.42632C6.20102 7.42463 6.17318 7.41761 6.14258 7.41315C6.15907 7.3976 6.23456 7.39628 6.23456 7.42632Z" fill="#EEBC31"/>
<path d="M6.83942 7.59275C6.85923 7.5922 6.84851 7.56091 6.86992 7.56205C6.86681 7.5754 6.87438 7.57796 6.87418 7.5883C6.84879 7.60185 6.82701 7.60849 6.79554 7.59701C6.76116 7.6153 6.71853 7.67838 6.67305 7.63197C6.64159 7.63719 6.64625 7.678 6.62046 7.689C6.5855 7.66143 6.55548 7.67499 6.50223 7.68008C6.4865 7.69799 6.48518 7.73001 6.4541 7.73265C6.456 7.71266 6.47996 7.71484 6.48034 7.69343C6.4755 7.67922 6.4506 7.68527 6.44092 7.6758C6.43277 7.6399 6.46073 7.64008 6.47163 7.62321C6.49162 7.62804 6.49331 7.65097 6.49787 7.67152C6.51416 7.67169 6.52544 7.66706 6.53729 7.6626C6.54099 7.63722 6.55396 7.621 6.56779 7.60575C6.56703 7.58151 6.55206 7.54852 6.55462 7.53565C6.57962 7.54143 6.56759 7.58417 6.58087 7.60132C6.61451 7.5982 6.6345 7.6091 6.64207 7.63182C6.67609 7.61885 6.6863 7.57925 6.7296 7.57943C6.74865 7.57943 6.75888 7.5961 6.77773 7.5926C6.78295 7.53454 6.76778 7.41517 6.69464 7.4612C6.69796 7.43827 6.73036 7.44415 6.75584 7.44377C6.80182 7.47538 6.75777 7.59683 6.83942 7.59275ZM6.68615 7.62771C6.70634 7.6458 6.75701 7.63605 6.75182 7.60147C6.73948 7.5794 6.67751 7.58888 6.68615 7.62771ZM6.5987 7.6495C6.60866 7.64639 6.62087 7.64563 6.6292 7.64079C6.6292 7.59088 6.55928 7.61568 6.5987 7.6495ZM6.55928 7.66268C6.57017 7.66344 6.57283 7.65586 6.58107 7.65376C6.58089 7.63955 6.58297 7.62305 6.56789 7.62326C6.55997 7.63103 6.54745 7.64856 6.55928 7.66268ZM6.45412 7.67159C6.46767 7.67765 6.47393 7.67349 6.48483 7.66713C6.48483 7.6568 6.47725 7.65416 6.48037 7.64089C6.46228 7.64175 6.45083 7.64894 6.45412 7.67159ZM6.60296 7.67159C6.61679 7.68325 6.63498 7.67103 6.63366 7.65378C6.62011 7.65652 6.60278 7.65492 6.60296 7.67159Z" fill="#EEBC31"/>
<path d="M5.25015 7.46598C5.25015 7.47318 5.25015 7.48058 5.25015 7.48777C5.2439 7.49458 5.22778 7.49165 5.21519 7.49223C5.21149 7.4767 5.21464 7.48134 5.21094 7.46598C5.22297 7.45537 5.23652 7.45803 5.25015 7.46598Z" fill="#EEBC31"/>
<path d="M5.24059 7.51865C5.24115 7.52643 5.23519 7.52792 5.23613 7.53608C5.21832 7.53646 5.20193 7.53552 5.20117 7.51865C5.20839 7.51201 5.23357 7.51201 5.24059 7.51865Z" fill="#EEBC31"/>
<path d="M6.16108 7.55273C6.16685 7.55273 6.17273 7.55273 6.17851 7.55273C6.18494 7.55899 6.18494 7.58144 6.17851 7.58769C6.17273 7.58769 6.16685 7.58769 6.16108 7.58769C6.15464 7.58134 6.15464 7.55897 6.16108 7.55273Z" fill="#EEBC31"/>
<path d="M5.67859 7.5625C5.69215 7.61953 5.7019 7.74249 5.65235 7.75065C5.603 7.75861 5.61721 7.68405 5.56926 7.68055C5.53997 7.69127 5.50379 7.70366 5.47301 7.68947C5.45123 7.69099 5.45472 7.71779 5.43359 7.72018C5.46174 7.69109 5.44988 7.65413 5.44677 7.61937C5.47025 7.62211 5.47357 7.64504 5.47301 7.67214C5.4856 7.69857 5.5383 7.68086 5.55611 7.67214C5.54663 7.65368 5.5348 7.63777 5.5254 7.61937C5.55221 7.61236 5.55221 7.58753 5.57797 7.58887C5.62071 7.59087 5.63112 7.65699 5.58668 7.6764C5.61539 7.68712 5.61888 7.72301 5.64371 7.73761C5.70145 7.72517 5.65919 7.61327 5.67859 7.5625ZM5.54749 7.63252C5.54673 7.64919 5.56188 7.65877 5.578 7.66766C5.65179 7.6345 5.55023 7.5623 5.54749 7.63252Z" fill="#EEBC31"/>
<path d="M5.73641 7.5625C5.75062 7.59262 5.73139 7.66168 5.72749 7.70262C5.7149 7.67392 5.73015 7.60106 5.73641 7.5625Z" fill="#EEBC31"/>
<path d="M6.22161 7.5625C6.2509 7.59158 6.21639 7.68443 6.25211 7.70677C6.28206 7.69786 6.30222 7.70194 6.30914 7.67627C6.31519 7.65355 6.28375 7.64 6.30042 7.62371C6.33946 7.62561 6.3136 7.68055 6.30914 7.70252C6.26346 7.71473 6.21677 7.71901 6.17773 7.71123C6.18012 7.68886 6.2036 7.68755 6.22159 7.68053C6.23808 7.64283 6.21214 7.5931 6.22161 7.5625Z" fill="#EEBC31"/>
<path d="M6.1948 7.61491C6.19753 7.6405 6.14185 7.6258 6.15984 7.61045C6.16609 7.6046 6.19442 7.60156 6.1948 7.61491Z" fill="#EEBC31"/>
<path d="M6.35723 7.75889C6.36321 7.7354 6.3776 7.72099 6.38793 7.70186C6.37572 7.67741 6.32759 7.65449 6.36151 7.62305C6.42874 7.63308 6.3971 7.74287 6.35723 7.75889ZM6.36148 7.64493C6.36366 7.66181 6.37058 7.67402 6.38791 7.67564C6.39842 7.66274 6.37863 7.63034 6.36148 7.64493Z" fill="#EEBC31"/>
<path d="M6.8425 7.64078C6.84233 7.66637 6.81124 7.65783 6.79883 7.6495C6.80564 7.62508 6.82799 7.63235 6.8425 7.64078Z" fill="#EEBC31"/>
<path d="M5.85771 7.63672C5.89769 7.66466 5.97111 7.67984 6.02388 7.65851C6.03667 7.67072 6.03533 7.69678 6.04587 7.71107C6.05108 7.70606 6.06122 7.70606 6.07211 7.70661C6.06302 7.6546 6.13539 7.64181 6.13332 7.6979C6.11997 7.72273 6.08075 7.72121 6.04133 7.71989C6.02342 7.72974 6.02342 7.75731 6.00637 7.76782C5.98694 7.76101 5.97085 7.75077 5.96695 7.7286C5.90623 7.71601 5.89827 7.72359 5.82683 7.71989C5.8092 7.74064 5.79225 7.78355 5.76562 7.78109C5.77842 7.75873 5.80332 7.7489 5.80948 7.71989C5.80132 7.70322 5.77082 7.69015 5.78749 7.66286C5.82947 7.65605 5.809 7.71155 5.84434 7.711C5.88158 7.69595 5.85308 7.66106 5.85771 7.63672ZM5.87089 7.7111C5.89457 7.71128 5.93475 7.71186 5.96713 7.71556C5.98086 7.72665 5.98248 7.74976 6.00209 7.75498C6.01648 7.73592 6.0413 7.70003 6.01972 7.67188C5.97149 7.71176 5.86625 7.62005 5.87089 7.7111ZM6.08954 7.70664C6.11226 7.71052 6.12062 7.69982 6.12024 7.68039C6.10365 7.65813 6.07399 7.68392 6.08954 7.70664Z" fill="#EEBC31"/>
<path d="M5.2189 7.65898C5.23273 7.65529 5.23245 7.6658 5.24068 7.6679C5.24124 7.68125 5.23529 7.68883 5.23197 7.6984C5.20669 7.69491 5.20669 7.67282 5.2189 7.65898Z" fill="#EEBC31"/>
<path d="M5.29333 7.67671C5.31179 7.70704 5.26728 7.72333 5.25391 7.6985C5.2556 7.67983 5.26944 7.67312 5.29333 7.67671Z" fill="#EEBC31"/>
<path d="M5.35995 7.71019C5.35569 7.71036 5.35645 7.71558 5.35549 7.7191C5.34535 7.7191 5.33512 7.7191 5.32478 7.7191C5.30416 7.683 5.36167 7.67021 5.35995 7.71019Z" fill="#EEBC31"/>
<path d="M6.21798 7.73828C6.24128 7.73884 6.23855 7.77618 6.22244 7.78213C6.20463 7.77978 6.20594 7.74603 6.21798 7.73828Z" fill="#EEBC31"/>
<path d="M6.27855 7.78083C6.26575 7.77599 6.25268 7.77156 6.24805 7.75904C6.26132 7.71717 6.31493 7.75458 6.27855 7.78083Z" fill="#EEBC31"/>
<path d="M5.27225 7.4668C5.2767 7.4668 5.28096 7.4668 5.28542 7.4668C5.28674 7.52714 5.19533 7.63022 5.29859 7.63742C5.31546 7.6267 5.30617 7.58966 5.32909 7.58485C5.33165 7.60796 5.32018 7.61687 5.31592 7.63298C5.33591 7.68907 5.43671 7.65723 5.39473 7.59377C5.4438 7.59453 5.40525 7.64692 5.39899 7.66815C5.37067 7.6815 5.32993 7.66739 5.30718 7.65052C5.25849 7.64664 5.21557 7.63696 5.21094 7.58931C5.25461 7.57168 5.26426 7.52005 5.27225 7.4668Z" fill="#EEBC31"/>
</svg>
