<svg width="374" height="374" viewBox="0 0 374 374" fill="none" xmlns="http://www.w3.org/2000/svg">
<path d="M309.792 339.93C309.388 340.177 308.976 340.417 308.565 340.678L307.421 341.322L306.224 341.98L305.012 342.616L303.8 343.237L302.574 343.842L301.339 344.426L300.098 344.987C299.604 345.211 299.103 345.428 298.602 345.638L297.106 346.266C296.096 346.677 295.079 347.074 294.061 347.448L292.872 347.882L292.401 348.046C290.905 348.577 289.409 349.071 287.853 349.542C286.813 349.856 285.758 350.155 284.704 350.44L283.118 350.851C282.497 351.008 281.876 351.165 281.256 351.307L279.924 351.614C277.755 352.1 275.563 352.527 273.364 352.901C272.855 352.99 272.347 353.073 271.831 353.147C271.315 353.222 270.746 353.32 270.2 353.394C269.108 353.551 268.016 353.694 266.924 353.828L265.286 354.008L264.119 354.127L263.371 354.202C262.376 354.299 261.389 354.382 260.379 354.449C258.05 354.624 255.726 354.741 253.407 354.801H252.443H250.782H248.807C247.202 354.801 245.596 354.778 243.99 354.733C242.831 354.733 241.679 354.658 240.527 354.606L239.861 354.569C237.961 354.479 236.069 354.352 234.184 354.202C232.897 354.097 231.618 353.978 230.332 353.858H230.175L228.372 353.671L226.076 353.402L224.445 353.192L222.575 352.938C220.296 352.619 218.022 352.26 215.753 351.861L214.07 351.554C213.023 351.367 211.983 351.165 210.951 350.956L209.455 350.657C207.256 350.2 205.072 349.714 202.895 349.161C202.274 349.019 201.661 348.861 201.047 348.712L199.2 348.241C194.712 347.089 190.276 345.795 185.893 344.358L184.479 343.895C183.312 343.511 182.151 343.117 180.994 342.713L178.002 341.651C176.461 341.092 174.927 340.519 173.401 339.93C172.354 339.526 171.307 339.115 170.267 338.696C169.085 338.225 167.911 337.746 166.729 337.253C165.704 336.826 164.68 336.392 163.662 335.951L162.503 335.442C161.576 335.038 160.641 334.62 159.713 334.201C158.636 333.714 157.551 333.221 156.474 332.705L155.988 332.48C154.918 331.979 153.849 331.463 152.779 330.947C151.859 330.506 150.939 330.049 150.026 329.593C148.66 328.91 147.296 328.217 145.935 327.514C144.798 326.93 143.666 326.334 142.539 325.726L139.547 324.11L139.136 323.886C138.138 323.327 137.128 322.764 136.106 322.195C135.358 321.761 134.61 321.328 133.825 320.886C133.039 320.445 132.329 320.034 131.581 319.6L129.471 318.351C128.275 317.603 127.085 316.914 125.896 316.181C118.678 311.738 111.639 307.018 104.81 302.089C93.207 293.777 82.2408 284.611 72.0025 274.667L69.9081 272.595C66.4075 269.08 63.019 265.467 59.7877 261.749C51.2849 252.12 43.8674 241.585 37.6693 230.333C33.1317 222.029 29.4765 213.272 26.7635 204.206C26.1651 202.194 25.619 200.174 25.1328 198.132C24.7214 196.456 24.3848 194.781 24.0183 193.083C22.6613 186.164 21.9254 179.137 21.8192 172.087C21.7793 169.878 21.8042 167.671 21.894 165.467C22.4737 151.442 25.2502 137.596 30.122 124.432C37.8309 103.543 50.0959 84.6349 66.026 69.0796C98.8034 37.125 125.619 22.1201 171.681 18.9636C171.681 18.9636 208.984 11.3788 231.775 58.3607C239.921 75.1383 244.948 93.5167 255.517 108.911C269.946 129.944 292.864 143.61 311.422 161.271C336.585 185.207 354.058 217.887 355.18 252.257C356.302 286.628 339.667 322.016 309.792 339.93Z" fill="#FF8D8D"/>
<g opacity="0.7">
<path d="M309.792 339.93C309.388 340.177 308.976 340.417 308.565 340.678L307.421 341.322L306.224 341.98L305.012 342.616L303.8 343.237L302.574 343.842L301.339 344.426L300.098 344.987C299.604 345.211 299.103 345.428 298.602 345.638L297.106 346.266C296.096 346.677 295.079 347.074 294.061 347.448L292.872 347.882L292.401 348.046C290.905 348.577 289.409 349.063 287.853 349.542C286.813 349.856 285.758 350.155 284.704 350.44L283.118 350.851C282.497 351.008 281.876 351.165 281.256 351.307L279.924 351.614C277.755 352.1 275.563 352.527 273.364 352.901C272.855 352.99 272.347 353.073 271.831 353.147C271.315 353.222 270.746 353.32 270.2 353.394C269.108 353.551 268.016 353.694 266.924 353.828L265.286 354.008L264.119 354.127L263.371 354.202C262.376 354.299 261.389 354.382 260.379 354.449C258.05 354.624 255.726 354.741 253.407 354.801H252.443H250.782H248.807C247.202 354.801 245.596 354.778 243.99 354.733C242.831 354.733 241.679 354.658 240.527 354.606L239.861 354.569C237.961 354.479 236.069 354.352 234.184 354.202C232.897 354.097 231.618 353.978 230.332 353.858H230.175L228.372 353.671L226.076 353.402L224.445 353.192L222.575 352.938C220.296 352.619 218.022 352.26 215.753 351.861L214.07 351.554C213.023 351.367 211.983 351.165 210.951 350.956L209.455 350.657C207.256 350.2 205.072 349.714 202.895 349.161C202.274 349.019 201.661 348.861 201.047 348.712L199.2 348.241C194.712 347.089 190.276 345.795 185.893 344.358L184.479 343.895C183.312 343.511 182.151 343.117 180.994 342.713L178.002 341.651C176.461 341.092 174.927 340.519 173.401 339.93C172.354 339.526 171.307 339.115 170.267 338.696C169.085 338.225 167.911 337.746 166.729 337.253C165.704 336.826 164.68 336.392 163.662 335.951L162.503 335.442C161.576 335.038 160.641 334.62 159.713 334.201C158.636 333.714 157.551 333.221 156.474 332.705L155.988 332.48C154.918 331.979 153.849 331.463 152.779 330.947C151.859 330.506 150.939 330.049 150.026 329.593C148.66 328.91 147.296 328.217 145.935 327.514C144.798 326.93 143.666 326.334 142.539 325.726L139.547 324.11L139.136 323.886C138.138 323.327 137.128 322.764 136.106 322.195C135.358 321.761 134.61 321.328 133.825 320.886C133.039 320.445 132.329 320.034 131.581 319.6L129.471 318.351C128.275 317.603 127.085 316.914 125.896 316.181C118.678 311.738 111.639 307.018 104.81 302.089C93.207 293.777 82.2408 284.611 72.0025 274.667L69.9081 272.595C66.4075 269.08 63.019 265.467 59.7877 261.749C51.2849 252.12 43.8674 241.585 37.6693 230.333C33.1317 222.029 29.4765 213.272 26.7635 204.206C26.1651 202.194 25.619 200.174 25.1328 198.132C24.7214 196.456 24.3848 194.781 24.0183 193.083C22.6613 186.164 21.9254 179.137 21.8192 172.087C21.7793 169.878 21.8042 167.671 21.894 165.467C22.4737 151.442 25.2502 137.596 30.122 124.432C37.8309 103.543 50.0959 84.6349 66.026 69.0796C98.8034 37.125 125.619 22.1201 171.681 18.9636C171.681 18.9636 208.984 11.3788 231.775 58.3607C239.921 75.1383 244.948 93.5167 255.517 108.911C269.946 129.944 292.864 143.61 311.422 161.271C336.585 185.207 354.058 217.887 355.18 252.257C356.302 286.628 339.667 322.016 309.792 339.93Z" fill="white"/>
</g>
<path d="M268.855 97.9883H288.205C291.633 97.9883 294.921 99.3501 297.345 101.774C299.769 104.198 301.131 107.486 301.131 110.914C301.131 114.342 299.769 117.629 297.345 120.053C294.921 122.477 291.633 123.839 288.205 123.839H258.562C256.864 123.84 255.183 123.506 253.615 122.857C252.046 122.208 250.621 121.256 249.42 120.056C248.22 118.855 247.268 117.43 246.619 115.861C245.969 114.293 245.636 112.611 245.637 110.914C245.637 107.486 246.998 104.198 249.422 101.774C251.846 99.3501 255.134 97.9883 258.562 97.9883" stroke="#263238" stroke-miterlimit="10"/>
<path d="M262.982 97.9727H266.363" stroke="#263238" stroke-miterlimit="10"/>
<path d="M264.045 108.533V109.333H263.11V108.458C263.11 107.658 262.796 107.179 262.071 107.179C261.345 107.179 261.053 107.71 261.053 108.458V113.133C261.053 113.934 261.383 114.412 262.086 114.412C262.789 114.412 263.125 113.934 263.125 113.133V111.981H264.045V113.081C264.045 114.427 263.41 115.325 262.048 115.325C260.687 115.325 260.059 114.442 260.059 113.081V108.533C260.059 107.194 260.694 106.289 262.048 106.289C263.402 106.289 264.045 107.194 264.045 108.533Z" fill="#263238"/>
<path d="M265.968 113.471L265.623 115.251H264.711L266.409 106.402H267.838L269.528 115.251H268.533L268.189 113.471H265.968ZM266.095 112.626H268.062L267.037 107.509L266.095 112.626Z" fill="#263238"/>
<path d="M271.181 115.251H270.291V106.402H271.525L273.575 112.798V106.402H274.442V115.251H273.418L271.174 108.093L271.181 115.251Z" fill="#263238"/>
<path d="M279.386 108.533V109.333H278.451V108.458C278.451 107.658 278.136 107.179 277.411 107.179C276.685 107.179 276.379 107.658 276.379 108.458V113.133C276.379 113.934 276.708 114.412 277.411 114.412C278.114 114.412 278.451 113.934 278.451 113.133V111.981H279.386V113.081C279.386 114.427 278.757 115.325 277.388 115.325C276.02 115.325 275.406 114.442 275.406 113.081V108.533C275.406 107.194 276.035 106.289 277.388 106.289C278.742 106.289 279.386 107.194 279.386 108.533Z" fill="#263238"/>
<path d="M283.433 110.322V111.205H281.249V114.354H283.904V115.251H280.262V106.402H283.904V107.3H281.249V110.292L283.433 110.322Z" fill="#263238"/>
<path d="M284.84 115.251V106.402H285.827V114.354H288.355V115.251H284.84Z" fill="#263238"/>
<path d="M194.683 18.8633C193.728 18.6068 192.755 18.4193 191.773 18.3023M189.372 18.1602C184.273 18.1475 179.352 20.0355 175.57 23.4556C171.787 26.8758 169.415 31.5827 168.917 36.6575C168.418 41.7323 169.828 46.8109 172.872 50.902C175.916 54.993 180.376 57.8029 185.38 58.7831C190.384 59.7634 195.574 58.8436 199.936 56.2035C204.299 53.5633 207.521 49.3921 208.974 44.5042C210.427 39.6162 210.006 34.3623 207.794 29.7679C205.581 25.1735 201.736 21.5684 197.009 19.6562M183.545 36.7256L196.261 51.6108C193.309 53.2187 189.894 53.7649 186.588 53.158C183.281 52.5512 180.283 50.8282 178.094 48.2768C175.905 45.7253 174.658 42.5 174.561 39.1397C174.464 35.7794 175.523 32.4875 177.561 29.8141L181.892 34.8705L183.485 36.7256M195.266 41.5876L181.982 25.9544C184.22 24.6306 186.772 23.9331 189.372 23.9348C192.147 23.9337 194.866 24.719 197.213 26.1997C199.56 27.6805 201.439 29.796 202.633 32.3012C203.827 34.8063 204.287 37.5985 203.958 40.3542C203.63 43.1098 202.528 45.716 200.779 47.8708L199.006 45.7988L195.266 41.5876Z" stroke="#263238" stroke-miterlimit="10"/>
<path d="M102.783 92.5582L103.935 91.4062" stroke="#263238" stroke-miterlimit="10"/>
<path d="M100.375 94.964L89.372 83.9609L80.2539 93.0791L91.257 104.082L80.2539 115.085L89.372 124.203L100.375 113.2L111.378 124.203L120.496 115.085L109.493 104.082L120.496 93.0791L111.378 83.9609L105.357 89.9823" stroke="#263238" stroke-miterlimit="10"/>
<path d="M33.0921 138.268C33.3016 136.772 33.9523 134.969 35.4334 134.947C36.9144 134.924 37.6325 136.779 37.5502 138.253C37.4679 139.726 37.0416 141.319 37.8045 142.576C39.9588 128.095 43.1078 112.925 52.8393 101.982C53.9015 100.793 55.5246 99.5661 56.9384 100.299C58.5989 101.159 58.1352 103.62 57.462 105.356C52.1654 119.118 48.8388 133.56 47.5809 148.253C51.4929 137.422 57.7761 127.309 66.6923 119.972C68.091 118.827 69.8339 117.728 71.5917 118.131C73.6711 118.655 74.5837 121.123 74.6959 123.27C74.8604 127.833 72.6912 132.119 70.6866 136.218C62.8649 152.244 56.7307 169.04 52.383 186.334C51.4854 189.917 50.5579 193.709 47.9923 196.372C46.8179 197.592 44.9404 198.534 43.5043 197.696C42.8146 197.247 42.257 196.622 41.8886 195.886C37.0399 187.301 34.2251 177.717 33.6606 167.873C33.0921 157.955 31.6859 148.209 33.0921 138.268Z" fill="#FF8D8D"/>
<path opacity="0.2" d="M33.0921 138.268C33.3016 136.772 33.9523 134.969 35.4334 134.947C36.9144 134.924 37.6325 136.779 37.5502 138.253C37.4679 139.726 37.0416 141.319 37.8045 142.576C39.9588 128.095 43.1078 112.925 52.8393 101.982C53.9015 100.793 55.5246 99.5661 56.9384 100.299C58.5989 101.159 58.1352 103.62 57.462 105.356C52.1654 119.118 48.8388 133.56 47.5809 148.253C51.4929 137.422 57.7761 127.309 66.6923 119.972C68.091 118.827 69.8339 117.728 71.5917 118.131C73.6711 118.655 74.5837 121.123 74.6959 123.27C74.8604 127.833 72.6912 132.119 70.6866 136.218C62.8649 152.244 56.7307 169.04 52.383 186.334C51.4854 189.917 50.5579 193.709 47.9923 196.372C46.8179 197.592 44.9404 198.534 43.5043 197.696C42.8146 197.247 42.257 196.622 41.8886 195.886C37.0399 187.301 34.2251 177.717 33.6606 167.873C33.0921 157.955 31.6859 148.209 33.0921 138.268Z" fill="white"/>
<path d="M16.8301 172.219C16.5683 170.596 16.6581 168.441 18.2139 167.933C19.7698 167.424 21.1461 169.152 21.5425 170.738C21.939 172.323 22.0063 174.149 23.2255 175.226C20.7571 159.196 19.1115 142.127 25.8136 127.354C26.5616 125.738 27.8556 123.913 29.5985 124.227C31.633 124.594 31.9472 127.339 31.8425 129.403C30.7506 145.699 31.9669 162.068 35.4553 178.023C36.0388 165.307 39.3599 152.486 46.3911 141.85C47.4981 140.174 48.9642 138.402 50.9688 138.297C53.3475 138.162 55.1502 140.466 55.9356 142.71C57.6111 147.482 56.721 152.718 55.9356 157.715C52.9148 177.243 51.9397 197.032 53.0258 216.762C53.2502 220.846 53.5195 225.162 51.6794 228.82C50.8342 230.495 49.1587 232.111 47.3261 231.7C46.4642 231.428 45.6899 230.932 45.0821 230.263C37.1182 222.778 30.9769 213.566 27.1301 203.335C23.2929 193.036 18.6029 183.192 16.8301 172.219Z" fill="#FF8D8D"/>
<path opacity="0.2" d="M16.8301 172.219C16.5683 170.596 16.6581 168.441 18.2139 167.933C19.7698 167.424 21.1461 169.152 21.5425 170.738C21.939 172.323 22.0063 174.149 23.2255 175.226C20.7571 159.196 19.1115 142.127 25.8136 127.354C26.5616 125.738 27.8556 123.913 29.5985 124.227C31.633 124.594 31.9472 127.339 31.8425 129.403C30.7506 145.699 31.9669 162.068 35.4553 178.023C36.0388 165.307 39.3599 152.486 46.3911 141.85C47.4981 140.174 48.9642 138.402 50.9688 138.297C53.3475 138.162 55.1502 140.466 55.9356 142.71C57.6111 147.482 56.721 152.718 55.9356 157.715C52.9148 177.243 51.9397 197.032 53.0258 216.762C53.2502 220.846 53.5195 225.162 51.6794 228.82C50.8342 230.495 49.1587 232.111 47.3261 231.7C46.4642 231.428 45.6899 230.932 45.0821 230.263C37.1182 222.778 30.9769 213.566 27.1301 203.335C23.2929 193.036 18.6029 183.192 16.8301 172.219Z" fill="black"/>
<path d="M60.2815 261.666C60.2216 261.741 60.0496 261.771 59.7878 261.748C59.5965 261.736 59.4064 261.708 59.2193 261.666C55.6342 258.428 52.233 254.992 49.0316 251.374C47.8568 248.698 46.4685 246.122 44.8802 243.669C42.0826 239.301 38.8363 235.254 35.6498 231.17C34.9018 230.213 34.1538 229.25 33.4058 228.283C32.6578 227.243 31.8425 226.196 31.087 225.141C28.5403 221.697 26.3404 218.008 24.5196 214.131C23.607 212.104 22.8291 209.86 23.3078 207.69C23.4774 206.994 23.7986 206.343 24.2486 205.784C24.6985 205.226 25.2661 204.773 25.9109 204.459C26.1757 204.331 26.458 204.243 26.7486 204.197C26.9776 204.152 27.2114 204.137 27.4443 204.152C27.698 204.157 27.9497 204.198 28.1923 204.272C29.5985 204.706 30.4961 206.045 31.2815 207.264C33.2762 210.411 35.2534 213.56 37.2132 216.711C34.4082 209.366 31.5957 201.961 30.3016 194.144C29.0076 186.328 29.3292 178.1 32.598 170.919C32.8803 170.272 33.2585 169.672 33.72 169.139C33.9401 168.88 34.2128 168.672 34.5198 168.528C34.8267 168.383 35.161 168.306 35.5002 168.301C35.8101 168.301 36.1154 168.375 36.3904 168.518C37.5273 169.101 38.1182 170.724 38.4174 172.093C40.3024 180.74 42.1849 189.382 44.0648 198.019L45.0073 202.35L45.3439 203.846L45.299 201.602C45.299 200.397 45.299 199.186 45.299 197.974C45.4038 190.905 46.2939 183.822 50.348 178.182C51.1908 176.889 52.3736 175.854 53.7664 175.19C54.3262 174.954 54.9326 174.849 55.5392 174.883C55.6439 174.883 55.7486 174.883 55.8458 174.883C56.6249 175.05 57.3516 175.404 57.9629 175.915C58.5742 176.426 59.0517 177.078 59.354 177.815C59.9442 179.291 60.2733 180.857 60.3264 182.445C60.9996 190.404 57.1698 196.583 58.6209 217.227C58.6808 218.133 58.7556 219.06 58.8378 220.018C60.3114 236.862 68.9658 251.867 60.2815 261.666Z" fill="#FF8D8D"/>
<path d="M73.5067 212.372C73.3122 220.712 68.4502 226.584 67.979 249.563C67.8144 257.693 69.3553 265.6 69.9088 272.594C66.4082 269.078 63.0197 265.465 59.7884 261.748C59.597 261.735 59.407 261.707 59.2199 261.665C55.6348 258.427 52.2336 254.991 49.0321 251.373C47.8573 248.697 46.469 246.121 44.8807 243.668C42.0832 239.3 38.8369 235.253 35.6504 231.169C36.0382 230.864 36.476 230.629 36.9444 230.474C37.1861 230.389 37.4373 230.333 37.6924 230.309C37.9679 230.272 38.2472 230.272 38.5227 230.309C38.7808 230.338 39.0329 230.407 39.2707 230.511C40.6171 231.087 41.3651 232.516 42.0159 233.84C43.6315 237.191 45.2622 240.527 46.8928 243.878C45.5689 238.806 44.2449 233.698 43.3698 228.536C42.9022 225.931 42.58 223.301 42.4048 220.66C41.9428 214.42 42.8306 208.155 45.0079 202.289C45.0976 202.057 45.1949 201.825 45.2996 201.601C45.8414 200.299 46.4738 199.037 47.192 197.823C47.5432 197.208 47.9873 196.65 48.5085 196.17C48.752 195.938 49.0419 195.76 49.359 195.648C49.6761 195.536 50.0133 195.492 50.3486 195.52C50.6566 195.553 50.952 195.66 51.2088 195.834C51.9349 196.415 52.4221 197.243 52.5776 198.16C52.6973 198.634 52.7823 199.117 52.8319 199.604C53.7744 208.4 54.7144 217.194 55.6519 225.986C55.8614 227.975 56.0783 229.965 56.2877 231.97C56.4598 230.055 56.6393 228.102 56.8786 226.158C57.213 223.172 57.7884 220.217 58.599 217.324C59.6085 213.523 61.4679 210.001 64.037 207.024C65.0223 205.837 66.3167 204.947 67.777 204.451C68.3589 204.277 68.9724 204.236 69.5722 204.331L69.8714 204.391C70.6297 204.638 71.316 205.067 71.8701 205.641C72.4243 206.215 72.8295 206.916 73.0504 207.682C73.473 209.207 73.6274 210.794 73.5067 212.372Z" fill="#FF8D8D"/>
<path opacity="0.2" d="M73.5067 212.372C73.3122 220.712 68.4502 226.584 67.979 249.563C67.8144 257.693 69.3553 265.6 69.9088 272.594C66.4082 269.078 52.2111 254.978 49.0321 251.373C47.8573 248.697 46.469 246.121 44.8807 243.668C42.0832 239.3 38.8369 235.253 35.6504 231.169C36.0382 230.864 36.476 230.629 36.9444 230.474C37.1861 230.389 37.4373 230.333 37.6924 230.309C37.9679 230.272 38.2472 230.272 38.5227 230.309C38.7808 230.338 39.0329 230.407 39.2707 230.511C40.6171 231.087 41.3651 232.516 42.0159 233.84C43.6315 237.191 45.2622 240.527 46.8928 243.878C45.5689 238.806 44.2449 233.698 43.3698 228.536C42.9022 225.931 42.58 223.301 42.4048 220.66C41.9428 214.42 42.8306 208.155 45.0079 202.289C45.0976 202.057 45.1949 201.825 45.2996 201.601C45.8414 200.299 46.4738 199.037 47.192 197.823C47.5432 197.208 47.9873 196.65 48.5085 196.17C48.752 195.938 49.0419 195.76 49.359 195.648C49.6761 195.536 50.0133 195.492 50.3486 195.52C50.6566 195.553 50.952 195.66 51.2088 195.834C51.9349 196.415 52.4221 197.243 52.5776 198.16C52.6973 198.634 52.7823 199.117 52.8319 199.604C53.7744 208.4 54.7144 217.194 55.6519 225.986C55.8614 227.975 56.0783 229.965 56.2877 231.97C56.4598 230.055 56.6393 228.102 56.8786 226.158C57.213 223.172 57.7884 220.217 58.599 217.324C59.6085 213.523 61.4679 210.001 64.037 207.024C65.0223 205.837 66.3167 204.947 67.777 204.451C68.3589 204.277 68.9724 204.236 69.5722 204.331L69.8714 204.391C70.6297 204.638 71.316 205.067 71.8701 205.641C72.4243 206.215 72.8295 206.916 73.0504 207.682C73.473 209.207 73.6274 210.794 73.5067 212.372Z" fill="white"/>
<path d="M311.871 153.422C312.096 158.329 309.224 165.203 304.197 164.351C303.388 164.191 302.604 163.927 301.863 163.565C302.611 159.96 300.749 155.786 302.783 152.757C303.89 151.081 306.606 148.014 308.558 147.872C311.168 147.678 311.722 150.715 311.871 153.422Z" fill="#FF8D8D"/>
<path d="M305.184 168.413C303.232 171.928 300.696 174.651 295.28 174.098C294.069 173.963 292.915 173.508 291.937 172.781C291.45 172.437 291.043 171.991 290.745 171.475C290.447 170.958 290.264 170.383 290.209 169.789C290.212 169.02 290.446 168.269 290.879 167.633C291.312 166.998 291.925 166.506 292.64 166.221C294.086 165.655 295.636 165.4 297.188 165.473C298.852 165.496 300.501 165.787 302.072 166.333C303.221 166.842 304.274 167.546 305.184 168.413Z" fill="#FF8D8D"/>
<path d="M301.639 163.754C304.631 167.255 307.623 170.695 310.39 174.263" stroke="#FF8D8D" stroke-miterlimit="10"/>
<path d="M328.575 174.589C328.542 177.358 327.619 180.044 325.942 182.248C324.326 184.29 322.104 185.42 319.703 184.649C318.936 184.367 318.202 184.003 317.512 183.565C318.11 181.852 318.043 179.87 318.05 177.947C318.058 176.025 318.125 174.207 319.157 172.666C320.302 171.006 322.957 167.827 325.059 167.924C327.849 168.074 328.634 171.664 328.575 174.589Z" fill="#FF8D8D"/>
<path d="M320.025 188.781C318.879 190.333 317.386 191.596 315.665 192.468C313.668 193.302 311.454 193.462 309.359 192.925C308.271 192.699 307.266 192.182 306.449 191.429C306.048 191.101 305.735 190.678 305.538 190.199C305.341 189.72 305.266 189.199 305.32 188.684C305.482 187.953 305.831 187.276 306.331 186.719C306.832 186.162 307.468 185.744 308.177 185.505C309.617 185.007 311.152 184.841 312.665 185.018C314.288 185.147 315.87 185.597 317.318 186.342C318.353 186.994 319.269 187.819 320.025 188.781Z" fill="#FF8D8D"/>
<path d="M310.42 174.285C313.068 177.576 315.469 181.017 317.803 184.533C320.136 188.048 322.201 191.706 324.093 195.469" stroke="#FF8D8D" stroke-miterlimit="10"/>
<path d="M341.836 199.155C340.714 204.346 335.724 209.792 331.221 207.383C330.506 206.972 329.847 206.469 329.262 205.887C329.721 205.068 330.065 204.189 330.286 203.276C330.511 202.364 330.66 201.414 330.84 200.479C331.207 198.609 331.663 196.799 332.987 195.497C334.438 194.091 337.624 191.495 339.719 191.982C342.389 192.715 342.434 196.357 341.836 199.155Z" fill="#FF8D8D"/>
<path d="M330.819 211.528C327.774 214.235 324.505 215.851 319.599 213.734C317.497 212.867 315.694 210.78 316.337 208.67C316.614 207.97 317.072 207.357 317.665 206.894C318.259 206.431 318.965 206.135 319.711 206.037C321.23 205.82 322.779 205.945 324.244 206.404C325.803 206.87 327.266 207.615 328.56 208.603C329.494 209.424 330.261 210.417 330.819 211.528Z" fill="#FF8D8D"/>
<path d="M324.064 195.445C327.878 202.974 331.128 210.774 333.788 218.783" stroke="#FF8D8D" stroke-miterlimit="10"/>
<path d="M350.903 225.524C349.921 228.181 348.053 230.419 345.614 231.859C343.333 233.146 340.85 233.318 338.92 231.695C338.309 231.155 337.762 230.548 337.289 229.884C338.516 228.508 339.159 226.646 339.787 224.791C340.416 222.935 341.059 221.267 342.548 220.16C344.163 218.971 347.731 216.884 349.683 217.617C350.985 218.118 351.501 219.181 351.621 220.609C351.75 222.28 351.505 223.959 350.903 225.524Z" fill="#FF8D8D"/>
<path d="M337.587 235.619C334.012 237.556 330.429 238.222 326.173 235.357C324.37 234.145 323.031 232.066 324.108 230.413C324.568 229.84 325.148 229.374 325.807 229.048C326.466 228.723 327.188 228.545 327.923 228.528C329.42 228.481 330.907 228.8 332.254 229.455C333.708 230.129 335.003 231.103 336.054 232.313C336.773 233.306 337.294 234.428 337.587 235.619Z" fill="#FF8D8D"/>
<path d="M333.766 218.781L335.71 224.81C336.312 226.792 336.8 228.808 337.169 230.846C337.938 234.957 338.423 239.116 338.62 243.293" stroke="#FF8D8D" stroke-miterlimit="10"/>
<path d="M353.056 254.5C351.346 256.746 348.943 258.363 346.219 259.101C343.653 259.721 341.245 259.198 339.816 257.111C339.386 256.42 339.03 255.685 338.754 254.919C341.91 252.96 343.242 248.412 346.668 247.125C348.575 246.452 352.607 245.39 354.245 246.759C356.444 248.584 354.851 252.122 353.056 254.5Z" fill="#FF8D8D"/>
<path d="M337.453 260.505C335.578 260.967 333.622 260.985 331.739 260.558C329.699 259.97 327.889 258.769 326.555 257.117C325.141 255.501 324.446 253.145 325.949 251.671C326.529 251.199 327.218 250.877 327.952 250.735C328.687 250.593 329.445 250.634 330.16 250.856C331.607 251.302 332.934 252.069 334.042 253.1C335.24 254.165 336.207 255.463 336.885 256.915C337.306 258.063 337.499 259.283 337.453 260.505Z" fill="#FF8D8D"/>
<path d="M338.62 243.293C339.111 251.633 338.286 259.998 336.174 268.082" stroke="#FF8D8D" stroke-miterlimit="10"/>
<path d="M345.576 283.964C344.311 284.76 342.92 285.334 341.462 285.662C340.082 285.974 338.654 286.017 337.258 285.789C334.67 285.333 332.718 283.777 332.291 281.301C332.19 280.497 332.16 279.686 332.201 278.877C334.041 278.608 335.695 277.516 337.363 276.469C339.031 275.422 340.631 274.412 342.479 274.359C344.499 274.359 348.687 274.576 349.742 276.521C351.223 279.124 348.276 282.258 345.576 283.964Z" fill="#FF8D8D"/>
<path d="M328.747 283.336C326.872 282.913 325.123 282.052 323.646 280.823C322.123 279.435 320.984 277.678 320.339 275.721C319.591 273.806 319.741 271.787 321.589 271.159C322.307 270.998 323.052 270.994 323.773 271.148C324.493 271.301 325.172 271.609 325.762 272.049C326.952 272.945 327.917 274.105 328.582 275.437C329.306 276.825 329.7 278.361 329.734 279.925C329.665 281.122 329.327 282.287 328.747 283.336Z" fill="#FF8D8D"/>
<path d="M336.174 268.082C335.069 272.066 333.513 275.91 331.537 279.541C329.528 283.129 327.009 286.404 324.057 289.265" stroke="#FF8D8D" stroke-miterlimit="10"/>
<path d="M325.725 306.985C323.023 307.15 320.327 306.562 317.938 305.287C315.694 304 314.198 302.011 314.595 299.527C314.746 298.724 314.997 297.942 315.343 297.201C318.978 297.949 323.152 295.944 326.226 297.949C327.337 298.673 328.397 299.473 329.398 300.343C330.482 301.323 331.26 302.519 331.238 303.604C331.522 306.155 328.478 306.775 325.725 306.985Z" fill="#FF8D8D"/>
<path d="M310.524 300.462C307.009 298.472 304.406 295.884 304.787 290.633C304.944 288.389 306.455 285.884 308.871 285.712C309.642 285.698 310.399 285.914 311.047 286.332C311.694 286.751 312.202 287.352 312.506 288.06C313.106 289.479 313.399 291.008 313.367 292.548C313.393 294.19 313.141 295.824 312.619 297.38C312.113 298.526 311.403 299.57 310.524 300.462Z" fill="#FF8D8D"/>
<path d="M324.078 289.297C323.375 290.045 322.582 290.666 321.789 291.354L319.321 293.411L314.451 297.592C312.843 298.976 311.227 300.352 309.582 301.661C308.766 302.32 307.936 302.963 307.091 303.584C306.245 304.204 305.4 304.818 304.518 305.499" stroke="#FF8D8D" stroke-miterlimit="10"/>
<path d="M307.368 322.432C306.169 322.484 304.967 322.432 303.777 322.275C302.477 322.107 301.198 321.801 299.963 321.362C297.591 320.51 295.542 318.969 295.475 316.455C295.487 315.626 295.616 314.803 295.856 314.009C299.596 314.166 303.448 312.005 306.582 314.009C308.295 315.042 311.377 317.705 311.751 319.53C311.884 320.005 311.831 320.513 311.601 320.951C311.392 321.34 311.054 321.644 310.644 321.811C309.59 322.186 308.485 322.395 307.368 322.432Z" fill="#FF8D8D"/>
<path d="M291.721 318.356C289.723 317.884 287.891 317.346 286.447 316.112C285.004 314.877 284.001 313.045 283.941 309.926C283.874 307.308 285.587 303.829 288.265 303.141C289.039 302.941 289.86 303.016 290.585 303.353C291.311 303.69 291.897 304.268 292.244 304.989C292.921 306.433 293.307 307.996 293.381 309.589C293.508 311.303 293.43 313.025 293.149 314.72C292.837 315.99 292.357 317.213 291.721 318.356Z" fill="#FF8D8D"/>
<path d="M304.518 305.496C297.513 310.822 291.792 317.652 287.777 325.483" stroke="#FF8D8D" stroke-miterlimit="10"/>
<path d="M297.653 339.592C295.429 340.762 293.001 341.496 290.502 341.754C287.921 341.97 285.49 341.454 284.346 339.203C283.982 338.457 283.745 337.655 283.643 336.832C287.061 335.381 289.671 331.813 293.367 332.261C295.356 332.456 299.283 333.518 300.413 335.036C301.886 337.019 299.71 338.425 297.653 339.592Z" fill="#FF8D8D"/>
<path d="M281.719 342.582C277.763 343.39 273.918 343.846 271.053 338.258C270.46 336.935 270.203 335.486 270.305 334.04C270.407 332.62 271.03 331.288 272.055 330.3C272.682 329.8 273.46 329.527 274.262 329.527C275.064 329.527 275.842 329.8 276.468 330.3C277.695 331.321 278.711 332.571 279.46 333.98C280.313 335.475 280.984 337.067 281.458 338.722C281.61 339.359 281.69 340.012 281.697 340.667C281.734 341.273 281.719 341.916 281.719 342.582Z" fill="#FF8D8D"/>
<path d="M287.778 325.484C283.724 333.28 281.492 341.894 281.248 350.677" stroke="#FF8D8D" stroke-miterlimit="10"/>
<path d="M307.429 196.725C307.445 198.11 307.191 199.484 306.681 200.772C306.231 201.98 305.533 203.081 304.631 204.003C302.941 205.709 300.771 206.352 298.692 205.379C298.022 205.057 297.392 204.658 296.814 204.19C297.435 202.557 297.69 200.808 297.562 199.066C297.562 197.286 297.518 195.491 298.31 194.01C299.223 192.417 301.265 189.17 303.397 189.372C304.833 189.499 305.858 190.614 306.546 192.035C307.161 193.521 307.462 195.118 307.429 196.725Z" fill="#FF8D8D"/>
<path d="M298.452 209.11C297.142 210.387 295.507 211.279 293.725 211.691C291.944 212.102 290.083 212.017 288.346 211.444C286.596 210.935 285.07 209.948 285.638 208.34C286.182 207.123 287.185 206.171 288.429 205.692C289.686 205.203 291.045 205.031 292.385 205.191C293.812 205.331 295.184 205.811 296.387 206.59C297.251 207.269 297.956 208.13 298.452 209.11Z" fill="#FF8D8D"/>
<path d="M296.529 204.348C298.42 207.93 299.8 211.76 300.628 215.725" stroke="#FF8D8D" stroke-miterlimit="10"/>
<path d="M314.856 224.767C313.511 227.012 311.419 228.712 308.947 229.569C306.65 230.317 304.459 229.936 303.007 228.118C302.577 227.512 302.206 226.866 301.9 226.188C304.646 224.199 305.446 219.883 308.371 218.282C310.016 217.444 313.532 215.926 315.177 217.093C317.406 218.671 316.322 222.344 314.856 224.767Z" fill="#FF8D8D"/>
<path d="M301.063 231.357C299.388 231.886 297.613 232.014 295.879 231.731C293.995 231.299 292.284 230.309 290.972 228.889C290.292 228.244 289.794 227.431 289.529 226.532C289.405 226.146 289.388 225.733 289.481 225.338C289.573 224.943 289.77 224.58 290.052 224.288C290.557 223.845 291.156 223.522 291.804 223.345C292.452 223.167 293.132 223.14 293.792 223.264C295.135 223.519 296.4 224.082 297.488 224.909C298.661 225.764 299.632 226.868 300.33 228.141C300.787 229.153 301.037 230.247 301.063 231.357Z" fill="#FF8D8D"/>
<path d="M300.628 215.723C301.378 219.441 301.712 223.232 301.623 227.025C301.518 230.839 301.09 234.638 300.344 238.38" stroke="#FF8D8D" stroke-miterlimit="10"/>
<path d="M310.653 251.38C308.666 252.956 306.23 253.859 303.696 253.961C301.31 253.998 299.208 253.101 298.4 250.969C298.143 250.268 297.98 249.536 297.914 248.792C301.108 247.678 303.262 243.953 306.606 243.556C308.431 243.369 312.216 243.302 313.375 244.88C314.909 246.982 312.754 249.72 310.653 251.38Z" fill="#FF8D8D"/>
<path d="M295.633 253.571C291.938 253.639 288.699 252.763 286.582 248.462C285.692 246.637 285.587 244.206 287.278 243.167C287.886 242.853 288.564 242.701 289.247 242.725C289.931 242.749 290.597 242.947 291.182 243.301C292.367 244.017 293.371 244.998 294.114 246.166C294.949 247.386 295.536 248.759 295.842 250.205C295.98 251.331 295.909 252.472 295.633 253.571Z" fill="#FF8D8D"/>
<path d="M300.344 238.379C298.742 245.91 296.371 253.256 293.268 260.303" stroke="#FF8D8D" stroke-miterlimit="10"/>
<path d="M301.542 274.342C299.398 275.444 297.001 275.96 294.593 275.838C292.244 275.688 290.165 274.768 289.469 272.562C289.267 271.831 289.166 271.076 289.17 270.318C292.446 269.473 295.102 266.234 298.453 266.495C300.278 266.653 303.973 267.363 304.871 269.016C306.06 271.238 303.689 273.19 301.542 274.342Z" fill="#FF8D8D"/>
<path d="M286.574 275.113C282.902 275.113 279.476 274.605 277.763 269.541C277.015 267.409 277.411 264.439 279.326 263.385C279.958 263.083 280.665 262.973 281.359 263.069C282.053 263.164 282.704 263.462 283.231 263.923C284.293 264.853 285.139 266.004 285.707 267.297C286.358 268.673 286.782 270.146 286.963 271.658C287.012 272.823 286.881 273.988 286.574 275.113Z" fill="#FF8D8D"/>
<path d="M293.269 260.305C290.277 267.426 286.664 274.464 284.518 282.184" stroke="#FF8D8D" stroke-miterlimit="10"/>
<path d="M296.058 292.649C294.306 294.008 292.36 295.095 290.283 295.873C288.129 296.621 285.795 296.905 284.254 295.192C283.758 294.61 283.362 293.951 283.08 293.24C284.456 292.208 285.466 290.771 286.648 289.567C287.83 288.363 289.087 287.39 290.732 287.241C292.542 287.046 296.252 287.286 297.539 288.4C299.244 289.836 297.614 291.34 296.058 292.649Z" fill="#FF8D8D"/>
<path d="M282.849 298.834C281.248 299.783 279.707 300.651 277.987 300.756C276.267 300.861 274.359 300.157 272.407 297.764C270.724 295.752 269.894 291.885 271.435 289.76C271.86 289.154 272.49 288.722 273.208 288.542C273.926 288.362 274.686 288.446 275.347 288.78C276.648 289.466 277.802 290.402 278.743 291.533C279.823 292.723 280.778 294.022 281.592 295.408C282.125 296.505 282.546 297.652 282.849 298.834Z" fill="#FF8D8D"/>
<path d="M284.517 282.207C283.403 286.084 282.826 290.096 282.804 294.13C282.804 298.184 280.365 306.981 283.851 335.839" stroke="#FF8D8D" stroke-miterlimit="10"/>
<path d="M70.5059 274.867L109.162 222.507C115.797 206.051 114.945 196.671 116.687 180.23C118.183 165.794 122.133 153.856 122.529 148.867C122.671 147.109 124.1 125.963 124.13 124.183C124.182 121.856 127.122 116.351 127.675 114.085C132.163 94.9659 135.694 92.101 140.713 94.9958C141.461 95.4221 149.465 99.1846 143.481 120.914C142.112 125.896 143.72 157.424 143.72 157.424L225.529 124.422V206.014L189.445 247.633C183.796 253.732 176.911 258.556 169.249 261.785C165.771 263.281 161.627 263.655 161.35 263.917C159.293 265.876 136.532 298.811 124.422 316.419C104.398 302.611 86.0194 288.765 70.5059 274.867Z" fill="white"/>
<path d="M143.72 157.417L142.755 157.806C142.755 157.806 140.832 125.889 142.201 120.907C145.507 108.887 144.931 102.372 143.622 98.8711C143.316 104.107 142.014 118.895 136.89 125.051C144.767 136.121 140.496 157.469 137.833 161.703C137.833 161.703 141.244 188.167 147.998 206.583C145.463 205.581 142.822 205.431 141.319 207.608C138.267 212.014 142.284 222.388 143.667 226.817C145.163 231.589 146.659 236.363 148.155 241.141C157.067 240.056 166.039 239.556 175.016 239.645L174.769 239.749C161.926 244.731 147.437 246.691 134.332 242.48C132.253 240.512 130.181 238.321 130.061 238.276C126.583 237.131 127.817 242.764 126.95 245.397C125.775 249.137 123.696 252.533 121.639 255.869L100.77 289.821C118.938 270.844 126.8 257.731 138.095 245.928L141.341 248.793H141.266C138.499 249.271 137.249 254.979 136.255 257.193C133.028 264.404 129.607 271.519 125.992 278.541L136.748 264.493C139.838 260.447 143.48 256.108 148.275 254.904L150.519 256.879C151.312 257.582 152.12 258.285 152.943 258.966C149.36 262.706 134.669 288.257 117.637 311.086L124.511 316.382C136.621 298.774 159.383 265.84 161.44 263.88C161.923 263.702 162.425 263.579 162.936 263.513L162.981 263.424H163.355C165.4 263.061 167.404 262.497 169.339 261.741C177 258.512 183.885 253.688 189.535 247.588L210.232 223.652C211.533 221.251 211.96 218.85 208.137 220.773C207.472 221.109 206.828 221.521 206.178 221.872C205.966 221.642 205.733 221.431 205.482 221.244C203.866 220.092 201.742 220.01 199.752 220.114C193.335 220.466 187.096 222.358 180.716 223.106C174.335 223.854 167.394 223.368 162.255 219.501C159.301 217.257 157.206 214.138 154.708 211.393C158.195 191.541 159.636 171.384 159.009 151.239L143.72 157.41V157.417Z" fill="#FF8D8D"/>
<path opacity="0.5" d="M143.72 157.417L142.755 157.806C142.755 157.806 140.832 125.889 142.201 120.907C145.507 108.887 144.931 102.372 143.622 98.8711C143.316 104.107 142.014 118.895 136.89 125.051C144.767 136.121 140.496 157.469 137.833 161.703C137.833 161.703 141.244 188.167 147.998 206.583C145.463 205.581 142.822 205.431 141.319 207.608C138.267 212.014 142.284 222.388 143.667 226.817C145.163 231.589 146.659 236.363 148.155 241.141C157.067 240.056 166.039 239.556 175.016 239.645L174.769 239.749C161.926 244.731 147.437 246.691 134.332 242.48C132.253 240.512 130.181 238.321 130.061 238.276C126.583 237.131 127.817 242.764 126.95 245.397C125.775 249.137 123.696 252.533 121.639 255.869L100.77 289.821C118.938 270.844 126.8 257.731 138.095 245.928L141.341 248.793H141.266C138.499 249.271 137.249 254.979 136.255 257.193C133.028 264.404 129.607 271.519 125.992 278.541L136.748 264.493C139.838 260.447 143.48 256.108 148.275 254.904L150.519 256.879C151.312 257.582 152.12 258.285 152.943 258.966C149.36 262.706 134.669 288.257 117.637 311.086L124.511 316.382C136.621 298.774 159.383 265.84 161.44 263.88C161.923 263.702 162.425 263.579 162.936 263.513L162.981 263.424H163.355C165.4 263.061 167.404 262.497 169.339 261.741C177 258.512 183.885 253.688 189.535 247.588L210.232 223.652C211.533 221.251 211.96 218.85 208.137 220.773C207.472 221.109 206.828 221.521 206.178 221.872C205.966 221.642 205.733 221.431 205.482 221.244C203.866 220.092 201.742 220.01 199.752 220.114C193.335 220.466 187.096 222.358 180.716 223.106C174.335 223.854 167.394 223.368 162.255 219.501C159.301 217.257 157.206 214.138 154.708 211.393C158.195 191.541 159.636 171.384 159.009 151.239L143.72 157.41V157.417Z" fill="white"/>
<path d="M70.5059 274.867L109.162 222.507C115.797 206.051 114.945 196.671 116.687 180.23C118.183 165.794 122.133 153.856 122.529 148.867C122.671 147.109 124.1 125.963 124.13 124.183C124.182 121.856 127.122 116.351 127.675 114.085C132.163 94.9659 135.694 92.101 140.713 94.9958C141.461 95.4221 149.465 99.1846 143.481 120.914C142.112 125.896 143.72 157.424 143.72 157.424L225.529 124.422V206.014L189.445 247.633C183.796 253.732 176.911 258.556 169.249 261.785C165.771 263.281 161.627 263.655 161.35 263.917C159.293 265.876 136.532 298.811 124.422 316.419" stroke="#263238" stroke-miterlimit="10"/>
<path d="M232.664 122.785C233.468 122.411 234.293 122.081 235.133 121.798C238.125 120.788 242.336 120.302 244.947 122.127C247.871 124.132 249.554 131.185 242.807 136.085C238.76 139.076 234.33 141.511 229.635 143.325C228.603 143.746 227.49 143.934 226.376 143.874C225.263 143.815 224.176 143.51 223.195 142.981C222.013 142.323 221.011 141.351 220.951 139.937C220.659 131.709 225.199 126.263 232.664 122.785Z" fill="white"/>
<mask id="mask0_2194_36048" style="mask-type:luminance" maskUnits="userSpaceOnUse" x="220" y="120" width="28" height="24">
<path d="M232.664 122.785C233.468 122.411 234.293 122.081 235.133 121.798C238.125 120.788 242.336 120.302 244.947 122.127C247.871 124.132 249.554 131.185 242.807 136.085C238.76 139.076 234.33 141.511 229.635 143.325C228.603 143.746 227.49 143.934 226.376 143.874C225.263 143.815 224.176 143.51 223.195 142.981C222.013 142.323 221.011 141.351 220.951 139.937C220.659 131.709 225.199 126.263 232.664 122.785Z" fill="white"/>
</mask>
<g mask="url(#mask0_2194_36048)">
<path d="M244.199 126.212C241.364 119.241 232.194 121.126 230.294 127.588C229.366 130.752 229.822 134.141 230.294 137.402C230.541 139.122 231.042 141.142 232.62 141.77C232.745 141.812 232.872 141.847 233.001 141.875C235.645 140.646 238.198 139.229 240.639 137.634C241.598 136.727 242.437 135.701 243.137 134.582C244.663 132.091 245.291 128.912 244.199 126.212Z" fill="#FF8D8D"/>
<path opacity="0.5" d="M244.199 126.212C241.364 119.241 232.194 121.126 230.294 127.588C229.366 130.752 229.822 134.141 230.294 137.402C230.541 139.122 231.042 141.142 232.62 141.77C232.745 141.812 232.872 141.847 233.001 141.875C235.645 140.646 238.198 139.229 240.639 137.634C241.598 136.727 242.437 135.701 243.137 134.582C244.663 132.091 245.291 128.912 244.199 126.212Z" fill="white"/>
</g>
<path d="M232.664 122.785C233.468 122.411 234.293 122.081 235.133 121.798C238.125 120.788 242.336 120.302 244.947 122.127C247.871 124.132 249.554 131.185 242.807 136.085C238.76 139.076 234.33 141.511 229.635 143.325C228.603 143.746 227.49 143.934 226.376 143.874C225.263 143.815 224.176 143.51 223.195 142.981C222.013 142.323 221.011 141.351 220.951 139.937C220.659 131.709 225.199 126.263 232.664 122.785Z" stroke="#263238" stroke-miterlimit="10"/>
<path d="M231.603 160.894L219.695 166.878V148.627L234.221 141.895C234.221 141.895 226.824 151.903 231.603 160.894Z" stroke="#263238" stroke-miterlimit="10"/>
<path d="M227.542 167.836L219.695 172.189V192.587L232.568 187.837L234.221 169.093C234.221 169.093 232.217 168.232 227.542 167.836Z" stroke="#263238" stroke-miterlimit="10"/>
<path d="M233.143 75.5845V221.998C233.141 224.914 231.983 227.711 229.924 229.776C227.864 231.841 225.071 233.006 222.154 233.016H154.834C151.913 233.014 149.112 231.853 147.046 229.787C144.98 227.721 143.818 224.92 143.816 221.998V75.5845C143.816 72.6623 144.977 69.8598 147.044 67.7935C149.11 65.7272 151.912 64.5664 154.834 64.5664H222.154C222.955 64.566 223.752 64.6538 224.533 64.8282C226.977 65.3757 229.161 66.7394 230.726 68.6947C232.291 70.6499 233.144 73.08 233.143 75.5845Z" fill="#263238"/>
<path d="M217.601 68.9883H159.399C153.314 68.9883 148.381 73.9212 148.381 80.0063V217.466C148.381 223.551 153.314 228.484 159.399 228.484H217.601C223.686 228.484 228.619 223.551 228.619 217.466V80.0063C228.619 73.9212 223.686 68.9883 217.601 68.9883Z" fill="#FF8D8D"/>
<path d="M164.869 146.205C164.869 146.107 164.923 146.059 165.032 146.059H171.966C172.074 146.059 172.129 146.107 172.129 146.205V147.465C172.129 147.562 172.074 147.611 171.966 147.611H166.887C166.822 147.611 166.79 147.64 166.79 147.699V150.232C166.79 150.291 166.822 150.32 166.887 150.32H171.168C171.277 150.32 171.331 150.369 171.331 150.467V151.726C171.331 151.824 171.277 151.873 171.168 151.873H166.887C166.822 151.873 166.79 151.902 166.79 151.961V155.871C166.79 155.968 166.736 156.017 166.627 156.017H165.032C164.923 156.017 164.869 155.968 164.869 155.871V146.205Z" fill="#263238"/>
<path d="M175.777 146.205C175.809 146.107 175.88 146.059 175.989 146.059H177.486C177.595 146.059 177.665 146.107 177.698 146.205L181.441 155.871C181.474 155.968 181.436 156.017 181.327 156.017H179.732C179.624 156.017 179.553 155.968 179.521 155.871L178.788 153.938H174.621L173.889 155.871C173.856 155.968 173.786 156.017 173.677 156.017H172.098C171.99 156.017 171.952 155.968 171.984 155.871L175.777 146.205ZM178.202 152.4L176.737 148.534H176.688L175.207 152.4H178.202Z" fill="#263238"/>
<path d="M182.958 146.205C182.958 146.107 183.012 146.059 183.121 146.059H184.716C184.824 146.059 184.879 146.107 184.879 146.205V155.871C184.879 155.968 184.824 156.017 184.716 156.017H183.121C183.012 156.017 182.958 155.968 182.958 155.871V146.205Z" fill="#263238"/>
<path d="M187.313 146.205C187.313 146.107 187.368 146.059 187.476 146.059H189.071C189.18 146.059 189.234 146.107 189.234 146.205V154.377C189.234 154.436 189.267 154.465 189.332 154.465H194.41C194.519 154.465 194.573 154.514 194.573 154.611V155.871C194.573 155.968 194.519 156.017 194.41 156.017H187.476C187.368 156.017 187.313 155.968 187.313 155.871V146.205Z" fill="#263238"/>
<path d="M196.183 146.205C196.183 146.107 196.237 146.059 196.346 146.059H203.28C203.388 146.059 203.443 146.107 203.443 146.205V147.465C203.443 147.562 203.388 147.611 203.28 147.611H198.201C198.136 147.611 198.104 147.64 198.104 147.699V150.13C198.104 150.188 198.136 150.218 198.201 150.218H202.482C202.591 150.218 202.645 150.267 202.645 150.364V151.624C202.645 151.721 202.591 151.77 202.482 151.77H198.201C198.136 151.77 198.104 151.799 198.104 151.858V154.377C198.104 154.436 198.136 154.465 198.201 154.465H203.28C203.388 154.465 203.443 154.514 203.443 154.611V155.871C203.443 155.968 203.388 156.017 203.28 156.017H196.346C196.237 156.017 196.183 155.968 196.183 155.871V146.205Z" fill="#263238"/>
<path d="M205.466 146.205C205.466 146.107 205.52 146.059 205.629 146.059H209.584C211.515 146.059 212.747 146.796 213.279 148.27C213.322 148.397 213.36 148.534 213.393 148.68C213.425 148.817 213.452 148.988 213.474 149.193C213.507 149.398 213.528 149.651 213.539 149.954C213.55 150.247 213.556 150.608 213.556 151.038C213.556 151.467 213.55 151.834 213.539 152.136C213.528 152.429 213.507 152.678 213.474 152.883C213.452 153.088 213.425 153.264 213.393 153.41C213.36 153.547 213.322 153.679 213.279 153.806C212.747 155.28 211.515 156.017 209.584 156.017H205.629C205.52 156.017 205.466 155.968 205.466 155.871V146.205ZM207.387 154.377C207.387 154.436 207.419 154.465 207.484 154.465H209.128C209.747 154.465 210.24 154.367 210.609 154.172C210.989 153.977 211.26 153.654 211.423 153.205C211.456 153.137 211.483 153.054 211.505 152.956C211.526 152.849 211.543 152.717 211.553 152.561C211.575 152.395 211.591 152.19 211.602 151.946C211.613 151.702 211.619 151.399 211.619 151.038C211.619 150.677 211.613 150.374 211.602 150.13C211.591 149.886 211.575 149.681 211.553 149.515C211.543 149.349 211.526 149.217 211.505 149.119C211.483 149.022 211.456 148.939 211.423 148.87C211.26 148.421 210.989 148.099 210.609 147.904C210.24 147.709 209.747 147.611 209.128 147.611H207.484C207.419 147.611 207.387 147.64 207.387 147.699V154.377Z" fill="#263238"/>
<path d="M168.037 68.9883H210.8V70.2374C210.8 72.37 209.953 74.4153 208.445 75.9233C206.937 77.4313 204.892 78.2784 202.759 78.2784H176.078C173.946 78.2784 171.9 77.4313 170.392 75.9233C168.884 74.4153 168.037 72.37 168.037 70.2374V68.9883Z" fill="#263238"/>
<path d="M175.398 75.3549C176.542 75.3549 177.47 74.4272 177.47 73.2829C177.47 72.1386 176.542 71.2109 175.398 71.2109C174.254 71.2109 173.326 72.1386 173.326 73.2829C173.326 74.4272 174.254 75.3549 175.398 75.3549Z" fill="white" stroke="#263238" stroke-miterlimit="10"/>
<path d="M195.219 71.6211H183.618C182.63 71.6211 181.83 72.4215 181.83 73.4088V73.9698C181.83 74.9571 182.63 75.7575 183.618 75.7575H195.219C196.207 75.7575 197.007 74.9571 197.007 73.9698V73.4088C197.007 72.4215 196.207 71.6211 195.219 71.6211Z" fill="white" stroke="#263238" stroke-miterlimit="10"/>
<path d="M198.761 136.802C203.425 131.138 202.615 122.766 196.951 118.102C191.287 113.439 182.915 114.249 178.251 119.913C173.587 125.577 174.398 133.949 180.062 138.613C185.725 143.276 194.098 142.466 198.761 136.802Z" stroke="#263238" stroke-miterlimit="10"/>
<path d="M190.526 122.824L192.532 125.081L190.111 127.804L192.532 130.526L190.526 132.783L188.106 130.06L185.685 132.783L183.68 130.526L186.1 127.804L183.68 125.081L185.685 122.824L188.106 125.545L190.526 122.824Z" fill="#263238"/>
<path d="M189.198 202.912C200.811 202.912 210.224 193.498 210.224 181.886C210.224 170.273 200.811 160.859 189.198 160.859C177.586 160.859 168.172 170.273 168.172 181.886C168.172 193.498 177.586 202.912 189.198 202.912Z" fill="#263238"/>
<path d="M196.956 167.625L203.321 173.99L195.639 181.672L203.321 189.354L196.956 195.72L189.274 188.038L181.592 195.72L175.227 189.354L182.909 181.672L175.227 173.99L181.592 167.625L189.274 175.299L196.956 167.625Z" fill="#FF8D8D"/>
<path d="M177.126 89.2587C178.113 89.2587 178.532 89.8422 178.532 90.7547V91.5027C178.532 92.4976 178.068 92.9987 177.036 92.9987H176.415V95.4746H175.779V89.1914L177.126 89.2587ZM177.073 92.4377C177.589 92.4377 177.821 92.1984 177.821 91.5925V90.7622C177.821 90.1862 177.612 89.902 177.073 89.902H176.4V92.4377H177.073Z" fill="#263238"/>
<path d="M180.506 89.2578C181.493 89.2578 181.912 89.7665 181.912 90.694V91.2101C181.912 91.8983 181.665 92.3321 181.164 92.4967C181.74 92.6687 181.957 93.1399 181.957 93.8057V94.7855C181.937 95.0416 181.98 95.2986 182.084 95.5335H181.374C181.275 95.2971 181.234 95.0408 181.254 94.7855V93.7982C181.254 93.0502 180.925 92.8632 180.341 92.8632H179.848V95.5485H179.145V89.2653L180.506 89.2578ZM180.326 92.2498C180.887 92.2498 181.216 92.0703 181.216 91.3896V90.7912C181.216 90.2227 181.015 89.931 180.468 89.931H179.788V92.2498H180.326Z" fill="#263238"/>
<path d="M182.594 90.7775C182.594 89.8201 183.072 89.1992 184.03 89.1992C184.987 89.1992 185.474 89.8201 185.474 90.7775V94.0238C185.503 94.2263 185.486 94.4327 185.426 94.6282C185.366 94.8236 185.263 95.0033 185.125 95.1542C184.987 95.3052 184.817 95.4236 184.628 95.5011C184.438 95.5785 184.234 95.613 184.03 95.6021C183.072 95.6021 182.594 94.9738 182.594 94.0238V90.7775ZM183.282 94.0612C183.282 94.6372 183.529 94.9663 184.03 94.9663C184.531 94.9663 184.778 94.6372 184.778 94.0612V90.7401C184.778 90.1791 184.546 89.835 184.03 89.835C183.514 89.835 183.282 90.1791 183.282 90.7401V94.0612Z" fill="#263238"/>
<path d="M188.906 90.7762V91.3447H188.248V90.7388C188.248 90.1778 188.023 89.8337 187.5 89.8337C186.976 89.8337 186.752 90.1778 186.752 90.7388V94.0599C186.752 94.6284 186.984 94.965 187.5 94.965C188.016 94.965 188.248 94.6284 188.248 94.0599V93.2446H188.906V93.9926C188.906 94.9425 188.465 95.5708 187.492 95.5708C186.52 95.5708 186.086 94.9425 186.086 93.9926V90.7462C186.086 89.7963 186.535 89.168 187.492 89.168C188.45 89.168 188.906 89.8262 188.906 90.7762Z" fill="#263238"/>
<path d="M191.787 92.0407V92.669H190.246V94.913H192.131V95.5488H189.551V89.2656H192.131V89.9089H190.246V92.0482L191.787 92.0407Z" fill="#263238"/>
<path d="M195.01 92.0407V92.669H193.514V94.913H195.399V95.5488H192.818V89.2656H195.399V89.9089H193.514V92.0482L195.01 92.0407Z" fill="#263238"/>
<path d="M197.471 89.2578C198.45 89.2578 198.899 89.8562 198.899 90.8211V93.9852C198.899 94.9501 198.45 95.541 197.471 95.541H195.975V89.2578H197.471ZM197.471 94.9052C197.972 94.9052 198.219 94.5911 198.219 94.0151V90.7837C198.219 90.2153 197.972 89.9011 197.471 89.9011H196.723V94.9052H197.471Z" fill="#263238"/>
<path d="M203.627 90.7856C203.627 92.2816 202.386 92.6033 202.386 93.7776C202.385 93.8938 202.4 94.0095 202.43 94.1217H201.802C201.771 94.0047 201.755 93.8839 201.757 93.7627C201.757 92.3864 202.932 92.1844 202.932 90.7707C202.932 90.2022 202.722 89.8432 202.184 89.8432C201.645 89.8432 201.436 90.2097 201.436 90.7707V91.3242H200.777V90.8081C200.777 89.8581 201.211 89.2148 202.169 89.2148C203.126 89.2148 203.627 89.8282 203.627 90.7856ZM202.438 94.6752V95.5429H201.772V94.6752H202.438Z" fill="#263238"/>
<path opacity="0.2" d="M171.815 64.5898L143.713 100.928V75.6079C143.713 72.6857 144.874 69.8832 146.94 67.817C149.006 65.7507 151.809 64.5898 154.731 64.5898H171.815Z" fill="white"/>
<path opacity="0.2" d="M223.418 64.6124L142.738 165.712V126.592L194.425 64.3281H221.046C221.845 64.3356 222.64 64.4309 223.418 64.6124Z" fill="white"/>
<path opacity="0.2" d="M233.144 176.879V193.814L228.626 199.356L204.87 228.483L201.175 233.016H186.521L190.284 228.483L228.626 182.317L233.144 176.879Z" fill="white"/>
<path d="M228.013 151.928C227.804 153.19 227.872 154.483 228.213 155.717C228.554 156.95 229.16 158.095 229.988 159.071C231.857 161.223 234.422 162.653 237.236 163.11C239.442 163.492 242.038 163.215 243.466 161.734C244.716 160.447 244.761 158.63 244.738 156.969C244.701 152.9 243.653 147.327 238.058 146.063C233.458 145.016 228.686 148.158 228.013 151.928Z" fill="white"/>
<mask id="mask1_2194_36048" style="mask-type:luminance" maskUnits="userSpaceOnUse" x="227" y="145" width="18" height="19">
<path d="M228.013 151.928C227.804 153.19 227.872 154.483 228.213 155.717C228.554 156.95 229.16 158.095 229.988 159.071C231.857 161.223 234.422 162.653 237.236 163.11C239.442 163.492 242.038 163.215 243.466 161.734C244.716 160.447 244.761 158.63 244.738 156.969C244.701 152.9 243.653 147.327 238.058 146.063C233.458 145.016 228.686 148.158 228.013 151.928Z" fill="white"/>
</mask>
<g mask="url(#mask1_2194_36048)">
<path d="M228.005 150.684C227.646 152.1 227.652 153.583 228.022 154.996C228.393 156.409 229.115 157.705 230.122 158.762C232.174 160.862 234.866 162.22 237.774 162.622C238.402 161.41 237.43 160.041 236.697 158.882C235.4 156.838 234.77 154.441 234.894 152.023C234.954 150.938 235.373 149.637 236.442 149.427C237.392 149.24 238.267 150.108 238.552 151.036C238.736 151.985 238.834 152.949 238.843 153.915C238.858 154.403 239.005 154.878 239.268 155.29C239.532 155.701 239.902 156.032 240.339 156.249C240.552 154.059 240.297 151.848 239.591 149.764C237.258 144.229 229.636 145.111 228.005 150.684Z" fill="#FF8D8D"/>
<path opacity="0.5" d="M228.005 150.684C227.646 152.1 227.652 153.583 228.022 154.996C228.393 156.409 229.115 157.705 230.122 158.762C232.174 160.862 234.866 162.22 237.774 162.622C238.402 161.41 237.43 160.041 236.697 158.882C235.4 156.838 234.77 154.441 234.894 152.023C234.954 150.938 235.373 149.637 236.442 149.427C237.392 149.24 238.267 150.108 238.552 151.036C238.736 151.985 238.834 152.949 238.843 153.915C238.858 154.403 239.005 154.878 239.268 155.29C239.532 155.701 239.902 156.032 240.339 156.249C240.552 154.059 240.297 151.848 239.591 149.764C237.258 144.229 229.636 145.111 228.005 150.684Z" fill="white"/>
</g>
<path d="M228.013 151.928C227.804 153.19 227.872 154.483 228.213 155.717C228.554 156.95 229.16 158.095 229.988 159.071C231.857 161.223 234.422 162.653 237.236 163.11C239.442 163.492 242.038 163.215 243.466 161.734C244.716 160.447 244.761 158.63 244.738 156.969C244.701 152.9 243.653 147.327 238.058 146.063C233.458 145.016 228.686 148.158 228.013 151.928Z" stroke="#263238" stroke-miterlimit="10"/>
<path d="M232.77 198.776L224.505 205.029C224.505 205.029 219.373 213.406 229.322 215.576L237.864 213.115C239.882 212.566 241.672 211.386 242.971 209.746C244.27 208.107 245.01 206.095 245.082 204.004C245.134 199.987 242.718 195.739 232.822 194.781L232.77 198.776Z" fill="white"/>
<mask id="mask2_2194_36048" style="mask-type:luminance" maskUnits="userSpaceOnUse" x="223" y="194" width="23" height="22">
<path d="M232.77 198.776L224.505 205.029C224.505 205.029 219.373 213.406 229.322 215.576L237.864 213.115C239.882 212.566 241.672 211.386 242.971 209.746C244.27 208.107 245.01 206.095 245.082 204.004C245.134 199.987 242.718 195.739 232.822 194.781L232.77 198.776Z" fill="white"/>
</mask>
<g mask="url(#mask2_2194_36048)">
<path d="M230.885 202.289C230.961 202.98 231.202 203.642 231.588 204.219C233.276 207.333 234.343 210.745 234.73 214.265C234.453 211.729 235.859 208.453 235.784 205.73C235.71 203.008 235.455 199.44 234.027 197.113C233.204 198.49 230.862 200.584 230.885 202.289Z" fill="#FF8D8D"/>
<path opacity="0.5" d="M230.885 202.289C230.961 202.98 231.202 203.642 231.588 204.219C233.276 207.333 234.343 210.745 234.73 214.265C234.453 211.729 235.859 208.453 235.784 205.73C235.71 203.008 235.455 199.44 234.027 197.113C233.204 198.49 230.862 200.584 230.885 202.289Z" fill="white"/>
</g>
<path d="M232.77 198.776L224.505 205.029C224.505 205.029 219.373 213.406 229.322 215.576L237.864 213.115C239.882 212.566 241.672 211.386 242.971 209.746C244.27 208.107 245.01 206.095 245.082 204.004C245.134 199.987 242.718 195.739 232.822 194.781L232.77 198.776Z" stroke="#263238" stroke-miterlimit="10"/>
<path d="M229.8 174.285L222.155 182.513C222.155 182.513 218.236 192.469 229.314 192.903L237.968 188.677C240.121 187.661 242.002 186.148 243.457 184.264C244.912 182.38 245.899 180.178 246.338 177.838C247.161 173.051 245.351 168.197 233.959 169.087L229.8 174.285Z" fill="white"/>
<mask id="mask3_2194_36048" style="mask-type:luminance" maskUnits="userSpaceOnUse" x="221" y="168" width="26" height="25">
<path d="M229.8 174.285L222.155 182.513C222.155 182.513 218.236 192.469 229.314 192.903L237.968 188.677C240.121 187.661 242.002 186.148 243.457 184.264C244.912 182.38 245.899 180.178 246.338 177.838C247.161 173.051 245.351 168.197 233.959 169.087L229.8 174.285Z" fill="white"/>
</mask>
<g mask="url(#mask3_2194_36048)">
<path d="M230.339 191.976C231.087 192.634 232.373 192.163 232.874 191.295C233.293 190.38 233.403 189.354 233.189 188.37C233.002 186.874 231.087 176.649 228.76 177.898C227.392 178.646 230.069 190.143 230.339 191.976Z" fill="#FF8D8D"/>
<path opacity="0.5" d="M230.339 191.976C231.087 192.634 232.373 192.163 232.874 191.295C233.293 190.38 233.403 189.354 233.189 188.37C233.002 186.874 231.087 176.649 228.76 177.898C227.392 178.646 230.069 190.143 230.339 191.976Z" fill="white"/>
</g>
<path d="M229.8 174.285L222.155 182.513C222.155 182.513 218.236 192.469 229.314 192.903L237.968 188.677C240.121 187.661 242.002 186.148 243.457 184.264C244.912 182.38 245.899 180.178 246.338 177.838C247.161 173.051 245.351 168.197 233.959 169.087L229.8 174.285Z" stroke="#263238" stroke-miterlimit="10"/>
<path d="M229.262 180.359C228.67 180.465 228.107 180.698 227.615 181.044C227.122 181.389 226.71 181.838 226.409 182.359C226.108 182.88 225.925 183.46 225.872 184.06C225.818 184.659 225.897 185.263 226.102 185.829C226.306 186.395 226.632 186.909 227.057 187.336C227.481 187.763 227.993 188.092 228.558 188.299C229.123 188.507 229.726 188.589 230.326 188.54C230.925 188.49 231.507 188.31 232.03 188.011" stroke="#263238" stroke-miterlimit="10"/>
<path d="M231.819 205.303C229.448 204.921 227.174 207.547 227.907 209.858C228.64 212.169 232.036 212.97 233.742 211.279" fill="white"/>
<path d="M231.819 205.303C229.448 204.921 227.174 207.547 227.907 209.858C228.64 212.169 232.036 212.97 233.742 211.279" stroke="#263238" stroke-miterlimit="10"/>
<path d="M133.322 125.079C136.968 125.355 140.587 124.265 143.473 122.02" stroke="#263238" stroke-miterlimit="10"/>
<path d="M142.119 159.504C139.193 161.875 135.555 163.192 131.789 163.244" stroke="#263238" stroke-miterlimit="10"/>
<path d="M152.591 232.383C150.928 237.123 147.736 241.175 143.518 243.902" stroke="#263238" stroke-miterlimit="10"/>
<path d="M240.459 354.834L238.379 346.734C223.105 331.026 195.055 316.619 192.624 294.837C189.483 266.87 185.182 268.007 185.182 261.05C186.855 257.622 188.293 254.083 189.483 250.458C190.231 248.162 190.635 244.789 191.053 242.021C191.257 240.608 191.987 239.323 193.096 238.423C194.205 237.523 195.612 237.075 197.037 237.166C199.027 237.292 200.928 238.034 202.475 239.291C205.31 241.692 206.746 245.424 207.098 249.127C207.45 252.83 206.881 256.547 206.275 260.22C209.267 265.89 210.98 272.936 212.259 279.197C213.576 273.961 215.625 257.916 210.24 247.145C201.181 228.998 191.263 211.585 183.454 188.561C182.81 186.418 182.707 184.149 183.155 181.957C184.972 175.097 191.981 176.182 195.25 179.885C196.111 180.861 196.817 181.963 197.344 183.153C201.084 191.292 208.736 203.716 214.144 210.829L232.784 235.513L235.028 233.763C235.028 233.763 236.038 203.095 235.537 202.609C235.036 202.123 232.029 182.51 232.029 182.51C232.029 182.51 230.383 178.86 228.379 174.2C227.788 172.895 227.483 171.48 227.483 170.048C227.483 168.617 227.788 167.201 228.379 165.897C231.879 158.746 239.18 162.075 240.676 165.897C242.172 169.719 246.66 177.199 246.66 177.199L254.985 199.968C254.671 205.115 257.625 230.547 257.625 230.547L260.617 229.178L265.442 214.218L261.799 198.966C261.799 198.966 253.826 190.17 255.157 185.008C256.488 179.847 263.295 181.358 263.295 181.358L276.916 197.635H280.918L290.388 209.603C292.937 217.308 294.238 225.371 294.24 233.486C294.243 238.817 293.678 244.133 292.557 249.344L290.388 259.457V324.78C290.388 324.78 296.865 335.252 296.865 336.239C296.865 336.441 298.219 340.181 300.044 345.163C280.978 352.875 261.051 355.837 240.459 354.834Z" fill="white"/>
<path d="M198.301 252.239C199.117 253.174 198.698 255.066 197.456 255.096C195.809 254.569 194.038 254.575 192.395 255.112C190.751 255.649 189.319 256.69 188.301 258.088C188.001 258.514 187.463 259.03 187.059 258.701C186.797 258.484 186.857 258.073 186.939 257.744C187.059 257.295 187.179 256.846 187.291 256.397C187.942 254.842 188.69 252.889 189.483 250.481C189.647 250.002 189.782 249.463 189.916 248.902C190.164 249.582 190.626 250.163 191.233 250.556C192.288 251.214 193.619 251.146 194.861 251.154C196.102 251.161 197.471 251.326 198.301 252.239ZM203.68 284.126C203.867 283.789 204.024 283.445 204.181 283.094C204.015 283.208 203.882 283.363 203.794 283.544C203.707 283.725 203.667 283.925 203.68 284.126ZM212.252 279.196C210.98 272.906 209.26 265.89 206.268 260.22C206.874 256.547 207.457 252.829 207.09 249.127C206.724 245.424 205.303 241.692 202.468 239.291C200.92 238.034 199.019 237.292 197.03 237.166C196.529 237.13 196.026 237.163 195.534 237.264C193.028 238.251 191.495 240.443 193.223 243.801C193.744 244.778 194.604 245.531 195.641 245.918C196.678 246.305 197.821 246.3 198.855 245.903C199.35 245.67 199.793 245.34 200.159 244.933C200.524 244.525 200.804 244.049 200.983 243.532C201.161 243.014 201.234 242.467 201.198 241.921C201.161 241.375 201.016 240.842 200.77 240.353C202.908 243.735 203.965 247.689 203.799 251.688C203.633 255.686 202.253 259.539 199.842 262.733C205.467 267.61 207.255 276.347 204.173 283.094C204.546 282.839 204.986 282.704 205.437 282.704C205.888 282.704 206.329 282.839 206.701 283.094C207.779 283.901 208.138 285.338 208.661 286.564C209.185 287.791 210.202 289.1 211.549 289.01C212.887 285.726 212.932 282.121 212.394 278.538C212.349 278.778 212.304 279.002 212.252 279.196ZM239.786 196.266C239.823 196.52 239.845 196.774 239.875 197.014C239.931 196.761 239.899 196.498 239.786 196.266ZM194.576 186.063C201.359 194.504 205.004 205.036 204.891 215.863C207.061 214.158 210.023 216.522 211.721 218.698C222.14 232.078 231.876 245.976 240.893 260.339C239.15 253.989 239.105 247.257 237.22 240.951C236.5 238.631 235.607 236.369 234.55 234.182L232.807 235.536L214.167 210.852C208.758 203.716 201.106 191.291 197.366 183.176C196.84 181.985 196.133 180.883 195.272 179.907C194.404 178.942 193.338 178.176 192.145 177.663C191.031 180.079 193.058 183.729 190.649 185.996C191.255 185.996 194.255 185.674 194.576 186.063ZM257.558 229.956C257.117 226.096 254.701 204.658 254.985 199.976L246.66 177.207C246.66 177.207 242.172 169.727 240.676 165.904C240.543 165.58 240.381 165.27 240.189 164.977C239.913 164.699 239.586 164.478 239.225 164.326C235.679 163.047 238.073 167.647 237.609 169.966C243.433 177.525 246.7 186.741 246.936 196.281C245.28 196.56 243.784 197.439 242.735 198.752C241.687 200.064 241.158 201.717 241.252 203.394C241.573 201.15 244.864 200.522 246.667 201.898C248.47 203.274 249.091 205.638 249.495 207.882C251.881 221.039 250.071 234.571 251.028 247.908C251.387 252.942 255.658 263.93 258.508 286.923C257.76 270.198 258.508 252.433 257.76 235.715C257.708 233.726 257.633 231.826 257.558 229.956ZM296.85 336.239C296.85 335.244 290.373 324.78 290.373 324.78V270.774C289.325 267.902 288.099 265.099 286.7 262.381C286.678 262.342 286.644 262.31 286.603 262.291C286.562 262.272 286.516 262.266 286.471 262.274C286.427 262.282 286.386 262.304 286.354 262.337C286.323 262.37 286.303 262.411 286.296 262.456C285.668 267.692 283.626 266.421 280.409 262.217C280.409 262.217 275.652 265.426 275.63 265.396C274.021 263.227 273.333 260.594 272.952 257.916C273.004 257.796 273.064 257.676 273.124 257.549C273.184 257.422 273.296 257.19 273.386 257.011C273.475 256.831 273.633 256.487 273.76 256.218L274.021 255.657L274.403 254.827L274.657 254.266C274.792 253.974 274.919 253.675 275.054 253.375C275.129 253.196 275.211 253.024 275.286 252.844C275.435 252.5 275.585 252.164 275.727 251.82L275.906 251.401V251.333C275.966 251.199 276.019 251.064 276.071 250.93C276.236 250.541 276.4 250.182 276.557 249.755L276.804 249.149C276.946 248.805 277.081 248.461 277.215 248.125L277.47 247.451C277.597 247.13 277.724 246.801 277.844 246.479L278.091 245.798C278.21 245.484 278.322 245.17 278.435 244.848C278.547 244.527 278.599 244.399 278.674 244.183L278.816 243.779C279.024 247.893 280.732 251.789 283.618 254.729C283.178 249.829 283.43 244.891 284.366 240.061C284.688 238.453 284.748 232.85 286.004 231.833C287.261 230.816 289.535 230.853 290.216 232.342C290.159 231.803 289.979 231.284 289.689 230.826C289.398 230.369 289.006 229.985 288.542 229.704C288.078 229.424 287.556 229.255 287.015 229.21C286.475 229.165 285.932 229.246 285.428 229.447C287.029 228.699 284.793 220.471 284.411 218.878C284.172 217.875 283.559 215.138 282.728 212.4C283.575 211.229 284.664 210.254 285.922 209.543C286.612 209.179 287.387 209.007 288.166 209.045C288.945 209.083 289.699 209.33 290.35 209.76V209.677L289.834 209.019C288.884 207.912 287.972 206.775 287.111 205.586L280.881 197.702H277.889L277.814 197.784C277.163 198.824 278.113 200.686 278.42 201.666C278.607 202.257 278.794 202.848 278.973 203.439C278.143 201.061 277.114 198.756 275.899 196.55L264.223 182.51C263.815 182.246 263.384 182.018 262.936 181.829C259.944 180.618 255.905 183.213 256.601 186.736C256.54 185.814 256.819 184.901 257.384 184.17C257.95 183.439 258.764 182.94 259.673 182.768C260.581 182.596 261.521 182.762 262.315 183.236C263.109 183.709 263.703 184.457 263.983 185.337C263.572 185.333 263.165 185.411 262.784 185.567C262.403 185.722 262.057 185.951 261.766 186.242C261.475 186.532 261.245 186.877 261.089 187.258C260.933 187.638 260.854 188.045 260.857 188.457L264.739 186.961C265.27 190.798 267.821 194.014 270.349 196.946C272.877 199.879 273.079 201.853 274.007 205.608C274.934 209.363 275.891 215.123 272.196 216.29C273.834 215.961 275.413 217.389 275.869 218.997C276.325 220.606 275.974 222.326 275.637 223.964C273.431 234.675 272.039 245.537 271.471 256.457C270.26 258.686 269.366 261.073 268.815 263.548L269.332 289.616C271.648 287.271 273.405 284.433 274.47 281.313C274.635 280.82 274.971 280.401 275.419 280.135C275.866 279.869 276.394 279.773 276.906 279.863C277.419 279.954 277.881 280.226 278.21 280.629C278.539 281.033 278.711 281.541 278.696 282.061C278.696 282.435 278.696 282.809 278.637 283.176L276.46 320.015L284.763 288.659C286.259 297.889 282.264 323.897 279.452 332.791C286.281 333.92 288.794 342.38 289.026 349.321C292.772 348.156 296.446 346.773 300.029 345.178C298.204 340.181 296.85 336.441 296.85 336.239ZM240.631 341.475C239.429 339.783 237.944 338.313 236.24 337.129C232.086 334.18 227.122 332.586 222.028 332.566L226.336 336.044C226.509 336.127 226.681 336.202 226.838 336.291C229.545 337.787 232.014 340.188 234.086 342.447C234.28 342.664 234.49 342.911 234.707 343.195C236.001 344.385 237.242 345.566 238.402 346.763L239.898 352.523C240.234 353.308 240.556 354.101 240.855 354.879C241.678 354.919 242.501 354.949 243.324 354.969C243.533 351.229 243.436 347.294 242.493 344.893C242.025 343.668 241.399 342.509 240.631 341.445V341.475Z" fill="#FF8D8D"/>
<path opacity="0.5" d="M198.301 252.239C199.117 253.174 198.698 255.066 197.456 255.096C195.809 254.569 194.038 254.575 192.395 255.112C190.751 255.649 189.319 256.69 188.301 258.088C188.001 258.514 187.463 259.03 187.059 258.701C186.797 258.484 186.857 258.073 186.939 257.744C187.059 257.295 187.179 256.846 187.291 256.397C187.942 254.842 188.69 252.889 189.483 250.481C189.647 250.002 189.782 249.463 189.916 248.902C190.164 249.582 190.626 250.163 191.233 250.556C192.288 251.214 193.619 251.146 194.861 251.154C196.102 251.161 197.471 251.326 198.301 252.239ZM203.68 284.126C203.867 283.789 204.024 283.445 204.181 283.094C204.015 283.208 203.882 283.363 203.794 283.544C203.707 283.725 203.667 283.925 203.68 284.126ZM212.252 279.196C210.98 272.906 209.26 265.89 206.268 260.22C206.874 256.547 207.457 252.829 207.09 249.127C206.724 245.424 205.303 241.692 202.468 239.291C200.92 238.034 199.019 237.292 197.03 237.166C196.529 237.13 196.026 237.163 195.534 237.264C193.028 238.251 191.495 240.443 193.223 243.801C193.744 244.778 194.604 245.531 195.641 245.918C196.678 246.305 197.821 246.3 198.855 245.903C199.35 245.67 199.793 245.34 200.159 244.933C200.524 244.525 200.804 244.049 200.983 243.532C201.161 243.014 201.234 242.467 201.198 241.921C201.161 241.375 201.016 240.842 200.77 240.353C202.908 243.735 203.965 247.689 203.799 251.688C203.633 255.686 202.253 259.539 199.842 262.733C205.467 267.61 207.255 276.347 204.173 283.094C204.546 282.839 204.986 282.704 205.437 282.704C205.888 282.704 206.329 282.839 206.701 283.094C207.779 283.901 208.138 285.338 208.661 286.564C209.185 287.791 210.202 289.1 211.549 289.01C212.887 285.726 212.932 282.121 212.394 278.538C212.349 278.778 212.304 279.002 212.252 279.196ZM239.786 196.266C239.823 196.52 239.845 196.774 239.875 197.014C239.931 196.761 239.899 196.498 239.786 196.266ZM194.576 186.063C201.359 194.504 205.004 205.036 204.891 215.863C207.061 214.158 210.023 216.522 211.721 218.698C222.14 232.078 231.876 245.976 240.893 260.339C239.15 253.989 239.105 247.257 237.22 240.951C236.5 238.631 235.607 236.369 234.55 234.182L232.807 235.536L214.167 210.852C208.758 203.716 201.106 191.291 197.366 183.176C196.84 181.985 196.133 180.883 195.272 179.907C194.404 178.942 193.338 178.176 192.145 177.663C191.031 180.079 193.058 183.729 190.649 185.996C191.255 185.996 194.255 185.674 194.576 186.063ZM257.558 229.956C257.117 226.096 254.701 204.658 254.985 199.976L246.66 177.207C246.66 177.207 242.172 169.727 240.676 165.904C240.543 165.58 240.381 165.27 240.189 164.977C239.913 164.699 239.586 164.478 239.225 164.326C235.679 163.047 238.073 167.647 237.609 169.966C243.433 177.525 246.7 186.741 246.936 196.281C245.28 196.56 243.784 197.439 242.735 198.752C241.687 200.064 241.158 201.717 241.252 203.394C241.573 201.15 244.864 200.522 246.667 201.898C248.47 203.274 249.091 205.638 249.495 207.882C251.881 221.039 250.071 234.571 251.028 247.908C251.387 252.942 255.658 263.93 258.508 286.923C257.76 270.198 258.508 252.433 257.76 235.715C257.708 233.726 257.633 231.826 257.558 229.956ZM296.85 336.239C296.85 335.244 290.373 324.78 290.373 324.78V270.774C289.325 267.902 288.099 265.099 286.7 262.381C286.678 262.342 286.644 262.31 286.603 262.291C286.562 262.272 286.516 262.266 286.471 262.274C286.427 262.282 286.386 262.304 286.354 262.337C286.323 262.37 286.303 262.411 286.296 262.456C285.668 267.692 283.626 266.421 280.409 262.217C280.409 262.217 275.652 265.426 275.63 265.396C274.021 263.227 273.333 260.594 272.952 257.916C273.004 257.796 273.064 257.676 273.124 257.549C273.184 257.422 273.296 257.19 273.386 257.011C273.475 256.831 273.633 256.487 273.76 256.218L274.021 255.657L274.403 254.827L274.657 254.266C274.792 253.974 274.919 253.675 275.054 253.375C275.129 253.196 275.211 253.024 275.286 252.844C275.435 252.5 275.585 252.164 275.727 251.82L275.906 251.401V251.333C275.966 251.199 276.019 251.064 276.071 250.93C276.236 250.541 276.4 250.182 276.557 249.755L276.804 249.149C276.946 248.805 277.081 248.461 277.215 248.125L277.47 247.451C277.597 247.13 277.724 246.801 277.844 246.479L278.091 245.798C278.21 245.484 278.322 245.17 278.435 244.848C278.547 244.527 278.599 244.399 278.674 244.183L278.816 243.779C279.024 247.893 280.732 251.789 283.618 254.729C283.178 249.829 283.43 244.891 284.366 240.061C284.688 238.453 284.748 232.85 286.004 231.833C287.261 230.816 289.535 230.853 290.216 232.342C290.159 231.803 289.979 231.284 289.689 230.826C289.398 230.369 289.006 229.985 288.542 229.704C288.078 229.424 287.556 229.255 287.015 229.21C286.475 229.165 285.932 229.246 285.428 229.447C287.029 228.699 284.793 220.471 284.411 218.878C284.172 217.875 283.559 215.138 282.728 212.4C283.575 211.229 284.664 210.254 285.922 209.543C286.612 209.179 287.387 209.007 288.166 209.045C288.945 209.083 289.699 209.33 290.35 209.76V209.677L289.834 209.019C288.884 207.912 287.972 206.775 287.111 205.586L280.881 197.702H277.889L277.814 197.784C277.163 198.824 278.113 200.686 278.42 201.666C278.607 202.257 278.794 202.848 278.973 203.439C278.143 201.061 277.114 198.756 275.899 196.55L264.223 182.51C263.815 182.246 263.384 182.018 262.936 181.829C259.944 180.618 255.905 183.213 256.601 186.736C256.54 185.814 256.819 184.901 257.384 184.17C257.95 183.439 258.764 182.94 259.673 182.768C260.581 182.596 261.521 182.762 262.315 183.236C263.109 183.709 263.703 184.457 263.983 185.337C263.572 185.333 263.165 185.411 262.784 185.567C262.403 185.722 262.057 185.951 261.766 186.242C261.475 186.532 261.245 186.877 261.089 187.258C260.933 187.638 260.854 188.045 260.857 188.457L264.739 186.961C265.27 190.798 267.821 194.014 270.349 196.946C272.877 199.879 273.079 201.853 274.007 205.608C274.934 209.363 275.891 215.123 272.196 216.29C273.834 215.961 275.413 217.389 275.869 218.997C276.325 220.606 275.974 222.326 275.637 223.964C273.431 234.675 272.039 245.537 271.471 256.457C270.26 258.686 269.366 261.073 268.815 263.548L269.332 289.616C271.648 287.271 273.405 284.433 274.47 281.313C274.635 280.82 274.971 280.401 275.419 280.135C275.866 279.869 276.394 279.773 276.906 279.863C277.419 279.954 277.881 280.226 278.21 280.629C278.539 281.033 278.711 281.541 278.696 282.061C278.696 282.435 278.696 282.809 278.637 283.176L276.46 320.015L284.763 288.659C286.259 297.889 282.264 323.897 279.452 332.791C286.281 333.92 288.794 342.38 289.026 349.321C292.772 348.156 296.446 346.773 300.029 345.178C298.204 340.181 296.85 336.441 296.85 336.239ZM240.631 341.475C239.429 339.783 237.944 338.313 236.24 337.129C232.086 334.18 227.122 332.586 222.028 332.566L226.336 336.044C226.509 336.127 226.681 336.202 226.838 336.291C229.545 337.787 232.014 340.188 234.086 342.447C234.28 342.664 234.49 342.911 234.707 343.195C236.001 344.385 237.242 345.566 238.402 346.763L239.898 352.523C240.234 353.308 240.556 354.101 240.855 354.879C241.678 354.919 242.501 354.949 243.324 354.969C243.533 351.229 243.436 347.294 242.493 344.893C242.025 343.668 241.399 342.509 240.631 341.445V341.475Z" fill="white"/>
<path d="M240.459 354.834L238.379 346.734C223.105 331.026 195.055 316.619 192.624 294.837C189.483 266.87 185.182 268.007 185.182 261.05C186.855 257.622 188.293 254.083 189.483 250.458C190.231 248.162 190.635 244.789 191.053 242.021C191.257 240.608 191.987 239.323 193.096 238.423C194.205 237.523 195.612 237.075 197.037 237.166C199.027 237.292 200.928 238.034 202.475 239.291C205.31 241.692 206.746 245.424 207.098 249.127C207.45 252.83 206.881 256.547 206.275 260.22C209.267 265.89 210.98 272.936 212.259 279.197C213.576 273.961 215.625 257.916 210.24 247.145C201.181 228.998 191.263 211.585 183.454 188.561C182.81 186.418 182.707 184.149 183.155 181.957C184.972 175.097 191.981 176.182 195.25 179.885C196.111 180.861 196.817 181.963 197.344 183.153C201.084 191.292 208.736 203.716 214.144 210.829L232.784 235.513L235.028 233.763C235.028 233.763 236.038 203.095 235.537 202.609C235.036 202.123 232.029 182.51 232.029 182.51C232.029 182.51 230.383 178.86 228.379 174.2C227.788 172.895 227.483 171.48 227.483 170.048C227.483 168.617 227.788 167.201 228.379 165.897C231.879 158.746 239.18 162.075 240.676 165.897C242.172 169.719 246.66 177.199 246.66 177.199L254.985 199.968C254.671 205.115 257.625 230.547 257.625 230.547L260.617 229.178L265.442 214.218L261.799 198.966C261.799 198.966 253.826 190.17 255.157 185.008C256.488 179.847 263.295 181.358 263.295 181.358L276.916 197.635H280.918L290.388 209.603C292.937 217.308 294.238 225.371 294.24 233.486C294.243 238.817 293.678 244.133 292.557 249.344L290.388 259.457V324.78C290.388 324.78 296.865 335.252 296.865 336.239C296.865 336.441 298.219 340.181 300.044 345.163" stroke="#263238" stroke-miterlimit="10"/>
<path d="M203.545 216.919C204.756 215.593 206.264 214.572 207.945 213.939C209.625 213.306 211.432 213.079 213.217 213.276" stroke="#263238" stroke-miterlimit="10"/>
<path d="M197.336 185.691C195.972 185.462 194.575 185.506 193.228 185.822C191.881 186.138 190.61 186.719 189.49 187.531C189.49 187.531 185.563 183.612 186.4 180.41" stroke="#263238" stroke-miterlimit="10"/>
<path d="M283.251 254.983C281.082 251.639 278.988 247.047 279.564 243.112C280.7 235.393 284.216 226.514 282.638 218.877C281.64 214 280.628 209.123 279.601 204.246" stroke="#263238" stroke-miterlimit="10"/>
<path d="M241.221 172.27C240.464 172.815 239.569 173.138 238.638 173.202C237.707 173.266 236.777 173.069 235.952 172.632C235.127 172.196 234.441 171.538 233.969 170.733C233.498 169.928 233.261 169.007 233.285 168.074" stroke="#263238" stroke-miterlimit="10"/>
<path d="M235.432 219.836C235.252 222.469 235.604 234.856 235.432 237.489" stroke="#263238" stroke-miterlimit="10"/>
<path d="M250.953 242.441C254.379 246.181 253.878 255.21 251.462 260.169" stroke="#263238" stroke-miterlimit="10"/>
<path d="M224.488 252.918C226.333 256.516 229.12 259.546 232.552 261.685" stroke="#263238" stroke-miterlimit="10"/>
<path d="M272.923 247.977C273.483 251.793 272.649 255.683 270.574 258.935" stroke="#263238" stroke-miterlimit="10"/>
<path d="M287.5 259.711C287.657 262.701 286.804 265.658 285.076 268.103" stroke="#263238" stroke-miterlimit="10"/>
<path d="M267.513 187.253C266.613 186.838 265.61 186.7 264.631 186.856C263.653 187.012 262.742 187.455 262.015 188.128L260.078 185.57" stroke="#263238" stroke-miterlimit="10"/>
<path d="M251.387 198.787C250.062 198.004 248.502 197.717 246.985 197.975C245.467 198.234 244.091 199.023 243.1 200.2" stroke="#263238" stroke-miterlimit="10"/>
<path d="M282.249 219.834C281.412 218.438 280.191 217.311 278.733 216.588C277.275 215.864 275.64 215.573 274.021 215.749" stroke="#263238" stroke-miterlimit="10"/>
<path d="M292.789 234.869C292.733 233.851 292.332 232.882 291.653 232.122C290.973 231.362 290.054 230.856 289.049 230.688" stroke="#263238" stroke-miterlimit="10"/>
<path d="M212.161 280.453L208.803 281.949" stroke="#263238" stroke-miterlimit="10"/>
<path d="M213.03 283.152C212.479 285.75 212.467 288.433 212.993 291.036" stroke="#263238" stroke-miterlimit="10"/>
<path d="M190.971 257.07C189.16 258.504 187.613 260.243 186.4 262.209" stroke="#263238" stroke-miterlimit="10"/>
<path d="M191.793 246.839C194.254 245.082 198.181 249.024 200.447 247.011C201.345 246.211 201.42 244.82 201.195 243.638C200.971 242.456 200.567 241.259 200.739 240.062" stroke="#263238" stroke-miterlimit="10"/>
<path d="M244.176 283.812C244.243 285.069 244.288 286.326 244.295 287.553" stroke="#263238" stroke-miterlimit="10"/>
<path d="M240.646 262.312C242.15 267.745 243.191 273.295 243.758 278.903" stroke="#263238" stroke-miterlimit="10"/>
<path d="M236.314 251.574C237.579 254.402 238.701 257.267 239.71 260.169" stroke="#263238" stroke-miterlimit="10"/>
</svg>
