<svg width="24" height="24" viewBox="0 0 24 24" fill="none" xmlns="http://www.w3.org/2000/svg">
<g clip-path="url(#clip0_2194_34784)">
<mask id="mask0_2194_34784" style="mask-type:luminance" maskUnits="userSpaceOnUse" x="0" y="0" width="24" height="24">
<path d="M24 0H0V24H24V0Z" fill="white"/>
</mask>
<g mask="url(#mask0_2194_34784)">
<path d="M9 1H20C21.1 1 22 1.9 22 3V16C22 16.55 21.55 17 21 17C20.45 17 20 16.55 20 16V4C20 3.45 19.55 3 19 3H9C8.45 3 8 2.55 8 2C8 1.45 8.45 1 9 1ZM5 5H16C17.1 5 18 5.9 18 7V21C18 22.1 17.1 23 16 23H5C3.9 23 3 22.1 3 21V7C3 5.9 3.9 5 5 5ZM6 21H15C15.55 21 16 20.55 16 20V8C16 7.45 15.55 7 15 7H6C5.45 7 5 7.45 5 8V20C5 20.55 5.45 21 6 21Z" fill="#421695"/>
</g>
</g>
<defs>
<clipPath id="clip0_2194_34784">
<rect width="24" height="24" fill="white" transform="matrix(-1 0 0 1 24 0)"/>
</clipPath>
</defs>
</svg>
