<svg width="318" height="366" viewBox="0 0 318 366" fill="none" xmlns="http://www.w3.org/2000/svg">
<g clip-path="url(#clip0_2194_31154)">
<path d="M26.6573 119.423C49.1138 78.118 105.606 29.9003 183.113 49.9845C260.613 70.0687 312.975 112.557 304.396 186.479C295.817 260.402 250.732 321.822 153.605 323.62C56.4773 325.419 -22.5805 209.997 26.6573 119.423Z" fill="#8872CC"/>
<path opacity="0.7" d="M26.6573 119.423C49.1138 78.118 105.606 29.9003 183.113 49.9845C260.613 70.0687 312.975 112.557 304.396 186.479C295.817 260.402 250.732 321.822 153.605 323.62C56.4773 325.419 -22.5805 209.997 26.6573 119.423Z" fill="white"/>
<path d="M308.763 175.283L258.219 183.1C256.288 183.399 254.965 185.204 255.264 187.133L260.03 217.89C260.329 219.819 262.136 221.14 264.067 220.842L314.612 213.024C316.542 212.726 317.865 210.92 317.566 208.991L312.8 178.235C312.502 176.306 310.694 174.984 308.763 175.283Z" stroke="#2C1F55" stroke-linecap="round" stroke-linejoin="round"/>
<path d="M256.037 192.099L313.566 183.201" stroke="#2C1F55" stroke-linecap="round" stroke-linejoin="round"/>
<path d="M309.066 193.291L299.771 194.729L301.843 208.099L311.138 206.661L309.066 193.291Z" stroke="#2C1F55" stroke-linecap="round" stroke-linejoin="round"/>
<path d="M303.551 196.941C305.515 194.629 308.733 196.179 307.985 203.403L310.86 204.827L311.141 206.657L301.853 208.097L301.479 205.66L304.985 204.29C304.985 204.29 301.712 199.113 303.559 196.941H303.551Z" stroke="#2C1F55" stroke-linecap="round" stroke-linejoin="round"/>
<path d="M283.395 213.289C283.395 213.289 290.111 213.343 288.187 212.004C286.262 210.665 285.974 209.311 287.61 209.287C289.246 209.264 291.989 212.37 291.771 210.486C291.561 208.602 292.737 209.824 292.963 209.941C293.189 210.066 295.129 209.295 295.223 209.513C295.316 209.731 295.184 210.377 301.503 209.396" stroke="#2C1F55" stroke-linecap="round" stroke-linejoin="round"/>
<path d="M260.914 198.07L289.09 193.711" stroke="#2C1F55" stroke-linecap="round" stroke-linejoin="round"/>
<path d="M261.412 201.262L278.009 198.693" stroke="#2C1F55" stroke-linecap="round" stroke-linejoin="round"/>
<path d="M262.285 206.889L285.435 203.309" stroke="#2C1F55" stroke-linecap="round" stroke-linejoin="round"/>
<path d="M269.469 185.84L297.723 181.465" stroke="#2C1F55" stroke-linecap="round" stroke-linejoin="round"/>
<path d="M0.388672 166.123L63.5586 153.52L85.6178 259.328L18.4739 273.721L0.388672 166.123Z" stroke="#2C1F55" stroke-linecap="round" stroke-linejoin="round"/>
<path d="M15.9336 258.619L82.9449 246.498" stroke="#2C1F55" stroke-linecap="round" stroke-linejoin="round"/>
<path d="M75.0057 237.5L43.0039 243.401" stroke="#2C1F55" stroke-linecap="round" stroke-linejoin="round"/>
<path d="M70.2606 232.191L60.9102 233.569" stroke="#2C1F55" stroke-linecap="round" stroke-linejoin="round"/>
<path d="M71.685 221.385L23.9199 230.337" stroke="#2C1F55" stroke-linecap="round" stroke-linejoin="round"/>
<path d="M8.64844 215.275L74.0313 203.746" stroke="#2C1F55" stroke-linecap="round" stroke-linejoin="round"/>
<path d="M78.1222 255.902L38.4062 264.216" stroke="#2C1F55" stroke-linecap="round" stroke-linejoin="round"/>
<path d="M76.9372 252.555L58.2598 255.902" stroke="#2C1F55" stroke-linecap="round" stroke-linejoin="round"/>
<path d="M66.8397 196.771L34.0898 203.256" stroke="#2C1F55" stroke-linecap="round" stroke-linejoin="round"/>
<path d="M64.2519 189.508L53.8184 191.555" stroke="#2C1F55" stroke-linecap="round" stroke-linejoin="round"/>
<path d="M63.6363 184.463L15.9336 193.649" stroke="#2C1F55" stroke-linecap="round" stroke-linejoin="round"/>
<path d="M59.2962 159.91L46.4238 162.572" stroke="#2C1F55" stroke-linecap="round" stroke-linejoin="round"/>
<path d="M15.9337 169.057L4.82227 171.213" stroke="#2C1F55" stroke-linecap="round" stroke-linejoin="round"/>
<path d="M8.86719 177.333C9.31912 175.745 10.4568 174.421 11.9528 173.721" stroke="#2C1F55" stroke-linecap="round" stroke-linejoin="round"/>
<path d="M13.8068 184.464C11.0094 184.099 8.65625 181.779 8.65625 178.891" stroke="#2C1F55" stroke-linecap="round" stroke-linejoin="round"/>
<path d="M18.1391 183.141C17.3443 183.841 16.3625 184.301 15.3105 184.456" stroke="#2C1F55" stroke-linecap="round" stroke-linejoin="round"/>
<path d="M14.3516 173.191C18.6528 173.207 21.4735 178.22 19.1982 181.895" stroke="#2C1F55" stroke-linecap="round" stroke-linejoin="round"/>
<path d="M25.7144 174.655C24.6781 174.32 23.6495 173.946 22.582 173.713" stroke="#2C1F55" stroke-linecap="round" stroke-linejoin="round"/>
<path d="M34.5493 175.401C33.6688 177.496 28.7443 175.58 27.3027 175.152" stroke="#2C1F55" stroke-linecap="round" stroke-linejoin="round"/>
<path d="M26.1191 169.844C29.1892 170.576 32.2593 171.299 35.3293 172.031C35.1813 172.646 35.0644 173.261 34.9475 173.884" stroke="#2C1F55" stroke-linecap="round" stroke-linejoin="round"/>
<path d="M21.5527 172.031C22.5345 169.656 22.1527 168.901 24.5994 169.485" stroke="#2C1F55" stroke-linecap="round" stroke-linejoin="round"/>
<path d="M133.945 337.251L146.14 340.988L137.078 330.323C142.065 324.585 145.01 317.572 145.103 310.285" stroke="#2C1F55" stroke-linecap="round" stroke-linejoin="round"/>
<path d="M119.148 341.952C123.372 340.598 127.213 338.636 130.579 336.215" stroke="#2C1F55" stroke-linecap="round" stroke-linejoin="round"/>
<path d="M72.0918 319.301C75.6839 336.583 94.8055 347.24 114.808 343.09" stroke="#2C1F55" stroke-linecap="round" stroke-linejoin="round"/>
<path d="M75.0066 299.807C74.2352 301.27 73.5885 302.788 73.0586 304.337" stroke="#2C1F55" stroke-linecap="round" stroke-linejoin="round"/>
<path d="M144.518 304.291C140.926 287.009 121.805 276.352 101.802 280.501C92.1403 282.502 84.0366 287.601 78.6445 294.28" stroke="#2C1F55" stroke-linecap="round" stroke-linejoin="round"/>
<path d="M123.301 297.955C117.543 291.688 109.696 296.032 106.431 302.392C101.039 297.698 92.133 296.577 89.1253 304.54C84.0449 317.961 101.429 326.135 109.462 329.101C110.374 329.443 111.13 329.723 111.753 329.941C112.252 329.513 112.852 328.968 113.569 328.314C119.927 322.577 133.01 308.534 123.309 297.962L123.301 297.955Z" stroke="#2C1F55" stroke-linecap="round" stroke-linejoin="round"/>
<path d="M171.183 42.7676L159.409 37.8789L167.396 49.3612C161.879 54.5924 158.271 61.2871 157.477 68.5268" stroke="#2C1F55" stroke-linecap="round" stroke-linejoin="round"/>
<path d="M186.361 39.5059C182.029 40.4478 178.016 42.0358 174.432 44.1143" stroke="#2C1F55" stroke-linecap="round" stroke-linejoin="round"/>
<path d="M231.017 66.5809C229.108 49.0266 211.101 36.5869 190.795 38.7899" stroke="#2C1F55" stroke-linecap="round" stroke-linejoin="round"/>
<path d="M226.24 85.6993C227.152 84.3137 227.947 82.8735 228.617 81.3789" stroke="#2C1F55" stroke-linecap="round" stroke-linejoin="round"/>
<path d="M157.477 74.5527C159.386 92.107 177.393 104.547 197.699 102.344C207.517 101.277 216.065 96.9879 222.072 90.8614" stroke="#2C1F55" stroke-linecap="round" stroke-linejoin="round"/>
<path d="M202.797 85.3037C211.801 80.4889 215.192 69.2942 210.373 60.2995C205.553 51.3049 194.348 47.9164 185.345 52.7312C176.342 57.546 172.95 68.7408 177.769 77.7355C182.589 86.7301 193.794 90.1185 202.797 85.3037Z" stroke="#2C1F55" stroke-linecap="round" stroke-linejoin="round"/>
<path d="M187.055 71.3446L192.579 76.5603L201.813 60.6875" stroke="#2C1F55" stroke-linecap="round" stroke-linejoin="round"/>
<path opacity="0.2" d="M217.195 244.959C217.195 244.959 214.421 278.495 218.426 286.622C222.432 294.749 224.45 350.339 222.65 357.329C222.65 357.329 235.569 360.583 240.688 355.959C245.8 351.335 253.662 355.78 266.612 351.257C279.563 346.734 270.22 246.882 270.22 246.882L270.617 210.551L249.252 191.541L217.195 244.943V244.959Z" fill="black"/>
<path d="M234.416 261.088C234.299 261.384 234.174 261.602 234.034 261.734C231.275 264.342 219.502 267.238 209.388 269.324C201.011 271.06 193.772 272.236 193.772 272.236C193.772 272.236 188.225 226.174 188.225 221.332C188.225 216.49 179.279 138.1 179.279 138.1L200.723 137.173L229.218 135.943C229.218 135.943 229.39 138.037 229.678 141.696C231.501 165.034 237.992 251.895 234.416 261.088Z" fill="#8872CC"/>
<mask id="mask0_2194_31154" style="mask-type:luminance" maskUnits="userSpaceOnUse" x="179" y="135" width="57" height="138">
<path d="M234.416 261.088C234.299 261.384 234.174 261.602 234.034 261.734C231.275 264.342 219.502 267.238 209.388 269.324C201.011 271.06 193.772 272.236 193.772 272.236C193.772 272.236 188.225 226.174 188.225 221.332C188.225 216.49 179.279 138.1 179.279 138.1L200.723 137.173L229.218 135.943C229.218 135.943 229.39 138.037 229.678 141.696C231.501 165.034 237.992 251.895 234.416 261.088Z" fill="white"/>
</mask>
<g mask="url(#mask0_2194_31154)">
<path opacity="0.2" d="M234.415 261.088L209.387 266.233L199.935 268.172C197.372 265.657 195.416 265.611 195.416 265.611L194.668 258.565L193.444 247.037L182.676 145.603C185.029 143.992 186.167 140.466 186.167 140.466L200.582 139.944L225.555 139.033L229.677 141.696C231.501 165.034 237.991 251.894 234.415 261.088Z" fill="black"/>
<path d="M234.415 261.088L209.387 266.233L199.935 268.172C197.372 265.657 195.416 265.611 195.416 265.611L194.668 258.565L193.444 247.037L182.676 145.603C185.029 143.992 186.167 140.466 186.167 140.466L200.582 139.944L225.555 139.033L229.677 141.696C231.501 165.034 237.991 251.894 234.415 261.088Z" stroke="#2C1F55" stroke-linecap="round" stroke-linejoin="round"/>
<path d="M196.74 231.226L205.093 231.211L205.101 233.819L202.779 234.644L197.426 235.228L196.74 231.226Z" fill="#8872CC" stroke="#2C1F55" stroke-linecap="round" stroke-linejoin="round"/>
<path d="M197.254 236.597L203.394 236.387L204.968 237.134L204.882 240.598L197.721 240.676L197.254 236.597Z" fill="#8872CC" stroke="#2C1F55" stroke-linecap="round" stroke-linejoin="round"/>
<path d="M198.236 242.133L205.249 241.627L205.171 244.25L201.782 245.449L198.197 245.247L198.236 242.133Z" fill="#8872CC" stroke="#2C1F55" stroke-linecap="round" stroke-linejoin="round"/>
<path d="M198.657 246.555L204.321 246.843L204.836 248.291L204.01 249.886L198.945 250.213L198.072 247.746L198.657 246.555Z" fill="#8872CC" stroke="#2C1F55" stroke-linecap="round" stroke-linejoin="round"/>
<path d="M205.187 251.623C205.459 252.378 205.724 253.133 205.997 253.888C206.176 254.394 206.348 254.994 206.036 255.43C205.779 255.788 205.288 255.889 204.852 255.85C204.415 255.811 203.987 255.663 203.55 255.64C202.234 255.578 201.026 256.667 199.732 256.434C199.226 255.033 197.956 252.985 199.678 252.347C199.943 252.254 205.382 252.145 205.202 251.631L205.187 251.623Z" fill="#8872CC" stroke="#2C1F55" stroke-linecap="round" stroke-linejoin="round"/>
<path d="M205.163 257.998C205.288 258.535 205.381 259.08 205.428 259.633C205.49 260.341 205.436 261.182 204.852 261.587C204.54 261.797 204.15 261.844 203.768 261.875C202.265 262.007 200.768 262.147 199.265 262.28C199.226 262.28 199.163 259.968 199.226 259.726C199.491 258.714 199.304 258.8 200.262 258.387C201.781 257.741 203.605 258.769 205.163 257.998Z" fill="#8872CC" stroke="#2C1F55" stroke-linecap="round" stroke-linejoin="round"/>
<path d="M188.785 147.9C188.785 147.9 190.484 164.31 190.562 167.549" stroke="#2C1F55" stroke-linecap="round" stroke-linejoin="round"/>
<path d="M192.447 148.057L193.242 157.095" stroke="#2C1F55" stroke-linecap="round" stroke-linejoin="round"/>
<path d="M205.141 144.639L206.169 155.233L207.611 155.374L207.135 144.74L205.141 144.639Z" fill="#8872CC" stroke="#2C1F55" stroke-linecap="round" stroke-linejoin="round"/>
<path opacity="0.2" d="M234.415 261.088C234.298 261.384 234.174 261.602 234.033 261.734C231.275 264.342 219.501 267.238 209.387 269.324V262.334L194.668 258.566L192.447 257.998L193.445 247.037L197.255 205.141L200.582 139.945L200.722 137.173L229.218 135.943C229.218 135.943 229.389 138.037 229.678 141.696C231.501 165.034 237.992 251.895 234.415 261.088Z" fill="black"/>
</g>
<path d="M234.416 261.088C234.299 261.384 234.174 261.602 234.034 261.734C231.275 264.342 219.502 267.238 209.388 269.324C201.011 271.06 193.772 272.236 193.772 272.236C193.772 272.236 188.225 226.174 188.225 221.332C188.225 216.49 179.279 138.1 179.279 138.1L200.723 137.173L229.218 135.943C229.218 135.943 229.39 138.037 229.678 141.696C231.501 165.034 237.992 251.895 234.416 261.088Z" stroke="#2C1F55" stroke-linecap="round" stroke-linejoin="round"/>
<path d="M249.51 365.611C249.689 363.968 247.102 340.404 247.055 337.843C246.93 330.822 244.944 321.644 244.944 321.644C242.17 314.56 240.011 298.235 232.609 287.765C225.214 277.295 225.214 264.98 223.983 254.509C222.744 244.039 223.056 244.958 223.367 235.678C223.671 226.391 223.056 220.942 222.44 214.785C221.825 208.619 220.593 197.775 222.44 192.723C224.287 187.679 229.118 186.511 234.409 191.555C239.699 196.608 241.858 217.361 241.858 219.922C241.858 222.484 241.858 230.486 243.712 233.569C243.712 233.569 254.193 228.213 254.193 226.734C254.193 225.255 253.881 212.185 255.424 211.484L249.26 191.555L260.972 187.406C260.972 187.406 263.792 189.718 266.613 194.179C267.774 196.016 268.943 198.227 269.909 200.788C274.842 213.858 282.766 222.974 284.402 226.734C286.039 230.486 284.402 260.356 284.402 265.906C284.402 271.456 280.818 297.068 280.911 301.349C280.982 304.44 283.085 316.046 285.182 324.929C285.992 328.354 290.69 353.171 291.376 355.141L249.51 365.611Z" fill="white"/>
<path opacity="0.4" d="M258.735 210.207C258.657 211.881 260.66 225.224 260.66 225.224C262.047 228.548 254.473 239.882 254.473 239.882C252.837 240.809 252.128 246.507 252.128 246.507C247.001 245.37 235.258 233.577 235.258 233.577C235.258 233.577 233.848 238.411 232.305 250.376C230.762 262.333 240.627 290.762 244.834 310.387C249.042 330.012 247.055 337.851 247.055 337.851C246.931 330.829 244.944 321.651 244.944 321.651C242.17 314.567 240.011 298.243 232.609 287.773C225.214 277.303 225.214 264.987 223.983 254.517C222.744 244.047 223.056 244.965 223.367 235.686C223.671 226.399 223.056 220.95 222.44 214.792C221.825 208.627 220.593 197.783 222.44 192.731C224.287 187.687 229.118 186.519 234.409 191.563C239.699 196.615 241.858 217.369 241.858 219.93C241.858 222.491 241.858 230.494 243.712 233.577C243.712 233.577 254.193 228.221 254.193 226.742C254.193 225.263 253.881 212.192 255.424 211.492L249.26 191.563L260.972 187.414C260.972 187.414 263.792 189.726 266.613 194.187C262.811 201.777 258.782 209.172 258.735 210.215V210.207Z" fill="#8872CC"/>
<path opacity="0.4" d="M278.386 303.451C278.901 298.788 280.436 287.68 281.41 280.752C280.218 286.162 278.309 288.902 278.309 288.902C278.309 288.902 281.628 249.177 281.955 246.78C282.283 244.374 285.633 233.476 284.402 226.734C286.038 230.487 284.402 260.356 284.402 265.906C284.402 271.457 280.818 297.068 280.911 301.35C280.981 304.44 284.324 324.306 286.42 333.189C281.901 326.65 277.872 308.146 278.386 303.451Z" fill="#8872CC"/>
<path d="M291.376 355.141C288.914 348.057 281.005 305.631 280.912 301.349C280.818 297.068 284.402 271.449 284.402 265.898C284.402 260.348 286.039 230.486 284.402 226.726C282.766 222.974 274.849 213.85 269.917 200.78C266.613 192.03 260.98 187.398 260.98 187.398L249.268 191.555L255.432 211.476C253.889 212.177 254.201 225.247 254.201 226.726C254.201 228.205 243.72 233.561 243.72 233.561C241.874 230.478 241.874 222.476 241.874 219.915C241.874 217.354 239.715 196.608 234.424 191.555C229.134 186.503 224.303 187.679 222.456 192.723C220.609 197.768 221.84 208.619 222.456 214.777C223.071 220.934 223.687 226.384 223.383 235.671C223.071 244.958 222.768 244.031 223.999 254.502C225.23 264.972 225.23 277.287 232.632 287.765C240.027 298.235 242.185 314.56 244.959 321.644C244.959 321.644 250.203 359.453 249.525 365.611" stroke="#2C1F55" stroke-linecap="round" stroke-linejoin="round"/>
<path d="M243.705 233.568C243.705 233.568 245.552 242.194 249.713 246.506" stroke="#2C1F55" stroke-linecap="round" stroke-linejoin="round"/>
<path d="M244.834 237.5C244.834 237.5 252.649 239.874 255.883 240.03" stroke="#2C1F55" stroke-linecap="round" stroke-linejoin="round"/>
<path d="M254.186 226.734C254.186 226.734 259.733 224.173 263.279 225.714" stroke="#2C1F55" stroke-linecap="round" stroke-linejoin="round"/>
<path d="M255.424 211.483C255.424 211.483 259.741 211.086 260.668 208.93" stroke="#2C1F55" stroke-linecap="round" stroke-linejoin="round"/>
<path d="M234.035 289.961C234.035 289.961 242.318 300.237 244.788 305.476" stroke="#2C1F55" stroke-linecap="round" stroke-linejoin="round"/>
<path d="M282.236 244.957C280.849 253.115 279.002 275.441 278.387 279.451" stroke="#2C1F55" stroke-linecap="round" stroke-linejoin="round"/>
<path d="M284.892 229.561C285.126 236.956 283.318 240.801 283.318 240.801" stroke="#2C1F55" stroke-linecap="round" stroke-linejoin="round"/>
<path d="M221.161 126.088L278.308 141.128C278.308 141.128 258.212 202.011 254.106 209.57L247.295 262.637C247.295 262.637 210.798 261.034 194.014 255.966C194.014 255.966 204.619 200.688 205.195 193.323C205.764 185.967 221.161 126.08 221.161 126.08V126.088Z" fill="#8872CC"/>
<mask id="mask1_2194_31154" style="mask-type:luminance" maskUnits="userSpaceOnUse" x="194" y="126" width="85" height="137">
<path d="M221.161 126.088L278.308 141.128C278.308 141.128 258.212 202.011 254.106 209.57L247.295 262.637C247.295 262.637 210.798 261.034 194.014 255.966C194.014 255.966 204.619 200.688 205.195 193.323C205.764 185.967 221.161 126.08 221.161 126.08V126.088Z" fill="white"/>
</mask>
<g mask="url(#mask1_2194_31154)">
<path opacity="0.2" d="M208.872 190.062L221.464 136.278C221.464 136.278 226.88 133.593 228.976 131.141L269.907 142.763C269.907 142.763 270.032 146.772 272.37 149.341L251.713 208.807L246.703 252.642C246.703 252.642 240.041 253.18 239.402 258.107C239.402 258.107 217.802 259.275 203.317 255.453C203.317 255.453 201.61 250.136 199 246.773L208.865 190.054L208.872 190.062Z" fill="black"/>
<path d="M208.872 190.062L221.464 136.278C221.464 136.278 226.88 133.593 228.976 131.141L269.907 142.763C269.907 142.763 270.032 146.772 272.37 149.341L251.713 208.807L246.703 252.642C246.703 252.642 240.041 253.18 239.402 258.107C239.402 258.107 217.802 259.275 203.317 255.453C203.317 255.453 201.61 250.136 199 246.773L208.865 190.054L208.872 190.062Z" stroke="#2C1F55" stroke-linecap="round" stroke-linejoin="round"/>
<path d="M219.352 192.856C219.352 192.856 223.069 178.836 236.159 181.366C249.25 183.896 241.855 201.139 241.855 201.139C241.855 201.139 241.933 215.073 231.313 213.15C222.11 211.485 217.193 206.44 219.352 192.856Z" fill="#8872CC" stroke="#2C1F55" stroke-linecap="round" stroke-linejoin="round"/>
<path d="M226.444 141.393C226.444 141.393 222.486 157.405 221.457 160.488" stroke="#2C1F55" stroke-linecap="round" stroke-linejoin="round"/>
<path d="M229.834 142.779L227.52 151.56" stroke="#2C1F55" stroke-linecap="round" stroke-linejoin="round"/>
<path d="M258.734 148.936L266.612 151.707L265.747 154.175H263.277L258.041 152.945L258.734 148.936Z" fill="#8872CC" stroke="#2C1F55" stroke-linecap="round" stroke-linejoin="round"/>
<path d="M257.425 154.174L263.277 156.019L264.516 157.249L263.277 160.487L256.498 158.175L257.425 154.174Z" fill="#8872CC" stroke="#2C1F55" stroke-linecap="round" stroke-linejoin="round"/>
<path d="M256.497 159.717L263.276 161.585L262.326 164.029H258.733L255.422 162.644L256.497 159.717Z" fill="#8872CC" stroke="#2C1F55" stroke-linecap="round" stroke-linejoin="round"/>
<path d="M255.423 164.029L260.66 166.186V167.719L259.35 168.957L254.473 167.571V164.948L255.423 164.029Z" fill="#8872CC" stroke="#2C1F55" stroke-linecap="round" stroke-linejoin="round"/>
<path d="M259.88 170.982C259.88 171.784 259.88 172.586 259.88 173.388C259.88 173.925 259.841 174.54 259.405 174.851C259.047 175.1 258.548 175.03 258.143 174.851C257.745 174.672 257.395 174.384 256.982 174.221C255.766 173.73 254.254 174.345 253.117 173.691C253.109 172.204 252.595 169.846 254.434 169.822C254.714 169.822 259.88 171.535 259.88 170.982Z" fill="#8872CC" stroke="#2C1F55" stroke-linecap="round" stroke-linejoin="round"/>
<path d="M257.729 176.983C257.667 177.535 257.573 178.072 257.433 178.61C257.262 179.302 256.927 180.073 256.233 180.26C255.867 180.361 255.485 180.26 255.119 180.174C253.662 179.801 252.197 179.427 250.74 179.053C250.701 179.046 251.418 176.835 251.55 176.632C252.135 175.768 251.932 175.784 252.976 175.721C254.628 175.62 255.999 177.193 257.729 176.99V176.983Z" fill="#8872CC" stroke="#2C1F55" stroke-linecap="round" stroke-linejoin="round"/>
<path d="M242.931 143.861L240.312 154.176L241.622 154.791L244.785 144.624L242.931 143.861Z" fill="#8872CC" stroke="#2C1F55" stroke-linecap="round" stroke-linejoin="round"/>
<path d="M210.032 213.135L218.12 215.221L217.466 217.751L215.011 217.961L209.682 217.183L210.032 213.135Z" fill="#8872CC" stroke="#2C1F55" stroke-linecap="round" stroke-linejoin="round"/>
<path d="M209.176 218.459L215.168 219.798L216.501 220.919L215.55 224.251L208.6 222.53L209.176 218.459Z" fill="#8872CC" stroke="#2C1F55" stroke-linecap="round" stroke-linejoin="round"/>
<path d="M208.732 224.064L215.644 225.341L214.903 227.856L211.327 228.167L207.906 227.069L208.732 224.064Z" fill="#8872CC" stroke="#2C1F55" stroke-linecap="round" stroke-linejoin="round"/>
<path d="M208.023 228.447L213.431 230.152L213.563 231.686L212.363 233.025L207.384 232.059L207.158 229.451L208.023 228.447Z" fill="#8872CC" stroke="#2C1F55" stroke-linecap="round" stroke-linejoin="round"/>
<path d="M213.064 234.994C213.134 235.788 213.204 236.59 213.274 237.384C213.321 237.913 213.337 238.536 212.924 238.879C212.589 239.159 212.082 239.136 211.669 238.988C211.256 238.84 210.882 238.591 210.461 238.458C209.207 238.069 207.758 238.816 206.565 238.264C206.425 236.785 205.716 234.473 207.539 234.301C207.82 234.27 213.111 235.539 213.064 234.994Z" fill="#8872CC" stroke="#2C1F55" stroke-linecap="round" stroke-linejoin="round"/>
<path d="M211.435 241.159C211.42 241.711 211.373 242.264 211.28 242.809C211.163 243.51 210.898 244.311 210.228 244.553C209.877 244.685 209.48 244.623 209.113 244.553C207.625 244.304 206.137 244.062 204.656 243.813C204.617 243.813 205.139 241.548 205.256 241.338C205.771 240.427 205.568 240.458 206.597 240.302C208.233 240.053 209.737 241.509 211.443 241.159H211.435Z" fill="#8872CC" stroke="#2C1F55" stroke-linecap="round" stroke-linejoin="round"/>
<path d="M243.703 248.719C243.703 248.719 245.55 228.028 245.55 225.98" stroke="#2C1F55" stroke-linecap="round" stroke-linejoin="round"/>
<path d="M240.01 247.793C240.01 247.793 240.781 237.042 240.937 235.182" stroke="#2C1F55" stroke-linecap="round" stroke-linejoin="round"/>
<path d="M225.556 240.031L223.055 252.261H225.556L227.371 240.031H225.556Z" fill="#8872CC" stroke="#2C1F55" stroke-linecap="round" stroke-linejoin="round"/>
<path opacity="0.2" d="M254.268 209.267C248.861 208.138 244.037 206.48 240.469 204.09C240.469 204.09 243.056 211.517 252.227 224.175L247.294 262.646C247.294 262.646 223.474 261.603 205.475 258.528C211.007 242.959 221.043 213.455 219.866 207.609C218.254 199.583 223.949 190.109 223.949 190.109C241.957 186.871 259.419 173.271 271.403 161.773C265.302 179.818 256.972 203.943 254.268 209.267Z" fill="black"/>
</g>
<path d="M221.161 126.088L278.308 141.128C278.308 141.128 258.212 202.011 254.106 209.57L247.295 262.637C247.295 262.637 210.798 261.034 194.014 255.966C194.014 255.966 204.619 200.688 205.195 193.323C205.764 185.967 221.161 126.08 221.161 126.08V126.088Z" stroke="#2C1F55" stroke-linecap="round" stroke-linejoin="round"/>
<path d="M252.837 247.278L244.788 305.476C242.996 301.669 238.11 295.177 235.585 291.931C234.65 290.716 234.035 289.961 234.035 289.961L232.609 287.766C225.214 277.296 225.214 264.981 223.983 254.51C222.744 244.04 223.056 244.959 223.367 235.679C223.671 226.392 223.056 220.943 222.44 214.786C221.825 208.62 220.593 197.776 222.44 192.724C223.344 190.249 224.973 188.707 227.014 188.38C229.134 188.03 231.713 188.987 234.409 191.556C239.699 196.609 241.858 217.362 241.858 219.923C241.858 222.484 241.858 230.487 243.712 233.57C243.712 233.57 248.676 242.966 252.837 247.278Z" fill="white"/>
<path opacity="0.4" d="M231.993 283.615C233.676 285.764 234.822 288.862 235.585 291.929C234.65 290.715 234.035 289.96 234.035 289.96L232.609 287.765C225.214 277.294 225.214 264.979 223.983 254.509C222.744 244.039 223.056 244.957 223.367 235.678C223.671 226.391 223.056 220.942 222.44 214.784C221.825 208.619 220.593 197.775 222.44 192.723C223.344 190.247 224.973 188.706 227.014 188.379C230.941 189.484 234.791 193.447 236.162 200.227C238.468 211.608 227.957 202.415 225.518 212.06C223.087 221.697 226.624 224.305 228.082 226.734C229.531 229.162 227.676 234.51 225.518 241.711C223.367 248.92 227.373 277.707 231.993 283.615Z" fill="#8872CC"/>
<path d="M252.837 247.278C248.676 242.965 243.712 233.561 243.712 233.561C241.866 230.479 241.866 222.476 241.866 219.915C241.866 217.354 239.707 196.608 234.417 191.556C229.126 186.503 224.295 187.679 222.448 192.723C220.601 197.768 221.832 208.619 222.448 214.777C223.064 220.935 223.679 226.384 223.375 235.671C223.064 244.958 222.76 244.032 223.991 254.502C225.222 264.972 225.222 277.287 232.624 287.765L234.05 289.961C234.05 289.961 242.333 300.236 244.803 305.475" stroke="#2C1F55" stroke-linecap="round" stroke-linejoin="round"/>
<path d="M225.557 222.647C225.557 222.647 232.632 218.997 236.169 219.308" stroke="#2C1F55" stroke-linecap="round" stroke-linejoin="round"/>
<path opacity="0.2" d="M117.628 122.816C117.628 122.816 99.7456 103.152 98.5145 101.922C97.2834 100.692 96.3561 79.7516 92.9666 70.5113C89.5771 61.271 87.9174 7.07472 87.9174 7.07472C87.9174 7.07472 84.6915 3.07345 75.5748 5.22978C66.4581 7.38611 57.5207 3.38483 47.3443 9.23105C37.1757 15.0851 56.8973 98.8472 56.8973 98.8472L76.915 162.58L117.628 122.824V122.816Z" fill="black"/>
<path d="M129.909 122.957C129.909 122.957 121.899 174.078 113.57 180.851C108.746 184.782 101.227 186.534 94.5571 186.292C89.726 186.121 85.3313 184.907 82.7444 182.704C76.5809 177.465 67.9473 174.693 63.6384 171.307C59.3216 167.921 59.3216 155.909 56.5476 145.742C53.7737 135.584 49.7608 135.272 48.8413 125.113C47.9141 114.947 44.2129 83.8472 37.5117 75.2219C30.8106 66.5966 30.6548 59.824 27.8808 51.043C25.1068 42.262 4.82422 10.5086 4.82422 10.5086L54.2879 0.388672C54.2879 0.388672 59.1502 20.4963 64.3552 36.8984C66.8253 44.683 69.3733 51.6424 71.5083 55.2077C78.1471 66.293 82.1288 76.7632 82.1288 76.7632C87.7235 82.6172 90.7858 95.5864 91.713 106.944L104.944 114.332C115.112 117.103 129.909 122.957 129.909 122.957Z" fill="white"/>
<path opacity="0.4" d="M129.909 122.957C129.909 122.957 121.899 174.078 113.569 180.851C108.746 184.782 101.226 186.534 94.5565 186.292C78.7387 182.385 74.4842 173.588 72.3414 171.455C69.4895 168.614 65.7416 151.301 67.7987 141.227C69.848 131.154 68.3753 127.425 66.6766 122.506C62.9131 111.607 74.3907 105.738 75.5751 101.612C76.7595 97.4936 76.3309 74.4123 71.1882 66.908C68.4454 62.9145 61.378 42.3321 64.3546 36.8984C66.8247 44.683 69.3727 51.6424 71.5077 55.2078C78.1465 66.293 82.1282 76.7633 82.1282 76.7633C87.7229 82.6173 90.7851 95.5864 91.7124 106.944L104.943 114.332C115.112 117.103 129.909 122.957 129.909 122.957Z" fill="#8872CC"/>
<path d="M69.5057 119.369C69.5057 119.369 66.724 122.646 64.2539 122.646" stroke="#2C1F55" stroke-linecap="round" stroke-linejoin="round"/>
<path d="M75.5752 130.445C75.5752 130.445 72.5753 136.813 67.791 138.199" stroke="#2C1F55" stroke-linecap="round" stroke-linejoin="round"/>
<path d="M70.2617 167.765C70.2617 167.765 77.0408 164.838 78.1239 159.91" stroke="#2C1F55" stroke-linecap="round" stroke-linejoin="round"/>
<path d="M104.945 114.332C104.945 114.332 103.246 116.488 103.246 118.185" stroke="#2C1F55" stroke-linecap="round" stroke-linejoin="round"/>
<path d="M54.2879 0.388672C54.2879 0.388672 64.8695 44.1147 71.5083 55.2077C78.1471 66.293 82.1288 76.7632 82.1288 76.7632C87.7235 82.6172 90.7858 95.5941 91.713 106.952L104.944 114.332C115.112 117.103 129.909 122.957 129.909 122.957C129.909 122.957 121.899 174.078 113.57 180.851C105.248 187.631 88.9157 187.935 82.7444 182.704C76.5809 177.465 67.9473 174.693 63.6384 171.307C59.3216 167.921 59.3216 155.909 56.5476 145.742C53.7737 135.584 49.7608 135.272 48.8413 125.113C47.9141 114.947 44.2129 83.8472 37.5117 75.2219C30.8106 66.5966 30.6548 59.824 27.8808 51.043C25.1068 42.262 4.82422 10.5086 4.82422 10.5086" stroke="#2C1F55" stroke-linecap="round" stroke-linejoin="round"/>
<path d="M148.65 119.643L66.8418 245.457L86.1504 247.606L144.817 250.042L150.824 138.139L148.65 119.643Z" fill="#2C1F55" stroke="#2C1F55" stroke-linecap="round" stroke-linejoin="round"/>
<path d="M148.65 119.642L141.092 247.893L66.8418 245.456L72.7014 147.184L74.5247 116.668L106.877 117.968L148.65 119.642Z" fill="#757575"/>
<mask id="mask2_2194_31154" style="mask-type:luminance" maskUnits="userSpaceOnUse" x="66" y="116" width="83" height="132">
<path d="M148.65 119.642L141.092 247.893L66.8418 245.456L72.7014 147.184L74.5247 116.668L106.877 117.968L148.65 119.642Z" fill="white"/>
</mask>
<g mask="url(#mask2_2194_31154)">
<path d="M129.98 233.125C134.972 233.125 139.019 229.082 139.019 224.095C139.019 219.107 134.972 215.064 129.98 215.064C124.988 215.064 120.941 219.107 120.941 224.095C120.941 229.082 124.988 233.125 129.98 233.125Z" fill="#BFBFBF" stroke="#2C1F55" stroke-miterlimit="10"/>
<path d="M127.432 218.1L133.556 218.901" stroke="#2C1F55" stroke-linecap="round" stroke-linejoin="round"/>
<path d="M125.787 219.588L134.989 220.483" stroke="#2C1F55" stroke-linecap="round" stroke-linejoin="round"/>
<path d="M124.768 228.648L133.97 229.544" stroke="#2C1F55" stroke-linecap="round" stroke-linejoin="round"/>
<path d="M128.797 221.634C129.584 221.72 129.802 221.354 130.012 220.934L130.698 221.004L130.004 227.504L128.984 227.395L129.514 222.436L128.727 222.35L128.804 221.626L128.797 221.634Z" fill="#2C1F55"/>
<path d="M132.202 221.906C132.607 221.953 132.786 222.218 132.748 222.638V222.724L132.342 222.685L132.358 222.576C132.381 222.389 132.311 222.303 132.179 222.295C132.046 222.28 131.961 222.342 131.945 222.537C131.922 222.731 131.992 222.879 132.241 223.152C132.561 223.494 132.646 223.728 132.615 224.031C132.568 224.46 132.335 224.678 131.922 224.631C131.509 224.584 131.322 224.319 131.368 223.899L131.384 223.736L131.781 223.775L131.758 223.961C131.735 224.148 131.812 224.226 131.945 224.242C132.077 224.257 132.171 224.195 132.187 224.008C132.21 223.813 132.14 223.666 131.89 223.393C131.571 223.051 131.485 222.817 131.524 222.513C131.571 222.085 131.805 221.867 132.21 221.914L132.202 221.906Z" fill="#2C1F55"/>
<path d="M132.933 222.016L134.227 222.156L134.188 222.537L133.752 222.49L133.51 224.764L133.089 224.717L133.331 222.444L132.895 222.397L132.933 222.016Z" fill="#2C1F55"/>
<path d="M111.032 125.339L96.5369 122.179C96.1627 122.097 95.7932 122.334 95.7115 122.708L93.7396 131.736C93.6579 132.11 93.8951 132.479 94.2693 132.561L108.764 135.721C109.138 135.802 109.508 135.565 109.59 135.191L111.562 126.164C111.643 125.79 111.406 125.421 111.032 125.339Z" fill="white" stroke="#2C1F55" stroke-linecap="round" stroke-linejoin="round"/>
<path d="M99.0536 131.077C99.0536 131.077 99.0303 131.046 98.9991 131.023C98.9601 130.992 98.9913 130.929 98.9601 130.891C98.9523 130.875 98.929 130.867 98.9134 130.859C98.8744 130.828 98.851 130.782 98.8277 130.735C98.8277 130.719 98.8121 130.704 98.8199 130.688C98.8199 130.657 98.8588 130.649 98.8822 130.634C98.9212 130.61 98.9445 130.571 98.9523 130.532C98.9523 130.517 98.9523 130.501 98.9679 130.494C98.9835 130.486 98.9991 130.486 99.0147 130.478C99.0225 130.47 99.0225 130.455 99.0225 130.447C99.038 130.299 98.929 130.19 98.8354 130.081C98.6095 129.801 98.5627 129.653 98.6017 129.474C98.6407 129.287 98.7342 129.232 98.8588 129.264C98.9913 129.295 99.0458 129.38 99.0069 129.567L98.9835 129.676L99.3731 129.762L99.3887 129.684C99.4666 129.334 99.3653 129.077 99.0926 128.952L99.1315 128.758L98.7965 128.688L98.7575 128.882C98.4536 128.882 98.2666 129.077 98.1887 129.427C98.1264 129.723 98.1887 129.956 98.4692 130.291C98.6952 130.564 98.7419 130.719 98.703 130.898C98.664 131.085 98.5627 131.132 98.4381 131.109C98.3056 131.077 98.2433 130.992 98.2822 130.813L98.329 130.61L97.9394 130.525L97.9004 130.704C97.8225 131.054 97.9238 131.319 98.2043 131.435L98.1653 131.622L98.5004 131.692L98.5394 131.506C98.5394 131.506 98.7264 131.482 98.7419 131.474C98.8043 131.451 98.8588 131.42 98.9056 131.373C98.9523 131.326 98.9991 131.272 99.0302 131.21C99.0614 131.155 99.0692 131.132 99.0536 131.109V131.077Z" fill="#2C1F55"/>
<path d="M101.22 130.953C101.22 130.89 101.197 130.828 101.173 130.774C101.166 130.742 101.15 130.711 101.158 130.688C101.166 130.665 101.189 130.649 101.212 130.626C101.423 130.439 101.166 130.19 100.971 130.151C100.807 130.112 100.675 130.151 100.566 130.26L100.737 129.645L101.454 129.801L101.532 129.427L100.457 129.193C100.441 129.24 100.41 129.31 100.41 129.357C100.41 129.411 100.472 129.427 100.472 129.489C100.472 129.52 100.457 129.544 100.464 129.575C100.464 129.622 100.511 129.653 100.55 129.684C100.589 129.715 100.628 129.754 100.62 129.801C100.62 129.824 100.605 129.839 100.597 129.855C100.558 129.925 100.511 129.995 100.441 130.019C100.418 130.034 100.379 130.042 100.371 130.065C100.371 130.081 100.371 130.096 100.371 130.112C100.371 130.166 100.316 130.205 100.27 130.236C100.114 130.338 100.106 130.517 100.059 130.688L100.449 130.774L100.464 130.696C100.503 130.509 100.605 130.454 100.729 130.486C100.854 130.517 100.924 130.602 100.885 130.789L100.761 131.357C100.722 131.544 100.62 131.591 100.496 131.568C100.363 131.537 100.301 131.451 100.34 131.272L100.394 131.031L100.005 130.945L99.9579 131.163C99.8644 131.575 100.02 131.863 100.425 131.949C100.831 132.035 101.088 131.848 101.181 131.428C101.212 131.272 101.251 131.116 101.236 130.96L101.22 130.953Z" fill="#2C1F55"/>
<path d="M106.308 132.043C106.308 131.98 106.285 131.918 106.261 131.863C106.254 131.832 106.238 131.801 106.246 131.778C106.254 131.754 106.277 131.739 106.3 131.716C106.511 131.529 106.254 131.28 106.059 131.241C105.895 131.202 105.763 131.241 105.654 131.35L105.825 130.735L106.542 130.89L106.62 130.517L105.545 130.283C105.529 130.33 105.498 130.4 105.498 130.447C105.498 130.501 105.56 130.517 105.56 130.579C105.56 130.61 105.545 130.634 105.552 130.665C105.552 130.711 105.599 130.742 105.638 130.774C105.677 130.805 105.716 130.844 105.708 130.89C105.708 130.906 105.693 130.929 105.685 130.945C105.646 131.015 105.599 131.085 105.529 131.108C105.506 131.124 105.467 131.132 105.459 131.155C105.459 131.171 105.459 131.186 105.459 131.202C105.459 131.256 105.404 131.295 105.358 131.326C105.202 131.428 105.194 131.607 105.147 131.778L105.537 131.863L105.552 131.786C105.591 131.599 105.693 131.544 105.817 131.575C105.95 131.607 106.012 131.692 105.973 131.879L105.848 132.447C105.809 132.634 105.708 132.681 105.583 132.658C105.451 132.626 105.389 132.541 105.428 132.362L105.482 132.12L105.093 132.035L105.046 132.253C104.952 132.665 105.108 132.953 105.513 133.039C105.919 133.125 106.176 132.938 106.269 132.517C106.3 132.362 106.339 132.206 106.324 132.05L106.308 132.043Z" fill="#2C1F55"/>
<path d="M102.109 130.182C102.148 129.995 102.249 129.941 102.374 129.972C102.46 129.988 102.506 130.05 102.522 130.136C102.561 130.151 102.608 130.159 102.654 130.167C102.654 130.167 102.67 130.167 102.678 130.175C102.686 130.182 102.686 130.198 102.686 130.206C102.686 130.252 102.725 130.291 102.756 130.315C102.81 130.354 102.873 130.369 102.927 130.408C103.06 130.027 102.841 129.676 102.46 129.598C102.054 129.513 101.79 129.7 101.696 130.12C101.688 130.167 101.673 130.221 101.665 130.268C101.642 130.392 101.688 130.346 101.79 130.4C101.836 130.424 101.953 130.509 101.844 130.556C101.829 130.556 101.821 130.556 101.805 130.564C101.797 130.564 101.782 130.587 101.79 130.595C101.813 130.603 101.844 130.618 101.867 130.634C101.891 130.657 101.899 130.688 101.891 130.712C101.883 130.735 101.86 130.751 101.852 130.774C101.852 130.797 101.852 130.828 101.829 130.836C101.821 130.836 101.805 130.836 101.797 130.844C101.782 130.852 101.743 130.945 101.727 130.969C101.704 131 101.673 131.039 101.634 131.062C101.525 131.116 101.486 131.078 101.455 131.218C101.439 131.303 101.416 131.381 101.4 131.467C101.306 131.879 101.478 132.167 101.875 132.253C102.28 132.339 102.545 132.152 102.639 131.731L102.756 131.187C102.756 131.187 102.725 131.187 102.717 131.179C102.623 131.14 102.538 131.085 102.452 131.031C102.429 131.015 102.405 130.984 102.374 130.969L102.218 131.669C102.179 131.856 102.078 131.91 101.953 131.879C101.829 131.848 101.758 131.763 101.797 131.576C101.797 131.576 102.031 130.525 102.023 130.517C102.023 130.447 102.039 130.385 102.07 130.33L102.101 130.175L102.109 130.182Z" fill="#2C1F55"/>
<path d="M104.026 131.466C104.026 131.466 104.049 131.443 104.057 131.427C104.073 131.388 104.057 131.349 104.096 131.295C104.158 131.31 104.205 131.31 104.267 131.31L104.4 130.711C104.493 130.298 104.322 130.01 103.925 129.925C103.519 129.839 103.254 130.026 103.161 130.446L103.138 130.555C103.192 130.602 103.231 130.68 103.278 130.719C103.325 130.758 103.418 130.75 103.402 130.851C103.395 130.898 103.356 130.952 103.387 130.999C103.402 131.022 103.434 131.03 103.449 131.053C103.465 131.085 103.449 131.116 103.426 131.139C103.402 131.162 103.371 131.178 103.364 131.209C103.34 131.256 103.364 131.318 103.317 131.341C103.247 131.373 103.169 131.24 103.083 131.256C103.013 131.264 102.982 131.326 102.958 131.388C102.912 131.513 102.896 131.661 102.873 131.793C102.779 132.206 102.951 132.494 103.348 132.579C103.527 132.618 103.722 132.603 103.87 132.494C103.94 132.439 103.995 132.361 104.041 132.276C104.104 132.143 104.104 132.104 104.018 131.988C104.018 131.98 104.002 131.964 103.987 131.964C103.971 131.964 103.956 131.98 103.948 131.988C103.94 131.995 103.909 132.003 103.909 131.988C103.893 131.925 103.87 131.863 103.854 131.801C103.854 131.793 103.854 131.777 103.854 131.77C103.854 131.746 103.886 131.738 103.909 131.723C103.971 131.676 103.94 131.575 103.987 131.513C104.002 131.497 104.026 131.482 104.041 131.466H104.026ZM103.691 131.995C103.652 132.182 103.551 132.237 103.426 132.206C103.293 132.174 103.231 132.089 103.27 131.902L103.574 130.501C103.613 130.314 103.714 130.259 103.839 130.291C103.971 130.322 104.034 130.407 103.995 130.594L103.691 131.995Z" fill="#2C1F55"/>
<path d="M104.717 132.431L104.632 132.828L104.234 132.743L104.32 132.346L104.717 132.431Z" fill="#2C1F55"/>
<path d="M107.976 131.739C108.023 131.7 108.031 131.552 108.038 131.498C108.132 131.085 107.961 130.797 107.563 130.712C107.158 130.626 106.893 130.813 106.8 131.233C106.761 131.405 106.729 131.576 106.683 131.747C106.784 131.841 106.667 131.988 106.722 132.097C106.729 132.113 106.745 132.129 106.745 132.152C106.745 132.214 106.628 132.222 106.628 132.284C106.628 132.292 106.628 132.308 106.628 132.315C106.651 132.417 106.558 132.409 106.519 132.455C106.496 132.487 106.488 132.541 106.48 132.58C106.387 132.993 106.558 133.281 106.955 133.366C107.361 133.452 107.625 133.265 107.719 132.845C107.75 132.705 107.781 132.564 107.812 132.417C107.836 132.308 107.953 132.02 107.836 131.926C107.812 131.911 107.774 131.903 107.758 131.872C107.735 131.841 107.742 131.794 107.758 131.755C107.805 131.638 107.867 131.77 107.953 131.724L107.976 131.739ZM107.501 132.424C107.47 132.471 107.423 132.487 107.384 132.549C107.345 132.611 107.345 132.712 107.329 132.79C107.29 132.977 107.189 133.032 107.064 133C106.94 132.969 106.87 132.884 106.909 132.697C106.924 132.642 106.987 132.487 106.963 132.44C106.948 132.401 106.885 132.409 106.862 132.354C106.831 132.284 106.854 132.175 106.862 132.105C106.862 132.09 106.87 132.066 106.862 132.051C106.862 132.012 106.823 131.981 106.838 131.949C106.838 131.934 106.854 131.934 106.87 131.918C106.909 131.879 106.885 131.825 106.893 131.747C106.901 131.747 106.916 131.747 106.924 131.747C107.174 131.841 107.166 131.459 107.197 131.296C107.236 131.109 107.337 131.054 107.462 131.085C107.594 131.117 107.657 131.202 107.618 131.389C107.587 131.537 107.509 131.732 107.516 131.879C107.587 131.879 107.641 131.934 107.641 132.004C107.641 132.051 107.625 132.097 107.641 132.136C107.657 132.167 107.688 132.199 107.672 132.23C107.657 132.253 107.625 132.261 107.594 132.269C107.548 132.284 107.516 132.323 107.509 132.37C107.509 132.393 107.493 132.417 107.485 132.424H107.501Z" fill="#2C1F55"/>
<path d="M103.619 126.072C104.5 126.267 105.372 126.454 106.253 126.648" stroke="#2C1F55" stroke-linecap="round" stroke-linejoin="round"/>
<path d="M97.6348 124.773C99.201 125.116 100.775 125.458 102.341 125.801" stroke="#2C1F55" stroke-linecap="round" stroke-linejoin="round"/>
<path d="M97.2363 126.578L100.33 127.248" stroke="#2C1F55" stroke-linecap="round" stroke-linejoin="round"/>
<path opacity="0.4" d="M70.2617 244.32C70.2617 244.32 75.1941 242.825 82.7991 242.638C90.4041 242.451 95.2507 243.891 101.5 240.809C107.749 237.726 111.778 243.269 117.738 240.194C123.699 237.111 126.473 232.168 129.91 232.285C133.354 232.394 138.489 177.255 140.133 167.766C141.777 158.276 145.299 131.824 146.507 126.453L139.728 246.001L70.2695 244.32H70.2617Z" fill="white"/>
<path d="M70.5734 220.795L89.5781 243.892L69.5059 242.638L70.5734 220.795Z" fill="#8872CC" stroke="#2C1F55" stroke-linecap="round" stroke-linejoin="round"/>
<path d="M121.01 175.091L120.706 183.88C120.527 189.018 116.171 193.066 111.036 192.887L101.998 192.568C96.8549 192.389 92.8031 188.037 92.9823 182.907L93.3797 171.464C93.5589 166.326 97.9146 162.278 103.05 162.457L112.088 162.776C112.338 162.784 112.587 162.799 112.829 162.831C111.496 164.131 110.639 165.929 110.569 167.929C110.421 172.071 113.662 175.535 117.808 175.683C118.945 175.722 120.036 175.504 121.018 175.083L121.01 175.091Z" fill="#8872CC" stroke="#2C1F55" stroke-linecap="round" stroke-linejoin="round"/>
<path d="M122.631 167.532C122.545 169.891 120.566 171.736 118.205 171.65C115.844 171.564 113.997 169.587 114.083 167.228C114.169 164.87 116.148 163.025 118.509 163.11C120.87 163.196 122.717 165.173 122.631 167.532Z" fill="#8872CC" stroke="#2C1F55" stroke-linecap="round" stroke-linejoin="round"/>
<path opacity="0.4" d="M95.5469 183.997L108.832 172.655C108.832 172.655 107.149 166.567 108.832 164.644L102.451 164.629C99.2637 164.629 96.6222 167.097 96.4196 170.273L95.5469 183.989V183.997Z" fill="white"/>
<path opacity="0.4" d="M116.554 167.766L119.398 164.629C119.398 164.629 117.629 163.438 116.554 164.629C115.479 165.82 116.554 167.766 116.554 167.766Z" fill="white"/>
<path d="M115.168 235.578L136.588 236.504" stroke="#2C1F55" stroke-linecap="round" stroke-linejoin="round"/>
<path d="M107.75 237.734L136.588 239.276" stroke="#2C1F55" stroke-linecap="round" stroke-linejoin="round"/>
<path d="M129.037 243.891H136.588" stroke="#2C1F55" stroke-linecap="round" stroke-linejoin="round"/>
<path opacity="0.2" d="M102.786 165.29C91.7371 170.6 79.7685 152.002 75.5764 149.441C74.5713 148.826 73.5973 148.032 72.7012 147.184L74.5245 116.668L106.877 117.968C106.667 122.514 106.737 127.535 107.75 130.447C109.924 136.721 113.827 159.989 102.786 165.29Z" fill="black"/>
<path opacity="0.4" d="M90.4043 166.24C90.4043 166.24 99.2404 170.07 103.246 167.766C107.251 165.462 111.567 161.157 112.183 151.504C112.183 151.504 117.443 165.088 106.83 169.159C96.2249 173.231 90.3965 166.24 90.3965 166.24H90.4043Z" fill="white"/>
<path opacity="0.4" d="M86.9609 171.673C86.9609 171.673 104.844 176.484 112.55 167.766C112.55 167.766 111.521 172.6 103.254 173.986C94.9789 175.371 86.9687 171.673 86.9687 171.673H86.9609Z" fill="white"/>
<path opacity="0.4" d="M115.783 140.575C114.419 138.154 116.094 159.919 116.094 159.919C116.094 159.919 118.557 145.502 115.783 140.575Z" fill="white"/>
</g>
<path d="M148.65 119.642L141.092 247.893L66.8418 245.456L72.7014 147.184L74.5247 116.668L106.877 117.968L148.65 119.642Z" stroke="#2C1F55" stroke-linecap="round" stroke-linejoin="round"/>
<path opacity="0.4" d="M144.895 248.578L142.191 247.893L148.651 130.447L149.796 138.201L144.895 248.578Z" fill="white"/>
<path d="M102.785 165.289C100.869 166.378 98.2817 166.433 96.1311 165.39C94.6506 164.681 93.248 163.397 91.9935 161.139C88.9156 155.597 80.586 142.97 79.0509 139.304C77.5081 135.637 74.1186 125.416 70.7291 121.111C67.3318 116.798 65.485 110.329 65.485 110.329L64.2539 47.5078C66.1006 56.5924 71.1888 66.907 71.1888 66.907C78.7393 70.9083 82.1288 76.7623 82.1288 76.7623C82.8846 77.5563 83.5937 78.4749 84.256 79.5102C89.2897 87.2948 91.7286 101.299 91.9935 112.174C92.3052 124.497 96.3103 130.04 102.785 140.814C109.261 151.595 106.993 162.899 102.785 165.289Z" fill="white"/>
<path opacity="0.4" d="M102.785 165.288C100.837 166.323 98.2815 166.432 96.1309 165.389C99.6685 164.424 104.313 162.61 103.245 159.909C101.57 155.643 96.6685 161.972 94.2063 159.909C91.7362 157.846 82.7988 146.013 88.4791 140.806C94.1517 135.59 92.3518 126.863 88.4791 124.403C84.5987 121.936 87.1155 116.082 88.3467 106.857C89.0947 101.275 86.4532 88.6333 84.2559 79.5098C89.2895 87.2943 91.7284 101.299 91.9933 112.174C92.305 124.497 96.3101 130.04 102.785 140.813C109.26 151.595 106.993 163.046 102.785 165.288Z" fill="#8872CC"/>
<path d="M64.2539 47.5078C66.1006 56.5924 71.1888 66.907 71.1888 66.907C78.7393 70.9083 82.1288 76.7623 82.1288 76.7623C88.604 83.5349 91.6818 99.8591 91.9935 112.174C92.3052 124.49 96.3103 130.04 102.785 140.814C109.261 151.595 107.461 162.735 102.785 165.289C99.5284 167.063 95.0791 166.682 91.9935 161.139C88.9078 155.597 80.586 142.97 79.0432 139.304C77.5003 135.637 74.1108 125.416 70.7213 121.103C67.3318 116.791 65.4773 110.322 65.4773 110.322" stroke="#2C1F55" stroke-linecap="round" stroke-linejoin="round"/>
<path d="M84.2559 138.199C84.2559 138.199 89.2895 137.747 91.5959 135.848" stroke="#2C1F55" stroke-linecap="round" stroke-linejoin="round"/>
<path d="M63.6381 111.605C63.6381 111.605 62.6641 113.972 67.7991 116.261" stroke="#2C1F55" stroke-linecap="round" stroke-linejoin="round"/>
</g>
<defs>
<clipPath id="clip0_2194_31154">
<rect width="318" height="366" fill="white"/>
</clipPath>
</defs>
</svg>
