<svg width="222" height="30" viewBox="0 0 222 30" fill="none" xmlns="http://www.w3.org/2000/svg">
<path d="M6.58469 25.764C6.58469 25.7 6.60469 25.644 6.64469 25.596L9.51269 22.188C9.67269 22.004 9.79269 21.824 9.87269 21.648C9.95269 21.464 9.99269 21.268 9.99269 21.06C9.99269 20.788 9.91269 20.564 9.75269 20.388C9.60069 20.212 9.38469 20.124 9.10469 20.124C8.53669 20.124 8.21669 20.444 8.14469 21.084C8.14469 21.164 8.10069 21.196 8.01269 21.18L6.69269 20.964C6.61269 20.948 6.58069 20.9 6.59669 20.82C6.62069 20.54 6.69269 20.272 6.81269 20.016C6.93269 19.76 7.10069 19.536 7.31669 19.344C7.54069 19.152 7.80469 19 8.10869 18.888C8.42069 18.768 8.77269 18.708 9.16469 18.708C9.55669 18.708 9.90469 18.768 10.2087 18.888C10.5207 19.008 10.7847 19.172 11.0007 19.38C11.2167 19.588 11.3807 19.836 11.4927 20.124C11.6127 20.404 11.6727 20.708 11.6727 21.036C11.6727 21.428 11.5967 21.784 11.4447 22.104C11.3007 22.416 11.1007 22.72 10.8447 23.016L8.69669 25.548V25.572H11.5527C11.6327 25.572 11.6727 25.612 11.6727 25.692V26.88C11.6727 26.96 11.6327 27 11.5527 27H6.70469C6.62469 27 6.58469 26.96 6.58469 26.88V25.764ZM20.4886 27.132C19.8726 27.132 19.3406 26.992 18.8926 26.712C18.4446 26.432 18.1366 26.028 17.9686 25.5C17.9046 25.292 17.8566 25.08 17.8246 24.864C17.7926 24.64 17.7766 24.384 17.7766 24.096C17.7766 23.808 17.7926 23.556 17.8246 23.34C17.8566 23.116 17.9046 22.9 17.9686 22.692C18.1366 22.164 18.4446 21.76 18.8926 21.48C19.3406 21.2 19.8726 21.06 20.4886 21.06C21.1046 21.06 21.6366 21.2 22.0846 21.48C22.5326 21.76 22.8406 22.164 23.0086 22.692C23.0726 22.9 23.1206 23.116 23.1526 23.34C23.1846 23.556 23.2006 23.808 23.2006 24.096C23.2006 24.384 23.1846 24.64 23.1526 24.864C23.1206 25.08 23.0726 25.292 23.0086 25.5C22.8406 26.028 22.5326 26.432 22.0846 26.712C21.6366 26.992 21.1046 27.132 20.4886 27.132ZM20.4886 25.716C20.9526 25.716 21.2526 25.508 21.3886 25.092C21.4286 24.956 21.4566 24.82 21.4726 24.684C21.4886 24.54 21.4966 24.344 21.4966 24.096C21.4966 23.848 21.4886 23.656 21.4726 23.52C21.4566 23.376 21.4286 23.236 21.3886 23.1C21.2526 22.684 20.9526 22.476 20.4886 22.476C20.0246 22.476 19.7246 22.684 19.5886 23.1C19.5486 23.236 19.5206 23.376 19.5046 23.52C19.4886 23.656 19.4806 23.848 19.4806 24.096C19.4806 24.344 19.4886 24.54 19.5046 24.684C19.5206 24.82 19.5486 24.956 19.5886 25.092C19.7246 25.508 20.0246 25.716 20.4886 25.716ZM28.9439 27C28.8639 27 28.8239 26.96 28.8239 26.88V26.46H28.8119C28.6599 26.66 28.4639 26.824 28.2239 26.952C27.9919 27.072 27.6919 27.132 27.3239 27.132C27.0039 27.132 26.7199 27.08 26.4719 26.976C26.2319 26.864 26.0279 26.712 25.8599 26.52C25.6999 26.328 25.5759 26.1 25.4879 25.836C25.4079 25.572 25.3679 25.284 25.3679 24.972V21.312C25.3679 21.232 25.4079 21.192 25.4879 21.192H26.9279C27.0079 21.192 27.0479 21.232 27.0479 21.312V24.648C27.0479 24.96 27.1199 25.216 27.2639 25.416C27.4159 25.608 27.6399 25.704 27.9359 25.704C28.2239 25.704 28.4439 25.608 28.5959 25.416C28.7479 25.224 28.8239 24.968 28.8239 24.648V21.312C28.8239 21.232 28.8639 21.192 28.9439 21.192H30.3839C30.4639 21.192 30.5039 21.232 30.5039 21.312V26.88C30.5039 26.96 30.4639 27 30.3839 27H28.9439ZM34.9818 27.072C34.3098 27.072 33.8338 26.916 33.5538 26.604C33.2738 26.292 33.1338 25.804 33.1338 25.14V22.5C33.1338 22.452 33.1098 22.428 33.0618 22.428H32.7018C32.6218 22.428 32.5818 22.388 32.5818 22.308V21.312C32.5818 21.232 32.6218 21.192 32.7018 21.192H33.0618C33.1098 21.192 33.1338 21.168 33.1338 21.12V19.56C33.1338 19.48 33.1738 19.44 33.2538 19.44H34.6818C34.7618 19.44 34.8018 19.48 34.8018 19.56V21.12C34.8018 21.168 34.8258 21.192 34.8738 21.192H35.6178C35.6978 21.192 35.7378 21.232 35.7378 21.312V22.308C35.7378 22.388 35.6978 22.428 35.6178 22.428H34.8738C34.8258 22.428 34.8018 22.452 34.8018 22.5V25.068C34.8018 25.284 34.8418 25.436 34.9218 25.524C35.0018 25.604 35.1378 25.644 35.3298 25.644H35.6178C35.6978 25.644 35.7378 25.684 35.7378 25.764V26.952C35.7378 27.032 35.6978 27.072 35.6178 27.072H34.9818ZM44.2464 27.132C43.6304 27.132 43.0984 26.992 42.6504 26.712C42.2024 26.432 41.8944 26.028 41.7264 25.5C41.6624 25.292 41.6144 25.08 41.5824 24.864C41.5504 24.64 41.5344 24.384 41.5344 24.096C41.5344 23.808 41.5504 23.556 41.5824 23.34C41.6144 23.116 41.6624 22.9 41.7264 22.692C41.8944 22.164 42.2024 21.76 42.6504 21.48C43.0984 21.2 43.6304 21.06 44.2464 21.06C44.8624 21.06 45.3944 21.2 45.8424 21.48C46.2904 21.76 46.5984 22.164 46.7664 22.692C46.8304 22.9 46.8784 23.116 46.9104 23.34C46.9424 23.556 46.9584 23.808 46.9584 24.096C46.9584 24.384 46.9424 24.64 46.9104 24.864C46.8784 25.08 46.8304 25.292 46.7664 25.5C46.5984 26.028 46.2904 26.432 45.8424 26.712C45.3944 26.992 44.8624 27.132 44.2464 27.132ZM44.2464 25.716C44.7104 25.716 45.0104 25.508 45.1464 25.092C45.1864 24.956 45.2144 24.82 45.2304 24.684C45.2464 24.54 45.2544 24.344 45.2544 24.096C45.2544 23.848 45.2464 23.656 45.2304 23.52C45.2144 23.376 45.1864 23.236 45.1464 23.1C45.0104 22.684 44.7104 22.476 44.2464 22.476C43.7824 22.476 43.4824 22.684 43.3464 23.1C43.3064 23.236 43.2784 23.376 43.2624 23.52C43.2464 23.656 43.2384 23.848 43.2384 24.096C43.2384 24.344 43.2464 24.54 43.2624 24.684C43.2784 24.82 43.3064 24.956 43.3464 25.092C43.4824 25.508 43.7824 25.716 44.2464 25.716ZM49.5217 27C49.4417 27 49.4017 26.96 49.4017 26.88V22.5C49.4017 22.452 49.3777 22.428 49.3297 22.428H48.9697C48.8897 22.428 48.8497 22.388 48.8497 22.308V21.312C48.8497 21.232 48.8897 21.192 48.9697 21.192H49.3297C49.3777 21.192 49.4017 21.168 49.4017 21.12V20.844C49.4017 20.132 49.5657 19.62 49.8937 19.308C50.2297 18.996 50.7457 18.84 51.4417 18.84H52.1017C52.1817 18.84 52.2217 18.88 52.2217 18.96V20.088C52.2217 20.168 52.1817 20.208 52.1017 20.208H51.7297C51.4657 20.208 51.2897 20.252 51.2017 20.34C51.1137 20.42 51.0697 20.584 51.0697 20.832V21.12C51.0697 21.168 51.0937 21.192 51.1417 21.192H52.0897C52.1697 21.192 52.2097 21.232 52.2097 21.312V22.308C52.2097 22.388 52.1697 22.428 52.0897 22.428H51.1417C51.0937 22.428 51.0697 22.452 51.0697 22.5V26.88C51.0697 26.96 51.0297 27 50.9497 27H49.5217ZM58.184 25.332C58.168 25.26 58.2 25.216 58.28 25.2L59.576 24.948C59.648 24.94 59.696 24.972 59.72 25.044C59.792 25.236 59.904 25.396 60.056 25.524C60.208 25.652 60.412 25.716 60.668 25.716C60.876 25.716 61.052 25.668 61.196 25.572C61.348 25.476 61.456 25.332 61.52 25.14C61.56 25.044 61.584 24.936 61.592 24.816C61.608 24.688 61.616 24.532 61.616 24.348C61.616 24.148 61.608 23.988 61.592 23.868C61.584 23.748 61.56 23.64 61.52 23.544C61.456 23.336 61.348 23.192 61.196 23.112C61.044 23.024 60.868 22.98 60.668 22.98C60.444 22.98 60.264 23.028 60.128 23.124C60 23.22 59.904 23.328 59.84 23.448C59.808 23.528 59.756 23.568 59.684 23.568H58.4C58.32 23.568 58.28 23.528 58.28 23.448V18.96C58.28 18.88 58.32 18.84 58.4 18.84H62.96C63.04 18.84 63.08 18.88 63.08 18.96V20.148C63.08 20.228 63.04 20.268 62.96 20.268H59.828C59.78 20.268 59.756 20.292 59.756 20.34V21.948H59.792C59.896 21.86 60.048 21.776 60.248 21.696C60.456 21.608 60.712 21.564 61.016 21.564C61.544 21.564 61.988 21.68 62.348 21.912C62.708 22.144 62.964 22.488 63.116 22.944C63.172 23.112 63.212 23.3 63.236 23.508C63.268 23.716 63.284 23.992 63.284 24.336C63.284 24.592 63.268 24.828 63.236 25.044C63.204 25.252 63.16 25.44 63.104 25.608C62.944 26.112 62.648 26.492 62.216 26.748C61.784 27.004 61.276 27.132 60.692 27.132C60.34 27.132 60.02 27.088 59.732 27C59.444 26.912 59.188 26.792 58.964 26.64C58.748 26.48 58.572 26.288 58.436 26.064C58.3 25.84 58.216 25.596 58.184 25.332Z" fill="#252525"/>
<rect width="38" height="8" rx="4" fill="#EDC442"/>
<rect x="92" width="38" height="8" rx="4" fill="#E7E7E7"/>
<rect x="138" width="38" height="8" rx="4" fill="#E7E7E7"/>
<rect x="184" width="38" height="8" rx="4" fill="#E7E7E7"/>
<rect x="46" width="38" height="8" rx="4" fill="#EDC442"/>
</svg>
