<svg width="50" height="22" viewBox="0 0 50 22" fill="none" xmlns="http://www.w3.org/2000/svg">
<path d="M16.3503 15.6797C17.4977 17.0544 16.8732 19.2943 15.2809 20.2713C14.6933 20.6324 14.0521 20.8186 13.3686 20.8795C13.2493 20.8894 13.13 20.8861 13.0096 20.8861C11.5187 20.8861 10.0279 20.8861 8.49805 20.8861C8.56161 20.4707 8.62182 20.0708 8.68538 19.6709C8.91731 18.2142 9.15036 16.7587 9.3834 15.3031C9.60641 13.9095 9.82831 12.5149 10.0591 11.1225C10.068 11.0671 10.1651 10.9851 10.2208 10.9851C11.8075 10.9917 13.3954 10.9618 14.9788 11.0338C16.4607 11.1014 17.3962 12.341 17.2 13.8032C17.1041 14.5144 16.8264 15.1325 16.3503 15.6808M11.2299 16.9448C11.1352 17.5463 11.0382 18.1644 10.9389 18.7947C11.9112 18.7947 12.8445 18.8191 13.7745 18.7858C14.39 18.7637 14.6621 18.4923 14.7781 17.9284C14.7937 17.8509 14.7959 17.7723 14.8059 17.6936C14.8617 17.2472 14.7011 16.9725 14.2506 16.9569C13.2571 16.9204 12.2614 16.9459 11.2299 16.9459M11.5745 14.798C12.4922 14.798 13.3909 14.8279 14.2863 14.7869C14.7814 14.7647 14.9342 14.5598 15.0501 14.0558C15.2185 13.3269 15.0156 13.0677 14.2618 13.0632C13.5214 13.0588 12.7799 13.0621 12.0395 13.0632C11.9793 13.0632 11.9179 13.0743 11.8488 13.0809C11.7562 13.6603 11.6659 14.2252 11.5745 14.798Z" fill="#452E8D"/>
<path d="M13.5924 2.84619C12.9133 2.56372 12.2019 2.53049 11.4805 2.60914C10.4736 2.71881 9.58487 3.0766 8.89577 3.83873C8.55456 4.21758 8.31036 4.65071 8.18882 5.17025C8.85228 5.17025 9.49009 5.17356 10.1279 5.1647C10.1837 5.1647 10.2606 5.09492 10.2907 5.03842C10.4267 4.77921 10.6263 4.57096 10.9051 4.51224C11.2731 4.43359 11.6633 4.35605 12.0291 4.39703C12.7427 4.47568 12.997 4.96199 12.7427 5.651C12.3246 5.651 11.902 5.64657 11.4805 5.65211C11.0266 5.65876 10.5717 5.66208 10.119 5.6931C8.67053 5.7939 7.7874 6.64022 7.63352 8.06035C7.55324 8.79922 7.93905 9.50375 8.63261 9.78511C8.93479 9.90807 9.276 9.99226 9.60049 9.9978C10.5996 10.0144 11.5362 9.78179 12.3625 9.126C12.3257 9.38522 12.2922 9.61452 12.2577 9.85712H14.209C14.3897 8.73719 14.5759 7.63387 14.7409 6.52613C14.8279 5.94234 14.9316 5.35302 14.9316 4.76592C14.9316 3.84759 14.4476 3.20289 13.5935 2.84841M11.9008 7.9385C11.4314 8.25532 10.9174 8.41262 10.3476 8.35834C9.99521 8.3251 9.80231 8.16559 9.74433 7.88422C9.68746 7.6084 9.8458 7.25613 10.109 7.12099C10.2405 7.05341 10.3922 6.99249 10.536 6.98916C11.2039 6.97587 11.8707 6.98252 12.5576 6.98252C12.4896 7.41897 12.2409 7.7092 11.9008 7.93739" fill="#452E8D"/>
<path d="M27.214 9.85496H25.2627C25.2973 9.61347 25.3307 9.38306 25.3675 9.12385C24.5401 9.78074 23.6046 10.0123 22.6055 9.99564C22.2799 9.99011 21.9398 9.90591 21.6365 9.78295C20.943 9.50159 20.5571 8.79816 20.6374 8.05819C20.7924 6.63806 21.6755 5.79064 23.124 5.69094C23.5767 5.65992 24.0317 5.6566 24.4855 5.64995C24.907 5.64331 25.3296 5.64884 25.7477 5.64884C26.0031 4.96093 25.7477 4.47353 25.0352 4.39488C24.6684 4.355 24.2781 4.43254 23.9101 4.51008C23.6314 4.5699 23.4318 4.77705 23.2957 5.03626C23.2656 5.09276 23.1887 5.16144 23.1329 5.16255C22.4962 5.17141 21.8584 5.16809 21.1938 5.16809C21.3165 4.64855 21.5596 4.21542 21.9008 3.83657C22.5888 3.07444 23.4786 2.71664 24.4855 2.60698C25.2081 2.52833 25.9195 2.56267 26.5974 2.84404C27.4515 3.19852 27.9355 3.84322 27.9355 4.76154C27.9355 5.34865 27.8329 5.93797 27.7448 6.52175C27.5798 7.62839 27.3925 8.73281 27.2118 9.85274M25.5638 6.96928C25.4667 6.96928 25.4043 6.96928 25.3407 6.96928C24.7598 6.97039 24.1777 6.96485 23.5968 6.97814C23.4507 6.98146 23.2968 7.0291 23.1619 7.08781C22.8731 7.21299 22.6903 7.57743 22.7449 7.86988C22.7995 8.159 22.9958 8.32073 23.3649 8.35396C23.9079 8.40381 24.403 8.25537 24.8568 7.96514C25.2159 7.73584 25.4857 7.44007 25.5638 6.96817" fill="#452E8D"/>
<path d="M45.6279 16.6714C45.8576 15.7763 45.4339 15.3698 44.5664 15.3919C44.2854 15.3997 43.9977 15.4584 43.7279 15.5437C43.4179 15.6412 43.2138 15.8794 43.0945 16.1818H41.0428C41.2647 15.3798 41.7129 14.7583 42.3909 14.3064C43.2651 13.7237 44.2464 13.5487 45.2822 13.6118C45.7874 13.6428 46.2735 13.7469 46.7207 13.9973C47.4009 14.3784 47.7878 14.9644 47.7856 15.7287C47.7844 16.3468 47.6852 16.9683 47.5938 17.5831C47.4321 18.6753 47.2459 19.7631 47.0663 20.8697H45.1172C45.1496 20.6393 45.1819 20.41 45.222 20.1331C44.7281 20.5662 44.1705 20.7745 43.5807 20.9074C43.0477 21.0271 42.5113 21.0813 41.9705 20.9717C40.8599 20.7457 40.2957 19.8517 40.5444 18.7163C40.8008 17.5454 41.6806 16.7866 42.9194 16.719C43.7223 16.6747 44.5285 16.6847 45.3335 16.6714C45.4283 16.6703 45.5231 16.6714 45.6279 16.6714ZM45.4161 18.0029C44.7292 18.0029 44.0613 17.9951 43.3945 18.0095C43.2506 18.0129 43.099 18.0738 42.9674 18.1414C42.7042 18.2765 42.547 18.6299 42.6039 18.9057C42.6619 19.1871 42.8548 19.3455 43.2082 19.3787C43.787 19.433 44.3077 19.2702 44.7805 18.9445C45.1105 18.7174 45.3536 18.4294 45.4172 18.0029" fill="#452E8D"/>
<path d="M19.4954 17.9125C19.4352 18.6015 19.918 19.1532 20.6105 19.2296C21.3397 19.3093 21.9642 19.1188 22.4515 18.5528C22.4871 18.5107 22.5552 18.4719 22.6076 18.4719C23.222 18.4663 23.8352 18.4686 24.4496 18.4675H24.6905C24.4597 18.9571 24.1564 19.3581 23.7862 19.707C22.8451 20.5954 21.7345 21.0751 20.4198 21.023C18.4696 20.9466 17.1482 19.3858 17.4125 17.4816C17.6835 15.5253 19.065 14.0354 21.0253 13.6621C22.2206 13.4339 23.3346 13.6344 24.1954 14.5793C24.821 15.2661 24.986 16.108 24.9146 17.0052C24.8957 17.2401 24.831 17.4705 24.802 17.7042C24.7808 17.8748 24.6972 17.9169 24.5322 17.9158C22.9454 17.9103 21.3587 17.9125 19.7731 17.9125H19.4966H19.4954ZM19.7307 16.5588H22.8295C22.786 16.0293 22.5518 15.6438 22.0567 15.4489C21.1647 15.0988 20.0452 15.6305 19.7307 16.5588Z" fill="#452E8D"/>
<path d="M27.3665 17.913C27.3163 18.6231 27.8058 19.1636 28.5117 19.2323C29.2342 19.3032 29.8475 19.1082 30.327 18.5488C30.3593 18.5112 30.4162 18.4724 30.4619 18.4724C31.1521 18.468 31.8423 18.4691 32.5649 18.4691C32.2605 19.0905 31.849 19.5857 31.3361 19.9944C30.4485 20.7012 29.4383 21.0734 28.2886 21.0247C26.3384 20.9427 25.026 19.3896 25.2869 17.4788C25.5523 15.5313 26.945 14.0326 28.9042 13.6626C30.0995 13.4366 31.2146 13.6382 32.0732 14.5842C32.6976 15.2721 32.8626 16.114 32.7879 17.0113C32.769 17.2461 32.7043 17.4765 32.6753 17.7103C32.6541 17.8842 32.5627 17.9185 32.401 17.9174C30.8221 17.9119 29.2443 17.9141 27.6653 17.9141H27.3665M30.705 16.5615C30.6604 16.0907 30.482 15.7219 30.0549 15.5103C29.1495 15.0617 27.9385 15.5679 27.6062 16.5615H30.705Z" fill="#452E8D"/>
<path d="M34.9445 20.875H32.8047C33.1849 18.4978 33.5629 16.1317 33.9432 13.76H35.9904C35.9603 13.956 35.9335 14.1344 35.9124 14.2762C36.2658 14.1023 36.6137 13.8707 36.9973 13.7555C37.8492 13.4996 38.7011 13.5196 39.4783 14.017C40.1262 14.4324 40.464 15.0627 40.4852 15.806C40.503 16.423 40.4228 17.0478 40.3391 17.6626C40.2031 18.654 40.0291 19.641 39.8708 20.6302C39.8585 20.7077 39.8374 20.7842 39.8184 20.8739H37.6775C37.7656 20.3256 37.8537 19.7839 37.9384 19.2422C38.06 18.4712 38.2172 17.7035 38.2919 16.9281C38.3911 15.8891 37.6585 15.364 36.655 15.7118C36.0071 15.9367 35.6815 16.4241 35.5734 17.0655C35.3716 18.2707 35.1853 19.4781 34.9913 20.6856C34.9813 20.7476 34.9623 20.8074 34.9456 20.875" fill="#452E8D"/>
<path d="M18.5452 0.00585938C18.0177 3.29808 17.4937 6.57257 16.9685 9.85372H14.8164C15.3427 6.57036 15.8668 3.29697 16.3931 0.00585938H18.5452Z" fill="#452E8D"/>
<path d="M19.1403 0H21.2924C20.7649 3.29554 20.2398 6.57448 19.7135 9.85673H17.5625C18.0888 6.57005 18.6129 3.29333 19.1403 0Z" fill="#452E8D"/>
<path d="M49.935 19.8081C49.935 19.2188 49.4533 18.7402 48.8601 18.7402C48.2669 18.7402 47.7852 19.2177 47.7852 19.8081C47.7852 20.3985 48.2669 20.876 48.8601 20.876C49.4533 20.876 49.935 20.3985 49.935 19.8081Z" fill="#EDC33F"/>
<path d="M5.7851 10.9844C5.76405 10.9844 5.73636 10.9855 5.70312 10.9844H5.7851Z" fill="#452E8D"/>
<path d="M9.36899 0.622196C9.13148 1.18382 8.91516 1.70114 8.69661 2.21403C8.67654 2.26055 8.65759 2.30597 8.63752 2.35249C7.8514 4.19578 7.07532 6.0424 6.27136 7.87683C6.26133 7.90009 6.25129 7.92335 6.24126 7.94661C5.9781 8.53261 5.6525 9.08981 5.36147 9.66251C5.32579 9.7323 5.289 9.8032 5.25555 9.8752C5.2154 9.9605 5.17972 10.0491 5.1563 10.1388C5.1117 10.3128 5.06375 10.5675 5.21206 10.7647C5.34363 10.9397 5.56441 10.9774 5.70268 10.9829C5.73613 10.9841 5.76401 10.9829 5.7852 10.9829H8.933L8.55054 13.1176H5.32468C5.23659 13.1076 5.14961 13.0954 5.06264 13.081C4.82959 13.0434 4.61216 12.9791 4.41368 12.8905C3.29416 12.3953 2.72325 11.1668 2.95407 9.87409C2.99421 9.65254 3.05665 9.42877 3.14474 9.20723C3.26182 8.91146 3.40789 8.62456 3.56623 8.34762L3.57738 8.32768L3.79036 7.94551H5.02696C5.04034 7.94329 5.05372 7.94108 5.06821 7.93886C4.73704 7.77048 4.40253 7.60986 4.07358 7.43927C3.93755 7.36837 3.80263 7.29747 3.66993 7.22215C3.50825 7.13131 3.33542 6.98398 3.26405 6.82114C3.13582 6.5287 3.0087 6.23626 2.88159 5.94381L2.86486 5.90282L0.611328 0.623305V0.621094H2.98306C2.99978 0.621094 3.01651 0.622199 3.03212 0.625522C3.03881 0.625522 3.04438 0.627734 3.05107 0.628842C3.05888 0.62995 3.06446 0.632171 3.07115 0.634386C3.07115 0.634386 3.07338 0.634386 3.07449 0.634386C3.12356 0.649895 3.16704 0.678696 3.20049 0.717467C3.20384 0.72079 3.20719 0.724111 3.21053 0.728542C3.26182 0.789468 3.30754 0.870331 3.33207 0.933472C3.49152 1.35885 3.65098 1.78533 3.80932 2.21182C4.15275 3.13678 4.49285 4.06397 4.83405 4.99004C4.88312 5.12408 4.93887 5.2559 5.0225 5.46416C5.25109 4.7984 5.43842 4.20465 5.65585 3.62197C5.83203 3.15007 6.01155 2.68039 6.19554 2.21182C6.36726 1.77315 6.54232 1.33448 6.71961 0.89803C6.74972 0.823811 6.82443 0.73851 6.90471 0.685338C6.90806 0.682015 6.9114 0.6798 6.91475 0.678692C6.9627 0.642136 7.02291 0.621094 7.08647 0.621094H9.37122L9.36899 0.622196Z" fill="#452E8D"/>
</svg>
