<svg width="222" height="30" viewBox="0 0 222 30" fill="none" xmlns="http://www.w3.org/2000/svg">
<path d="M6.4665 20.736H6.4425L5.1465 21.624C5.0585 21.68 5.0145 21.656 5.0145 21.552V20.064C5.0145 20 5.0425 19.944 5.0985 19.896L6.4665 18.912C6.5225 18.864 6.5945 18.84 6.6825 18.84H8.0265C8.1065 18.84 8.1465 18.88 8.1465 18.96V26.88C8.1465 26.96 8.1065 27 8.0265 27H6.5865C6.5065 27 6.4665 26.96 6.4665 26.88V20.736ZM18.2464 27.132C17.6304 27.132 17.0984 26.992 16.6504 26.712C16.2024 26.432 15.8944 26.028 15.7264 25.5C15.6624 25.292 15.6144 25.08 15.5824 24.864C15.5504 24.64 15.5344 24.384 15.5344 24.096C15.5344 23.808 15.5504 23.556 15.5824 23.34C15.6144 23.116 15.6624 22.9 15.7264 22.692C15.8944 22.164 16.2024 21.76 16.6504 21.48C17.0984 21.2 17.6304 21.06 18.2464 21.06C18.8624 21.06 19.3944 21.2 19.8424 21.48C20.2904 21.76 20.5984 22.164 20.7664 22.692C20.8304 22.9 20.8784 23.116 20.9104 23.34C20.9424 23.556 20.9584 23.808 20.9584 24.096C20.9584 24.384 20.9424 24.64 20.9104 24.864C20.8784 25.08 20.8304 25.292 20.7664 25.5C20.5984 26.028 20.2904 26.432 19.8424 26.712C19.3944 26.992 18.8624 27.132 18.2464 27.132ZM18.2464 25.716C18.7104 25.716 19.0104 25.508 19.1464 25.092C19.1864 24.956 19.2144 24.82 19.2304 24.684C19.2464 24.54 19.2544 24.344 19.2544 24.096C19.2544 23.848 19.2464 23.656 19.2304 23.52C19.2144 23.376 19.1864 23.236 19.1464 23.1C19.0104 22.684 18.7104 22.476 18.2464 22.476C17.7824 22.476 17.4824 22.684 17.3464 23.1C17.3064 23.236 17.2784 23.376 17.2624 23.52C17.2464 23.656 17.2384 23.848 17.2384 24.096C17.2384 24.344 17.2464 24.54 17.2624 24.684C17.2784 24.82 17.3064 24.956 17.3464 25.092C17.4824 25.508 17.7824 25.716 18.2464 25.716ZM23.5217 27C23.4417 27 23.4017 26.96 23.4017 26.88V22.5C23.4017 22.452 23.3777 22.428 23.3297 22.428H22.9697C22.8897 22.428 22.8497 22.388 22.8497 22.308V21.312C22.8497 21.232 22.8897 21.192 22.9697 21.192H23.3297C23.3777 21.192 23.4017 21.168 23.4017 21.12V20.844C23.4017 20.132 23.5657 19.62 23.8937 19.308C24.2297 18.996 24.7457 18.84 25.4417 18.84H26.1017C26.1817 18.84 26.2217 18.88 26.2217 18.96V20.088C26.2217 20.168 26.1817 20.208 26.1017 20.208H25.7297C25.4657 20.208 25.2897 20.252 25.2017 20.34C25.1137 20.42 25.0697 20.584 25.0697 20.832V21.12C25.0697 21.168 25.0937 21.192 25.1417 21.192H26.0897C26.1697 21.192 26.2097 21.232 26.2097 21.312V22.308C26.2097 22.388 26.1697 22.428 26.0897 22.428H25.1417C25.0937 22.428 25.0697 22.452 25.0697 22.5V26.88C25.0697 26.96 25.0297 27 24.9497 27H23.5217ZM32.184 25.332C32.168 25.26 32.2 25.216 32.28 25.2L33.576 24.948C33.648 24.94 33.696 24.972 33.72 25.044C33.792 25.236 33.904 25.396 34.056 25.524C34.208 25.652 34.412 25.716 34.668 25.716C34.876 25.716 35.052 25.668 35.196 25.572C35.348 25.476 35.456 25.332 35.52 25.14C35.56 25.044 35.584 24.936 35.592 24.816C35.608 24.688 35.616 24.532 35.616 24.348C35.616 24.148 35.608 23.988 35.592 23.868C35.584 23.748 35.56 23.64 35.52 23.544C35.456 23.336 35.348 23.192 35.196 23.112C35.044 23.024 34.868 22.98 34.668 22.98C34.444 22.98 34.264 23.028 34.128 23.124C34 23.22 33.904 23.328 33.84 23.448C33.808 23.528 33.756 23.568 33.684 23.568H32.4C32.32 23.568 32.28 23.528 32.28 23.448V18.96C32.28 18.88 32.32 18.84 32.4 18.84H36.96C37.04 18.84 37.08 18.88 37.08 18.96V20.148C37.08 20.228 37.04 20.268 36.96 20.268H33.828C33.78 20.268 33.756 20.292 33.756 20.34V21.948H33.792C33.896 21.86 34.048 21.776 34.248 21.696C34.456 21.608 34.712 21.564 35.016 21.564C35.544 21.564 35.988 21.68 36.348 21.912C36.708 22.144 36.964 22.488 37.116 22.944C37.172 23.112 37.212 23.3 37.236 23.508C37.268 23.716 37.284 23.992 37.284 24.336C37.284 24.592 37.268 24.828 37.236 25.044C37.204 25.252 37.16 25.44 37.104 25.608C36.944 26.112 36.648 26.492 36.216 26.748C35.784 27.004 35.276 27.132 34.692 27.132C34.34 27.132 34.02 27.088 33.732 27C33.444 26.912 33.188 26.792 32.964 26.64C32.748 26.48 32.572 26.288 32.436 26.064C32.3 25.84 32.216 25.596 32.184 25.332Z" fill="#252525"/>
<rect width="38" height="8" rx="4" fill="#EDC442"/>
<rect x="92" width="38" height="8" rx="4" fill="#E7E7E7"/>
<rect x="138" width="38" height="8" rx="4" fill="#E7E7E7"/>
<rect x="184" width="38" height="8" rx="4" fill="#E7E7E7"/>
<rect x="46" width="38" height="8" rx="4" fill="#E7E7E7"/>
</svg>
