<svg width="19" height="21" viewBox="0 0 19 21" fill="none" xmlns="http://www.w3.org/2000/svg">
<path d="M5.00421 20.526H7.86478C8.25976 20.526 8.57993 20.2058 8.57993 19.8108C8.57993 19.4159 8.25976 19.0957 7.86478 19.0957H5.00421C4.60923 19.0957 4.28906 19.4159 4.28906 19.8108C4.28906 20.2058 4.60923 20.526 5.00421 20.526Z" fill="white"/>
<path d="M6.4363 2.21875C6.04132 2.21875 5.72115 2.53892 5.72115 2.93389V3.70035C3.29842 4.04841 1.43029 6.13753 1.43029 8.65505V13.0516C1.43029 13.3036 1.31676 13.5329 1.14784 13.6222C0.439814 13.996 0 14.7234 0 15.5204C0 16.7034 0.962441 17.6659 2.14543 17.6659H10.7272C11.9102 17.6659 12.8726 16.7034 12.8726 15.5204C12.8726 14.7234 12.4328 13.996 11.7248 13.6222C11.5558 13.5329 11.4423 13.3037 11.4423 13.0516V8.65505C11.4423 6.13753 9.57417 4.04841 7.15144 3.70035V2.93389C7.15144 2.53892 6.83127 2.21875 6.4363 2.21875ZM10.012 8.65505V13.0516C10.012 13.8433 10.4124 14.5466 11.0569 14.8869C11.2946 15.0124 11.4423 15.2552 11.4423 15.5204C11.4423 15.9148 11.1215 16.2356 10.7272 16.2356H2.14543C1.7511 16.2356 1.43029 15.9148 1.43029 15.5204C1.43029 15.2552 1.57797 15.0124 1.81568 14.8869C2.4602 14.5466 2.86058 13.8433 2.86058 13.0516V8.65505C2.86058 6.6834 4.46465 5.07933 6.4363 5.07933C8.40795 5.07933 10.012 6.6834 10.012 8.65505Z" fill="white"/>
<rect x="8" y="1" width="10" height="10" rx="5" fill="#E03137"/>
<rect x="8" y="1" width="10" height="10" rx="5" stroke="white" stroke-width="2"/>
</svg>
