<svg width="430" height="130" viewBox="0 0 430 130" fill="none" xmlns="http://www.w3.org/2000/svg">
<rect width="430" height="130" rx="15" fill="#F0EDF4"/>
<path fill-rule="evenodd" clip-rule="evenodd" d="M59.034 49.0943C53.8416 40.5134 46.0296 32 36 32C16.1177 32 0 48.1177 0 68V115C0 123.284 6.71574 130 15 130H415C423.284 130 430 123.284 430 115V68C430 48.1178 413.882 32 394 32H149.267C135.191 32 124.194 44.5904 114.589 54.879C108.201 61.7219 99.1 66 89 66C76.2919 66 65.1657 59.2272 59.034 49.0943Z" fill="white"/>
<circle cx="88" cy="34" r="27" fill="white"/>
<path d="M96.0402 29.3197L90.2802 25.2897C88.7102 24.1897 86.3002 24.2497 84.7902 25.4197L79.7802 29.3297C78.7802 30.1097 77.9902 31.7097 77.9902 32.9697V39.8697C77.9902 42.4197 80.0602 44.4997 82.6102 44.4997H93.3902C95.9402 44.4997 98.0102 42.4297 98.0102 39.8797V33.0997C98.0102 31.7497 97.1402 30.0897 96.0402 29.3197ZM88.7502 40.4997C88.7502 40.9097 88.4102 41.2497 88.0002 41.2497C87.5902 41.2497 87.2502 40.9097 87.2502 40.4997V37.4997C87.2502 37.0897 87.5902 36.7497 88.0002 36.7497C88.4102 36.7497 88.7502 37.0897 88.7502 37.4997V40.4997Z" fill="#421695"/>
<path d="M72.008 87.46C72.008 87.38 72.048 87.34 72.128 87.34H72.956C73.036 87.34 73.076 87.38 73.076 87.46V90.808C73.076 90.856 73.1 90.88 73.148 90.88H76.688C76.736 90.88 76.76 90.856 76.76 90.808V87.46C76.76 87.38 76.8 87.34 76.88 87.34H77.708C77.788 87.34 77.828 87.38 77.828 87.46V95.38C77.828 95.46 77.788 95.5 77.708 95.5H76.88C76.8 95.5 76.76 95.46 76.76 95.38V91.948C76.76 91.9 76.736 91.876 76.688 91.876H73.148C73.1 91.876 73.076 91.9 73.076 91.948V95.38C73.076 95.46 73.036 95.5 72.956 95.5H72.128C72.048 95.5 72.008 95.46 72.008 95.38V87.46ZM81.9358 95.632C81.3758 95.632 80.8958 95.496 80.4958 95.224C80.1038 94.952 79.8278 94.572 79.6678 94.084C79.6038 93.884 79.5558 93.676 79.5238 93.46C79.4918 93.236 79.4758 92.956 79.4758 92.62C79.4758 92.284 79.4918 92.008 79.5238 91.792C79.5558 91.576 79.6038 91.368 79.6678 91.168C79.8278 90.672 80.1038 90.292 80.4958 90.028C80.8958 89.756 81.3758 89.62 81.9358 89.62C82.4958 89.62 82.9718 89.756 83.3638 90.028C83.7638 90.292 84.0438 90.672 84.2038 91.168C84.2678 91.368 84.3158 91.576 84.3478 91.792C84.3798 92.008 84.3958 92.284 84.3958 92.62C84.3958 92.956 84.3798 93.236 84.3478 93.46C84.3158 93.676 84.2678 93.884 84.2038 94.084C84.0438 94.572 83.7638 94.952 83.3638 95.224C82.9718 95.496 82.4958 95.632 81.9358 95.632ZM81.9358 94.696C82.2558 94.696 82.5278 94.62 82.7518 94.468C82.9758 94.308 83.1358 94.084 83.2318 93.796C83.2798 93.636 83.3118 93.472 83.3278 93.304C83.3518 93.128 83.3638 92.9 83.3638 92.62C83.3638 92.34 83.3518 92.116 83.3278 91.948C83.3118 91.78 83.2798 91.616 83.2318 91.456C83.1358 91.168 82.9758 90.948 82.7518 90.796C82.5278 90.636 82.2558 90.556 81.9358 90.556C81.6158 90.556 81.3438 90.636 81.1198 90.796C80.8958 90.948 80.7358 91.168 80.6398 91.456C80.5918 91.616 80.5558 91.78 80.5318 91.948C80.5158 92.116 80.5078 92.34 80.5078 92.62C80.5078 92.9 80.5158 93.128 80.5318 93.304C80.5558 93.472 80.5918 93.636 80.6398 93.796C80.7358 94.084 80.8958 94.308 81.1198 94.468C81.3438 94.62 81.6158 94.696 81.9358 94.696ZM93.3553 95.5C93.2753 95.5 93.2353 95.46 93.2353 95.38V92.02C93.2353 91.556 93.1273 91.196 92.9113 90.94C92.7033 90.684 92.3833 90.556 91.9513 90.556C91.5673 90.556 91.2513 90.684 91.0033 90.94C90.7553 91.188 90.6313 91.528 90.6313 91.96V95.38C90.6313 95.46 90.5913 95.5 90.5113 95.5H89.7433C89.6633 95.5 89.6233 95.46 89.6233 95.38V92.02C89.6233 91.556 89.5153 91.196 89.2993 90.94C89.0913 90.684 88.7713 90.556 88.3393 90.556C87.9473 90.556 87.6273 90.684 87.3793 90.94C87.1393 91.188 87.0193 91.528 87.0193 91.96V95.38C87.0193 95.46 86.9793 95.5 86.8993 95.5H86.1313C86.0513 95.5 86.0113 95.46 86.0113 95.38V89.872C86.0113 89.792 86.0513 89.752 86.1313 89.752H86.8993C86.9793 89.752 87.0193 89.792 87.0193 89.872V90.4H87.0313C87.1673 90.176 87.3713 89.992 87.6433 89.848C87.9153 89.696 88.2473 89.62 88.6393 89.62C89.0313 89.62 89.3673 89.7 89.6473 89.86C89.9353 90.012 90.1593 90.232 90.3193 90.52H90.3313C90.5313 90.24 90.7793 90.02 91.0753 89.86C91.3793 89.7 91.7513 89.62 92.1913 89.62C92.8633 89.62 93.3713 89.816 93.7153 90.208C94.0673 90.6 94.2433 91.124 94.2433 91.78V95.38C94.2433 95.46 94.2033 95.5 94.1233 95.5H93.3553ZM98.2961 95.632C97.7121 95.632 97.2201 95.5 96.8201 95.236C96.4281 94.964 96.1521 94.576 95.9921 94.072C95.9281 93.888 95.8801 93.684 95.8481 93.46C95.8161 93.236 95.8001 92.956 95.8001 92.62C95.8001 92.284 95.8121 92.004 95.8361 91.78C95.8681 91.548 95.9161 91.344 95.9801 91.168C96.1401 90.664 96.4161 90.28 96.8081 90.016C97.2081 89.752 97.6841 89.62 98.2361 89.62C98.7881 89.62 99.2601 89.756 99.6521 90.028C100.052 90.292 100.332 90.672 100.492 91.168C100.524 91.264 100.548 91.364 100.564 91.468C100.588 91.564 100.608 91.676 100.624 91.804C100.64 91.932 100.652 92.08 100.66 92.248C100.668 92.408 100.672 92.596 100.672 92.812C100.672 92.892 100.628 92.932 100.54 92.932H96.9041C96.8561 92.932 96.8321 92.956 96.8321 93.004C96.8321 93.164 96.8401 93.296 96.8561 93.4C96.8721 93.504 96.8961 93.604 96.9281 93.7C97.0401 94.036 97.2201 94.288 97.4681 94.456C97.7161 94.616 98.0201 94.696 98.3801 94.696C98.7241 94.696 99.0161 94.636 99.2561 94.516C99.4961 94.396 99.6961 94.244 99.8561 94.06C99.9201 93.996 99.9801 93.988 100.036 94.036L100.528 94.48C100.584 94.528 100.588 94.584 100.54 94.648C100.308 94.936 100 95.172 99.6161 95.356C99.2401 95.54 98.8001 95.632 98.2961 95.632ZM99.5681 92.128C99.6161 92.128 99.6401 92.104 99.6401 92.056C99.6401 91.792 99.6121 91.576 99.5561 91.408C99.4601 91.12 99.2961 90.9 99.0641 90.748C98.8401 90.588 98.5641 90.508 98.2361 90.508C97.9081 90.508 97.6281 90.588 97.3961 90.748C97.1721 90.9 97.0121 91.12 96.9161 91.408C96.8601 91.576 96.8321 91.792 96.8321 92.056C96.8321 92.104 96.8561 92.128 96.9041 92.128H99.5681Z" fill="#421695"/>
<path d="M177.168 72.5C182.415 72.5 186.668 68.2467 186.668 63C186.668 57.7533 182.415 53.5 177.168 53.5C171.921 53.5 167.668 57.7533 167.668 63C167.668 68.2467 171.921 72.5 177.168 72.5Z" stroke="#9DB2CE" stroke-width="1.5" stroke-linecap="round" stroke-linejoin="round"/>
<path d="M187.668 73.5L185.668 71.5" stroke="#9DB2CE" stroke-width="1.5" stroke-linecap="round" stroke-linejoin="round"/>
<path d="M161.148 95.632C160.86 95.632 160.576 95.604 160.296 95.548C160.016 95.492 159.752 95.42 159.504 95.332C159.256 95.236 159.028 95.128 158.82 95.008C158.612 94.88 158.432 94.748 158.28 94.612C158.224 94.556 158.22 94.496 158.268 94.432L158.796 93.808C158.844 93.752 158.9 93.748 158.964 93.796C159.228 94.004 159.556 94.196 159.948 94.372C160.34 94.548 160.772 94.636 161.244 94.636C161.812 94.636 162.252 94.508 162.564 94.252C162.884 93.996 163.044 93.66 163.044 93.244C163.044 93.068 163.016 92.908 162.96 92.764C162.904 92.62 162.808 92.492 162.672 92.38C162.544 92.268 162.372 92.172 162.156 92.092C161.94 92.012 161.668 91.952 161.34 91.912L160.932 91.852C159.332 91.636 158.532 90.884 158.532 89.596C158.532 89.236 158.592 88.908 158.712 88.612C158.84 88.316 159.02 88.064 159.252 87.856C159.484 87.648 159.764 87.488 160.092 87.376C160.42 87.264 160.788 87.208 161.196 87.208C161.676 87.208 162.132 87.28 162.564 87.424C163.004 87.56 163.376 87.74 163.68 87.964C163.744 88.012 163.752 88.068 163.704 88.132L163.296 88.792C163.248 88.848 163.192 88.856 163.128 88.816C162.792 88.608 162.468 88.456 162.156 88.36C161.844 88.256 161.512 88.204 161.16 88.204C160.656 88.204 160.272 88.328 160.008 88.576C159.744 88.816 159.612 89.132 159.612 89.524C159.612 89.868 159.74 90.152 159.996 90.376C160.252 90.592 160.696 90.744 161.328 90.832L161.724 90.892C162.524 91.004 163.124 91.244 163.524 91.612C163.924 91.98 164.124 92.5 164.124 93.172C164.124 93.532 164.06 93.864 163.932 94.168C163.812 94.464 163.624 94.72 163.368 94.936C163.12 95.152 162.808 95.324 162.432 95.452C162.064 95.572 161.636 95.632 161.148 95.632ZM167.89 95.632C167.306 95.632 166.814 95.5 166.414 95.236C166.022 94.964 165.746 94.576 165.586 94.072C165.522 93.888 165.474 93.684 165.442 93.46C165.41 93.236 165.394 92.956 165.394 92.62C165.394 92.284 165.406 92.004 165.43 91.78C165.462 91.548 165.51 91.344 165.574 91.168C165.734 90.664 166.01 90.28 166.402 90.016C166.802 89.752 167.278 89.62 167.83 89.62C168.382 89.62 168.854 89.756 169.246 90.028C169.646 90.292 169.926 90.672 170.086 91.168C170.118 91.264 170.142 91.364 170.158 91.468C170.182 91.564 170.202 91.676 170.218 91.804C170.234 91.932 170.246 92.08 170.254 92.248C170.262 92.408 170.266 92.596 170.266 92.812C170.266 92.892 170.222 92.932 170.134 92.932H166.498C166.45 92.932 166.426 92.956 166.426 93.004C166.426 93.164 166.434 93.296 166.45 93.4C166.466 93.504 166.49 93.604 166.522 93.7C166.634 94.036 166.814 94.288 167.062 94.456C167.31 94.616 167.614 94.696 167.974 94.696C168.318 94.696 168.61 94.636 168.85 94.516C169.09 94.396 169.29 94.244 169.45 94.06C169.514 93.996 169.574 93.988 169.63 94.036L170.122 94.48C170.178 94.528 170.182 94.584 170.134 94.648C169.902 94.936 169.594 95.172 169.21 95.356C168.834 95.54 168.394 95.632 167.89 95.632ZM169.162 92.128C169.21 92.128 169.234 92.104 169.234 92.056C169.234 91.792 169.206 91.576 169.15 91.408C169.054 91.12 168.89 90.9 168.658 90.748C168.434 90.588 168.158 90.508 167.83 90.508C167.502 90.508 167.222 90.588 166.99 90.748C166.766 90.9 166.606 91.12 166.51 91.408C166.454 91.576 166.426 91.792 166.426 92.056C166.426 92.104 166.45 92.128 166.498 92.128H169.162ZM175.362 95.5C175.282 95.5 175.242 95.46 175.242 95.38V94.876H175.23C175.094 95.092 174.886 95.272 174.606 95.416C174.326 95.56 173.966 95.632 173.526 95.632C173.254 95.632 172.998 95.596 172.758 95.524C172.526 95.452 172.322 95.344 172.146 95.2C171.978 95.056 171.842 94.876 171.738 94.66C171.642 94.444 171.594 94.192 171.594 93.904C171.594 93.296 171.79 92.848 172.182 92.56C172.582 92.272 173.134 92.128 173.838 92.128H175.146C175.194 92.128 175.218 92.104 175.218 92.056V91.636C175.218 91.236 175.122 90.948 174.93 90.772C174.738 90.596 174.374 90.508 173.838 90.508C173.51 90.508 173.238 90.548 173.022 90.628C172.806 90.7 172.614 90.796 172.446 90.916C172.374 90.972 172.318 90.968 172.278 90.904L171.954 90.352C171.922 90.288 171.93 90.232 171.978 90.184C172.194 90.016 172.466 89.88 172.794 89.776C173.122 89.672 173.502 89.62 173.934 89.62C174.75 89.62 175.33 89.772 175.674 90.076C176.018 90.372 176.19 90.872 176.19 91.576V95.38C176.19 95.46 176.15 95.5 176.07 95.5H175.362ZM173.766 94.768C174.222 94.768 174.578 94.672 174.834 94.48C175.09 94.28 175.218 94 175.218 93.64V93.004C175.218 92.956 175.194 92.932 175.146 92.932H173.994C173.49 92.932 173.126 93.008 172.902 93.16C172.678 93.304 172.566 93.54 172.566 93.868C172.566 94.164 172.67 94.388 172.878 94.54C173.086 94.692 173.382 94.768 173.766 94.768ZM178.225 95.5C178.145 95.5 178.105 95.46 178.105 95.38V89.872C178.105 89.792 178.145 89.752 178.225 89.752H178.993C179.073 89.752 179.113 89.792 179.113 89.872V90.46H179.125C179.253 90.212 179.441 90.012 179.689 89.86C179.945 89.7 180.265 89.62 180.649 89.62C180.881 89.62 181.097 89.66 181.297 89.74C181.505 89.812 181.681 89.916 181.825 90.052C181.881 90.108 181.889 90.164 181.849 90.22L181.405 90.808C181.357 90.872 181.301 90.88 181.237 90.832C181.101 90.744 180.961 90.676 180.817 90.628C180.673 90.58 180.517 90.556 180.349 90.556C179.909 90.556 179.593 90.712 179.401 91.024C179.209 91.328 179.113 91.732 179.113 92.236V95.38C179.113 95.46 179.073 95.5 178.993 95.5H178.225ZM182.468 92.62C182.468 92.3 182.484 92.024 182.516 91.792C182.548 91.552 182.592 91.344 182.648 91.168C182.808 90.664 183.088 90.28 183.488 90.016C183.888 89.752 184.364 89.62 184.916 89.62C185.356 89.62 185.74 89.708 186.068 89.884C186.404 90.052 186.676 90.288 186.884 90.592C186.924 90.656 186.912 90.712 186.848 90.76L186.32 91.192C186.256 91.24 186.2 91.236 186.152 91.18C185.984 90.972 185.808 90.816 185.624 90.712C185.44 90.608 185.204 90.556 184.916 90.556C184.604 90.556 184.336 90.632 184.112 90.784C183.888 90.928 183.728 91.152 183.632 91.456C183.584 91.608 183.548 91.776 183.524 91.96C183.508 92.144 183.5 92.364 183.5 92.62C183.5 92.876 183.508 93.1 183.524 93.292C183.548 93.476 183.584 93.644 183.632 93.796C183.728 94.1 183.888 94.328 184.112 94.48C184.336 94.624 184.604 94.696 184.916 94.696C185.204 94.696 185.44 94.644 185.624 94.54C185.808 94.436 185.984 94.28 186.152 94.072C186.2 94.016 186.256 94.012 186.32 94.06L186.848 94.492C186.912 94.54 186.924 94.596 186.884 94.66C186.676 94.964 186.404 95.204 186.068 95.38C185.74 95.548 185.356 95.632 184.916 95.632C184.364 95.632 183.888 95.5 183.488 95.236C183.088 94.972 182.808 94.588 182.648 94.084C182.592 93.908 182.548 93.704 182.516 93.472C182.484 93.232 182.468 92.948 182.468 92.62ZM192.208 95.5C192.128 95.5 192.088 95.46 192.088 95.38V92.02C192.088 91.556 191.98 91.196 191.764 90.94C191.556 90.684 191.236 90.556 190.804 90.556C190.412 90.556 190.092 90.684 189.844 90.94C189.604 91.188 189.484 91.528 189.484 91.96V95.38C189.484 95.46 189.444 95.5 189.364 95.5H188.596C188.516 95.5 188.476 95.46 188.476 95.38V87.46C188.476 87.38 188.516 87.34 188.596 87.34H189.364C189.444 87.34 189.484 87.38 189.484 87.46V90.4H189.496C189.632 90.176 189.836 89.992 190.108 89.848C190.38 89.696 190.712 89.62 191.104 89.62C191.728 89.62 192.216 89.816 192.568 90.208C192.92 90.6 193.096 91.124 193.096 91.78V95.38C193.096 95.46 193.056 95.5 192.976 95.5H192.208Z" fill="#9DB2CE"/>
<path d="M259.533 57C257.03 57 255 59.0089 255 61.4873C255 63.488 255.793 68.2363 263.601 73.0364C263.741 73.1215 263.902 73.1665 264.065 73.1665C264.229 73.1665 264.389 73.1215 264.529 73.0364C272.338 68.2363 273.13 63.488 273.13 61.4873C273.13 59.0089 271.101 57 268.598 57C266.095 57 264.065 59.7196 264.065 59.7196C264.065 59.7196 262.036 57 259.533 57Z" stroke="#9DB2CE" stroke-width="1.5" stroke-linecap="round" stroke-linejoin="round"/>
<path d="M246.02 87.46C246.02 87.38 246.06 87.34 246.14 87.34H251.048C251.128 87.34 251.168 87.38 251.168 87.46V88.216C251.168 88.296 251.128 88.336 251.048 88.336H247.16C247.112 88.336 247.088 88.36 247.088 88.408V90.892C247.088 90.94 247.112 90.964 247.16 90.964H250.46C250.54 90.964 250.58 91.004 250.58 91.084V91.84C250.58 91.92 250.54 91.96 250.46 91.96H247.16C247.112 91.96 247.088 91.984 247.088 92.032V95.38C247.088 95.46 247.048 95.5 246.968 95.5H246.14C246.06 95.5 246.02 95.46 246.02 95.38V87.46ZM255.569 95.5C255.489 95.5 255.449 95.46 255.449 95.38V94.876H255.437C255.301 95.092 255.093 95.272 254.813 95.416C254.533 95.56 254.173 95.632 253.733 95.632C253.461 95.632 253.205 95.596 252.965 95.524C252.733 95.452 252.529 95.344 252.353 95.2C252.185 95.056 252.049 94.876 251.945 94.66C251.849 94.444 251.801 94.192 251.801 93.904C251.801 93.296 251.997 92.848 252.389 92.56C252.789 92.272 253.341 92.128 254.045 92.128H255.353C255.401 92.128 255.425 92.104 255.425 92.056V91.636C255.425 91.236 255.329 90.948 255.137 90.772C254.945 90.596 254.581 90.508 254.045 90.508C253.717 90.508 253.445 90.548 253.229 90.628C253.013 90.7 252.821 90.796 252.653 90.916C252.581 90.972 252.525 90.968 252.485 90.904L252.161 90.352C252.129 90.288 252.137 90.232 252.185 90.184C252.401 90.016 252.673 89.88 253.001 89.776C253.329 89.672 253.709 89.62 254.141 89.62C254.957 89.62 255.537 89.772 255.881 90.076C256.225 90.372 256.397 90.872 256.397 91.576V95.38C256.397 95.46 256.357 95.5 256.277 95.5H255.569ZM253.973 94.768C254.429 94.768 254.785 94.672 255.041 94.48C255.297 94.28 255.425 94 255.425 93.64V93.004C255.425 92.956 255.401 92.932 255.353 92.932H254.201C253.697 92.932 253.333 93.008 253.109 93.16C252.885 93.304 252.773 93.54 252.773 93.868C252.773 94.164 252.877 94.388 253.085 94.54C253.293 94.692 253.589 94.768 253.973 94.768ZM259.813 95.5C259.741 95.5 259.693 95.46 259.669 95.38L257.605 89.872C257.581 89.792 257.613 89.752 257.701 89.752H258.529C258.601 89.752 258.653 89.792 258.685 89.872L260.173 94H260.197L261.649 89.872C261.673 89.792 261.721 89.752 261.793 89.752H262.609C262.697 89.752 262.729 89.792 262.705 89.872L260.653 95.38C260.629 95.46 260.577 95.5 260.497 95.5H259.813ZM266.061 95.632C265.501 95.632 265.021 95.496 264.621 95.224C264.229 94.952 263.953 94.572 263.793 94.084C263.729 93.884 263.681 93.676 263.649 93.46C263.617 93.236 263.601 92.956 263.601 92.62C263.601 92.284 263.617 92.008 263.649 91.792C263.681 91.576 263.729 91.368 263.793 91.168C263.953 90.672 264.229 90.292 264.621 90.028C265.021 89.756 265.501 89.62 266.061 89.62C266.621 89.62 267.097 89.756 267.489 90.028C267.889 90.292 268.169 90.672 268.329 91.168C268.393 91.368 268.441 91.576 268.473 91.792C268.505 92.008 268.521 92.284 268.521 92.62C268.521 92.956 268.505 93.236 268.473 93.46C268.441 93.676 268.393 93.884 268.329 94.084C268.169 94.572 267.889 94.952 267.489 95.224C267.097 95.496 266.621 95.632 266.061 95.632ZM266.061 94.696C266.381 94.696 266.653 94.62 266.877 94.468C267.101 94.308 267.261 94.084 267.357 93.796C267.405 93.636 267.437 93.472 267.453 93.304C267.477 93.128 267.489 92.9 267.489 92.62C267.489 92.34 267.477 92.116 267.453 91.948C267.437 91.78 267.405 91.616 267.357 91.456C267.261 91.168 267.101 90.948 266.877 90.796C266.653 90.636 266.381 90.556 266.061 90.556C265.741 90.556 265.469 90.636 265.245 90.796C265.021 90.948 264.861 91.168 264.765 91.456C264.717 91.616 264.681 91.78 264.657 91.948C264.641 92.116 264.633 92.34 264.633 92.62C264.633 92.9 264.641 93.128 264.657 93.304C264.681 93.472 264.717 93.636 264.765 93.796C264.861 94.084 265.021 94.308 265.245 94.468C265.469 94.62 265.741 94.696 266.061 94.696ZM270.256 95.5C270.176 95.5 270.136 95.46 270.136 95.38V89.872C270.136 89.792 270.176 89.752 270.256 89.752H271.024C271.104 89.752 271.144 89.792 271.144 89.872V90.46H271.156C271.284 90.212 271.472 90.012 271.72 89.86C271.976 89.7 272.296 89.62 272.68 89.62C272.912 89.62 273.128 89.66 273.328 89.74C273.536 89.812 273.712 89.916 273.856 90.052C273.912 90.108 273.92 90.164 273.88 90.22L273.436 90.808C273.388 90.872 273.332 90.88 273.268 90.832C273.132 90.744 272.992 90.676 272.848 90.628C272.704 90.58 272.548 90.556 272.38 90.556C271.94 90.556 271.624 90.712 271.432 91.024C271.24 91.328 271.144 91.732 271.144 92.236V95.38C271.144 95.46 271.104 95.5 271.024 95.5H270.256ZM275.154 88.456C275.074 88.456 275.034 88.416 275.034 88.336V87.46C275.034 87.38 275.074 87.34 275.154 87.34H275.97C276.05 87.34 276.09 87.38 276.09 87.46V88.336C276.09 88.416 276.05 88.456 275.97 88.456H275.154ZM275.178 95.5C275.098 95.5 275.058 95.46 275.058 95.38V89.872C275.058 89.792 275.098 89.752 275.178 89.752H275.946C276.026 89.752 276.066 89.792 276.066 89.872V95.38C276.066 95.46 276.026 95.5 275.946 95.5H275.178ZM279.703 95.56C279.143 95.56 278.743 95.432 278.503 95.176C278.271 94.912 278.155 94.496 278.155 93.928V90.64C278.155 90.592 278.131 90.568 278.083 90.568H277.603C277.523 90.568 277.483 90.528 277.483 90.448V89.872C277.483 89.792 277.523 89.752 277.603 89.752H278.083C278.131 89.752 278.155 89.728 278.155 89.68V88.06C278.155 87.98 278.195 87.94 278.275 87.94H279.043C279.123 87.94 279.163 87.98 279.163 88.06V89.68C279.163 89.728 279.187 89.752 279.235 89.752H280.147C280.227 89.752 280.267 89.792 280.267 89.872V90.448C280.267 90.528 280.227 90.568 280.147 90.568H279.235C279.187 90.568 279.163 90.592 279.163 90.64V93.892C279.163 94.18 279.219 94.376 279.331 94.48C279.451 94.576 279.639 94.624 279.895 94.624H280.147C280.227 94.624 280.267 94.664 280.267 94.744V95.44C280.267 95.52 280.227 95.56 280.147 95.56H279.703ZM283.98 95.632C283.396 95.632 282.904 95.5 282.504 95.236C282.112 94.964 281.836 94.576 281.676 94.072C281.612 93.888 281.564 93.684 281.532 93.46C281.5 93.236 281.484 92.956 281.484 92.62C281.484 92.284 281.496 92.004 281.52 91.78C281.552 91.548 281.6 91.344 281.664 91.168C281.824 90.664 282.1 90.28 282.492 90.016C282.892 89.752 283.368 89.62 283.92 89.62C284.472 89.62 284.944 89.756 285.336 90.028C285.736 90.292 286.016 90.672 286.176 91.168C286.208 91.264 286.232 91.364 286.248 91.468C286.272 91.564 286.292 91.676 286.308 91.804C286.324 91.932 286.336 92.08 286.344 92.248C286.352 92.408 286.356 92.596 286.356 92.812C286.356 92.892 286.312 92.932 286.224 92.932H282.588C282.54 92.932 282.516 92.956 282.516 93.004C282.516 93.164 282.524 93.296 282.54 93.4C282.556 93.504 282.58 93.604 282.612 93.7C282.724 94.036 282.904 94.288 283.152 94.456C283.4 94.616 283.704 94.696 284.064 94.696C284.408 94.696 284.7 94.636 284.94 94.516C285.18 94.396 285.38 94.244 285.54 94.06C285.604 93.996 285.664 93.988 285.72 94.036L286.212 94.48C286.268 94.528 286.272 94.584 286.224 94.648C285.992 94.936 285.684 95.172 285.3 95.356C284.924 95.54 284.484 95.632 283.98 95.632ZM285.252 92.128C285.3 92.128 285.324 92.104 285.324 92.056C285.324 91.792 285.296 91.576 285.24 91.408C285.144 91.12 284.98 90.9 284.748 90.748C284.524 90.588 284.248 90.508 283.92 90.508C283.592 90.508 283.312 90.588 283.08 90.748C282.856 90.9 282.696 91.12 282.6 91.408C282.544 91.576 282.516 91.792 282.516 92.056C282.516 92.104 282.54 92.128 282.588 92.128H285.252Z" fill="#9DB2CE"/>
<path d="M347.5 63.5C350.261 63.5 352.5 61.2614 352.5 58.5C352.5 55.7386 350.261 53.5 347.5 53.5C344.739 53.5 342.5 55.7386 342.5 58.5C342.5 61.2614 344.739 63.5 347.5 63.5Z" stroke="#9DB2CE" stroke-width="1.5" stroke-linecap="round" stroke-linejoin="round"/>
<path d="M356.09 73.5C356.09 69.63 352.24 66.5 347.5 66.5C342.76 66.5 338.91 69.63 338.91 73.5" stroke="#9DB2CE" stroke-width="1.5" stroke-linecap="round" stroke-linejoin="round"/>
<path d="M331.128 95.5C331.048 95.5 331.008 95.46 331.008 95.38V87.46C331.008 87.38 331.048 87.34 331.128 87.34H334.032C334.424 87.34 334.78 87.4 335.1 87.52C335.42 87.632 335.692 87.796 335.916 88.012C336.14 88.22 336.312 88.476 336.432 88.78C336.56 89.076 336.624 89.408 336.624 89.776C336.624 90.144 336.56 90.48 336.432 90.784C336.312 91.08 336.14 91.336 335.916 91.552C335.692 91.76 335.42 91.924 335.1 92.044C334.78 92.156 334.424 92.212 334.032 92.212H332.148C332.1 92.212 332.076 92.236 332.076 92.284V95.38C332.076 95.46 332.036 95.5 331.956 95.5H331.128ZM333.972 91.216C334.476 91.216 334.868 91.088 335.148 90.832C335.428 90.576 335.568 90.224 335.568 89.776C335.568 89.328 335.428 88.976 335.148 88.72C334.868 88.464 334.476 88.336 333.972 88.336H332.148C332.1 88.336 332.076 88.36 332.076 88.408V91.144C332.076 91.192 332.1 91.216 332.148 91.216H333.972ZM338.206 95.5C338.126 95.5 338.086 95.46 338.086 95.38V89.872C338.086 89.792 338.126 89.752 338.206 89.752H338.974C339.054 89.752 339.094 89.792 339.094 89.872V90.46H339.106C339.234 90.212 339.422 90.012 339.67 89.86C339.926 89.7 340.246 89.62 340.63 89.62C340.862 89.62 341.078 89.66 341.278 89.74C341.486 89.812 341.662 89.916 341.806 90.052C341.862 90.108 341.87 90.164 341.83 90.22L341.386 90.808C341.338 90.872 341.282 90.88 341.218 90.832C341.082 90.744 340.942 90.676 340.798 90.628C340.654 90.58 340.498 90.556 340.33 90.556C339.89 90.556 339.574 90.712 339.382 91.024C339.19 91.328 339.094 91.732 339.094 92.236V95.38C339.094 95.46 339.054 95.5 338.974 95.5H338.206ZM345.119 95.632C344.559 95.632 344.079 95.496 343.679 95.224C343.287 94.952 343.011 94.572 342.851 94.084C342.787 93.884 342.739 93.676 342.707 93.46C342.675 93.236 342.659 92.956 342.659 92.62C342.659 92.284 342.675 92.008 342.707 91.792C342.739 91.576 342.787 91.368 342.851 91.168C343.011 90.672 343.287 90.292 343.679 90.028C344.079 89.756 344.559 89.62 345.119 89.62C345.679 89.62 346.155 89.756 346.547 90.028C346.947 90.292 347.227 90.672 347.387 91.168C347.451 91.368 347.499 91.576 347.531 91.792C347.563 92.008 347.579 92.284 347.579 92.62C347.579 92.956 347.563 93.236 347.531 93.46C347.499 93.676 347.451 93.884 347.387 94.084C347.227 94.572 346.947 94.952 346.547 95.224C346.155 95.496 345.679 95.632 345.119 95.632ZM345.119 94.696C345.439 94.696 345.711 94.62 345.935 94.468C346.159 94.308 346.319 94.084 346.415 93.796C346.463 93.636 346.495 93.472 346.511 93.304C346.535 93.128 346.547 92.9 346.547 92.62C346.547 92.34 346.535 92.116 346.511 91.948C346.495 91.78 346.463 91.616 346.415 91.456C346.319 91.168 346.159 90.948 345.935 90.796C345.711 90.636 345.439 90.556 345.119 90.556C344.799 90.556 344.527 90.636 344.303 90.796C344.079 90.948 343.919 91.168 343.823 91.456C343.775 91.616 343.739 91.78 343.715 91.948C343.699 92.116 343.691 92.34 343.691 92.62C343.691 92.9 343.699 93.128 343.715 93.304C343.739 93.472 343.775 93.636 343.823 93.796C343.919 94.084 344.079 94.308 344.303 94.468C344.527 94.62 344.799 94.696 345.119 94.696ZM349.507 95.5C349.427 95.5 349.387 95.46 349.387 95.38V90.64C349.387 90.592 349.363 90.568 349.315 90.568H348.823C348.743 90.568 348.703 90.528 348.703 90.448V89.872C348.703 89.792 348.743 89.752 348.823 89.752H349.315C349.363 89.752 349.387 89.728 349.387 89.68V89.188C349.387 88.508 349.527 88.032 349.807 87.76C350.095 87.48 350.539 87.34 351.139 87.34H351.583C351.663 87.34 351.703 87.38 351.703 87.46V88.156C351.703 88.236 351.663 88.276 351.583 88.276H351.271C351.087 88.276 350.939 88.288 350.827 88.312C350.715 88.336 350.627 88.38 350.563 88.444C350.499 88.508 350.455 88.596 350.431 88.708C350.407 88.82 350.395 88.964 350.395 89.14V89.68C350.395 89.728 350.419 89.752 350.467 89.752H351.583C351.663 89.752 351.703 89.792 351.703 89.872V90.448C351.703 90.528 351.663 90.568 351.583 90.568H350.467C350.419 90.568 350.395 90.592 350.395 90.64V95.38C350.395 95.46 350.355 95.5 350.275 95.5H349.507ZM353.111 88.456C353.031 88.456 352.991 88.416 352.991 88.336V87.46C352.991 87.38 353.031 87.34 353.111 87.34H353.927C354.007 87.34 354.047 87.38 354.047 87.46V88.336C354.047 88.416 354.007 88.456 353.927 88.456H353.111ZM353.135 95.5C353.055 95.5 353.015 95.46 353.015 95.38V89.872C353.015 89.792 353.055 89.752 353.135 89.752H353.903C353.983 89.752 354.023 89.792 354.023 89.872V95.38C354.023 95.46 353.983 95.5 353.903 95.5H353.135ZM357.372 95.56C356.868 95.56 356.508 95.44 356.292 95.2C356.076 94.952 355.968 94.568 355.968 94.048V87.46C355.968 87.38 356.008 87.34 356.088 87.34H356.856C356.936 87.34 356.976 87.38 356.976 87.46V93.988C356.976 94.228 357.02 94.396 357.108 94.492C357.204 94.58 357.352 94.624 357.552 94.624H357.78C357.86 94.624 357.9 94.664 357.9 94.744V95.44C357.9 95.52 357.86 95.56 357.78 95.56H357.372ZM361.468 95.632C360.884 95.632 360.392 95.5 359.992 95.236C359.6 94.964 359.324 94.576 359.164 94.072C359.1 93.888 359.052 93.684 359.02 93.46C358.988 93.236 358.972 92.956 358.972 92.62C358.972 92.284 358.984 92.004 359.008 91.78C359.04 91.548 359.088 91.344 359.152 91.168C359.312 90.664 359.588 90.28 359.98 90.016C360.38 89.752 360.856 89.62 361.408 89.62C361.96 89.62 362.432 89.756 362.824 90.028C363.224 90.292 363.504 90.672 363.664 91.168C363.696 91.264 363.72 91.364 363.736 91.468C363.76 91.564 363.78 91.676 363.796 91.804C363.812 91.932 363.824 92.08 363.832 92.248C363.84 92.408 363.844 92.596 363.844 92.812C363.844 92.892 363.8 92.932 363.712 92.932H360.076C360.028 92.932 360.004 92.956 360.004 93.004C360.004 93.164 360.012 93.296 360.028 93.4C360.044 93.504 360.068 93.604 360.1 93.7C360.212 94.036 360.392 94.288 360.64 94.456C360.888 94.616 361.192 94.696 361.552 94.696C361.896 94.696 362.188 94.636 362.428 94.516C362.668 94.396 362.868 94.244 363.028 94.06C363.092 93.996 363.152 93.988 363.208 94.036L363.7 94.48C363.756 94.528 363.76 94.584 363.712 94.648C363.48 94.936 363.172 95.172 362.788 95.356C362.412 95.54 361.972 95.632 361.468 95.632ZM362.74 92.128C362.788 92.128 362.812 92.104 362.812 92.056C362.812 91.792 362.784 91.576 362.728 91.408C362.632 91.12 362.468 90.9 362.236 90.748C362.012 90.588 361.736 90.508 361.408 90.508C361.08 90.508 360.8 90.588 360.568 90.748C360.344 90.9 360.184 91.12 360.088 91.408C360.032 91.576 360.004 91.792 360.004 92.056C360.004 92.104 360.028 92.128 360.076 92.128H362.74Z" fill="#9DB2CE"/>
<rect x="162" y="118" width="104" height="4" rx="2" fill="#9DB2CE"/>
</svg>
