<svg width="526" height="347" viewBox="0 0 526 347" fill="none" xmlns="http://www.w3.org/2000/svg">
<path d="M516.126 242.214C509.201 210.204 495.171 178.875 478.301 150.714C450.901 104.978 409.953 64.7481 355.48 52.776C232.029 25.6427 205.488 144.439 177.711 160.111C149.934 175.79 80.8018 167.347 43.154 217.396C5.49143 267.445 9.81264 346.441 9.81264 346.441H521.513C522.682 311.516 523.504 276.302 516.126 242.214Z" fill="#423DBD"/>
<path opacity="0.7" d="M516.126 242.214C509.201 210.204 495.171 178.875 478.301 150.714C450.901 104.978 409.953 64.7481 355.48 52.776C232.029 25.6427 205.488 144.439 177.711 160.111C149.934 175.79 80.8018 167.347 43.154 217.396C5.49143 267.445 9.81264 346.441 9.81264 346.441H521.513C522.682 311.516 523.504 276.302 516.126 242.214Z" fill="white"/>
<path d="M373.031 240.483C373.031 240.483 373.031 240.399 372.989 240.382C372.955 240.365 372.913 240.382 372.896 240.416C370.682 245.521 369.13 250.881 367.833 256.291C366.578 261.71 365.67 267.214 365.034 272.752L364.636 276.916C364.576 277.611 364.5 278.307 364.449 279.002L364.339 281.088C364.28 282.479 364.195 283.87 364.152 285.269L364.186 289.45L364.229 291.536C364.263 292.232 364.313 292.927 364.356 293.623C364.458 295.013 364.542 296.404 364.67 297.787C364.933 300.56 365.357 303.316 365.781 306.064C365.781 306.098 365.815 306.123 365.857 306.123C365.899 306.123 365.933 306.089 365.933 306.047C365.933 304.647 365.865 303.265 365.84 301.874C365.798 300.492 365.679 299.11 365.696 297.727C365.696 296.345 365.662 294.963 365.653 293.58L365.611 291.511L365.645 289.442L365.662 285.295L365.772 281.156L365.815 279.087C365.84 278.4 365.891 277.705 365.933 277.018L366.188 272.879C366.671 267.375 367.426 261.888 368.528 256.461C369.631 251.042 370.988 245.648 373.015 240.492L373.031 240.483Z" fill="#263238"/>
<path d="M373.625 262.143C373.625 262.143 373.616 262.066 373.582 262.049C373.54 262.033 373.506 262.049 373.489 262.092C372.293 265.535 371.344 269.054 370.538 272.616C369.766 276.178 369.164 279.791 368.799 283.429C368.435 287.05 368.028 290.68 367.977 294.326C367.917 297.973 367.977 301.62 368.367 305.258C368.367 305.292 368.401 305.317 368.435 305.326C368.477 305.326 368.511 305.3 368.519 305.258C368.944 301.628 369.198 298.007 369.452 294.386C369.707 290.765 369.741 287.143 369.978 283.522C370.199 279.918 370.648 276.322 371.267 272.752C371.878 269.182 372.633 265.628 373.633 262.134L373.625 262.143Z" fill="#263238"/>
<path d="M385.633 269.766C385.633 269.766 385.565 269.723 385.531 269.74C382.529 271.64 379.841 274.04 377.5 276.745C376.347 278.119 375.278 279.552 374.362 281.113L373.718 282.334L373.209 283.598C373.031 284.013 372.904 284.446 372.768 284.878C372.641 285.311 372.497 285.743 372.378 286.176C371.479 289.653 370.877 293.206 370.716 296.768C370.572 300.33 370.639 303.9 371.114 307.436C371.114 307.47 371.148 307.496 371.182 307.496C371.225 307.496 371.258 307.47 371.258 307.428L372.174 296.87C372.539 293.376 372.759 289.865 373.514 286.456C373.608 286.031 373.735 285.616 373.837 285.192C373.947 284.768 374.049 284.352 374.21 283.945L374.642 282.724L375.193 281.571C376.008 280.044 377 278.586 378.068 277.203C380.214 274.439 382.733 271.911 385.608 269.868C385.608 269.868 385.65 269.8 385.625 269.766H385.633Z" fill="#263238"/>
<path d="M379.824 283.335C378.188 284.395 377.094 286.058 376.169 287.728C375.296 289.441 374.6 291.248 374.126 293.105C373.981 293.563 373.871 294.029 373.769 294.496L373.439 295.903C373.269 296.845 373.142 297.803 373.082 298.753C373.074 299.711 373.04 300.67 373.108 301.619C373.184 302.578 373.294 303.528 373.481 304.469C373.481 304.494 373.506 304.52 373.54 304.528C373.583 304.528 373.617 304.511 373.625 304.469C373.854 303.528 374.007 302.595 374.134 301.662C374.278 300.729 374.431 299.805 374.541 298.88C374.677 297.956 374.795 297.04 374.872 296.116C374.999 295.2 375.067 294.267 375.27 293.359C375.593 291.528 376.118 289.738 376.839 288.034C377.552 286.337 378.476 284.65 379.909 283.454H379.918C379.918 283.454 379.952 283.378 379.935 283.352C379.909 283.318 379.867 283.31 379.833 283.327L379.824 283.335Z" fill="#263238"/>
<path d="M362.983 293.919C362.584 289.229 361.813 284.59 361.083 279.952C360.354 275.313 359.54 270.682 358.692 266.069C357.81 261.455 356.894 256.85 355.902 252.262C355.902 252.229 355.859 252.203 355.817 252.203C355.774 252.203 355.749 252.246 355.757 252.288C356.563 256.91 357.284 261.549 357.971 266.188C358.675 270.826 359.336 275.465 359.921 280.113C360.498 284.768 360.939 289.424 361.524 294.072L363.237 308.031C363.237 308.031 363.271 308.09 363.305 308.098C363.348 308.098 363.381 308.073 363.381 308.031C363.432 306.852 363.432 305.682 363.466 304.503C363.475 303.324 363.415 302.154 363.398 300.975C363.356 298.617 363.153 296.277 362.974 293.927L362.983 293.919Z" fill="#263238"/>
<path d="M360.167 293.851C359.912 291.994 359.573 290.145 359.217 288.305L358.555 285.566C358.343 284.65 358.131 283.742 357.868 282.835C356.936 279.205 355.74 275.635 354.281 272.175L353.721 270.886L353.094 269.622C352.695 268.774 352.212 267.96 351.762 267.146C350.779 265.552 349.761 263.957 348.379 262.66C348.353 262.634 348.302 262.634 348.277 262.66C348.251 262.685 348.251 262.736 348.277 262.761C349.557 264.093 350.49 265.738 351.372 267.358C351.779 268.189 352.212 269.012 352.56 269.868L353.111 271.14L353.603 272.446C354.9 275.915 355.943 279.485 356.724 283.115C357.148 284.921 357.436 286.761 357.784 288.576L358.225 291.324C358.386 292.24 358.581 293.147 358.708 294.063C359.005 295.895 359.336 297.727 359.658 299.559C359.946 301.399 360.277 303.231 360.667 305.071C360.667 305.105 360.701 305.13 360.735 305.13C360.777 305.13 360.811 305.096 360.811 305.054C360.811 303.18 360.777 301.306 360.684 299.431C360.574 297.557 360.353 295.7 360.158 293.834L360.167 293.851Z" fill="#263238"/>
<path d="M356.29 294.089C355.425 291.63 354.416 289.222 353.322 286.864C352.194 284.515 350.982 282.208 349.591 280.02C349.565 279.986 349.523 279.978 349.489 279.995C349.455 280.012 349.447 280.063 349.464 280.097C350.685 282.378 351.719 284.752 352.652 287.161C353.602 289.561 354.459 291.995 355.179 294.463C355.909 296.93 356.435 299.449 357.096 301.934C357.783 304.41 358.343 306.921 359.106 309.431C359.114 309.465 359.14 309.482 359.174 309.482C359.216 309.482 359.25 309.448 359.25 309.405C359.284 306.785 359.03 304.173 358.521 301.603C358.063 299.025 357.155 296.557 356.29 294.098V294.089Z" fill="#263238"/>
<path d="M356.13 302.282C355.689 300.738 354.926 299.305 354.069 297.957C353.221 296.6 352.237 295.311 351.067 294.225C350.465 293.699 349.837 293.199 349.159 292.784C348.481 292.36 347.768 292.003 346.988 291.8C346.954 291.791 346.92 291.8 346.903 291.842C346.886 291.876 346.903 291.919 346.937 291.936H346.946C348.353 292.563 349.541 293.598 350.541 294.734C351.559 295.87 352.373 297.168 353.043 298.525C353.755 299.873 354.12 301.357 354.739 302.748C355.011 303.461 355.282 304.173 355.596 304.885C355.867 305.606 356.164 306.335 356.537 307.048C356.537 307.048 356.571 307.09 356.596 307.09C356.639 307.09 356.673 307.056 356.673 307.022C356.707 306.217 356.656 305.42 356.579 304.622C356.461 303.834 356.3 303.054 356.113 302.273L356.13 302.282Z" fill="#263238"/>
<path d="M356.419 258.972C356.419 258.972 348.736 257.199 346.963 248.922C345.191 240.645 350.907 244.19 345.784 231.189C340.662 218.189 341.841 215.229 343.613 211.489C345.386 207.749 346.369 208.928 347.947 213.855C349.524 218.782 355.24 226.466 357.403 240.84C359.574 255.223 356.419 258.963 356.419 258.963V258.972Z" fill="#423DBD"/>
<path d="M371.59 244.988C371.59 244.988 366.468 243.216 366.273 233.565C366.078 223.914 370.013 225.881 370.606 213.864C371.2 201.847 371.989 193.375 374.151 193.18C376.322 192.985 382.029 199.091 383.997 212.491C385.964 225.89 381.436 234.752 377.492 238.695C373.549 242.639 371.581 244.997 371.581 244.997L371.59 244.988Z" fill="#423DBD"/>
<path d="M353.662 270.599C353.662 270.599 352.483 263.509 350.117 260.159C347.751 256.81 342.629 253.858 339.279 247.354C335.929 240.849 332.189 237.703 332.384 246.964C332.579 256.224 336.718 260.948 341.84 264.103C346.962 267.258 353.662 270.607 353.662 270.607V270.599Z" fill="#423DBD"/>
<path d="M351.491 282.812C351.491 282.812 346.759 273.746 339.864 267.055C332.97 260.355 327.457 257.005 329.425 260.355C331.392 263.705 333.758 263.51 337.108 269.421C340.458 275.332 339.474 279.665 344.198 283.015C348.93 286.365 351.483 282.82 351.483 282.82L351.491 282.812Z" fill="#423DBD"/>
<path d="M350.898 294.429C350.703 293.835 350.508 289.502 343.808 285.957C337.109 282.412 330.808 283.786 331.596 285.567C332.385 287.339 336.524 290.299 340.662 292.071C344.801 293.844 350.907 294.437 350.907 294.437L350.898 294.429Z" fill="#423DBD"/>
<path d="M371.192 270.988C371.192 270.988 368.24 267.249 369.809 259.362C371.387 251.483 374.931 253.451 378.875 249.312C382.818 245.174 382.03 244.58 385.965 240.246C389.908 235.913 393.453 233.547 395.03 235.319C396.608 237.092 394.242 242.604 391.876 245.759C389.51 248.914 385.77 250.491 383.997 254.426C382.225 258.369 383.013 264.67 378.485 267.622C373.956 270.573 371.2 270.972 371.2 270.972L371.192 270.988Z" fill="#423DBD"/>
<path d="M381.046 273.16C381.046 273.16 388.135 265.086 393.258 259.175C398.38 253.264 400.347 248.736 400.542 252.671C400.737 256.614 402.315 259.76 398.176 264.883C394.038 270.005 381.037 273.16 381.037 273.16H381.046Z" fill="#423DBD"/>
<path d="M377.297 286.161C377.297 286.161 377.102 283.006 388.33 275.721C399.559 268.436 404.291 267.054 403.103 270.005C401.925 272.956 396.997 275.916 391.68 281.234C386.363 286.551 377.297 286.161 377.297 286.161Z" fill="#423DBD"/>
<path d="M356.885 258.132C356.885 258.132 354.248 244.004 351.492 233.954C348.735 223.905 346.963 217.799 346.963 217.799" stroke="#263238" stroke-linecap="round" stroke-linejoin="round"/>
<path d="M371.133 245.132C371.133 245.132 375.924 229.816 377.493 220.556C379.071 211.295 377.298 204.4 376.51 200.262" stroke="#263238" stroke-linecap="round" stroke-linejoin="round"/>
<path d="M353.035 270.302C353.035 270.302 350.109 265.078 345.776 259.956C341.442 254.834 338.092 252.078 336.125 247.15" stroke="#263238" stroke-linecap="round" stroke-linejoin="round"/>
<path d="M371.191 270.99C371.191 270.99 372.769 261.535 376.509 256.607C380.249 251.68 387.737 243.997 390.697 239.078" stroke="#263238" stroke-linecap="round" stroke-linejoin="round"/>
<path d="M350.439 294.218C350.439 294.218 343.808 289.901 339.084 287.535" stroke="#263238" stroke-linecap="round" stroke-linejoin="round"/>
<path d="M371.208 346.415C374.287 346.415 376.839 344.066 377.102 341.005C378.086 329.31 380.138 303.02 379.078 301.723C374.736 296.431 356.037 296.431 351.695 301.723C350.634 303.02 352.687 329.302 353.671 341.005C353.925 344.066 356.486 346.415 359.564 346.415H371.217H371.208Z" fill="#263238" stroke="#263238" stroke-linecap="round" stroke-linejoin="round"/>
<path d="M9.7207 346.441L522.731 346.441" stroke="#263238" stroke-linecap="round" stroke-linejoin="round"/>
<path d="M124.041 58.7891L127.537 62.253L129.466 59.1748L124.041 58.7891Z" stroke="#263238" stroke-width="0.5" stroke-linecap="round" stroke-linejoin="round"/>
<path d="M80.2656 64.5996L83.7617 68.0635L85.6905 64.9854L80.2656 64.5996Z" stroke="#263238" stroke-width="0.5" stroke-linecap="round" stroke-linejoin="round"/>
<path d="M163.142 46.6621L160.939 51.0663L164.46 51.9423L163.142 46.6621Z" stroke="#263238" stroke-width="0.5" stroke-linecap="round" stroke-linejoin="round"/>
<path d="M124.3 84.6925L120.884 81.1562L118.883 84.1781L124.3 84.6925Z" stroke="#263238" stroke-width="0.5" stroke-linecap="round" stroke-linejoin="round"/>
<path d="M104.247 86.003L100.823 82.4668L98.8301 85.4967L104.247 86.003Z" stroke="#263238" stroke-width="0.5" stroke-linecap="round" stroke-linejoin="round"/>
<path d="M147.445 70.2414L151.448 67.3803L148.747 64.9531L147.445 70.2414Z" stroke="#263238" stroke-width="0.5" stroke-linecap="round" stroke-linejoin="round"/>
<path d="M102.406 55.9931L106.409 53.132L103.708 50.7129L102.406 55.9931Z" stroke="#263238" stroke-width="0.5" stroke-linecap="round" stroke-linejoin="round"/>
<path d="M122.74 106.753L126.743 103.892L124.042 101.473L122.74 106.753Z" stroke="#263238" stroke-width="0.5" stroke-linecap="round" stroke-linejoin="round"/>
<path d="M229.324 72.4512L232.82 75.9151L234.749 72.8369L229.324 72.4512Z" stroke="#263238" stroke-width="0.5" stroke-linecap="round" stroke-linejoin="round"/>
<path d="M268.786 81.4375L266.592 85.8337L270.112 86.7177L268.786 81.4375Z" stroke="#263238" stroke-width="0.5" stroke-linecap="round" stroke-linejoin="round"/>
<path d="M215.534 58.1641L213.332 62.5683L216.852 63.4443L215.534 58.1641Z" stroke="#263238" stroke-width="0.5" stroke-linecap="round" stroke-linejoin="round"/>
<path d="M291.145 84.7246L288.943 89.1208L292.464 90.0049L291.145 84.7246Z" stroke="#263238" stroke-width="0.5" stroke-linecap="round" stroke-linejoin="round"/>
<path d="M351.165 35.6758L348.963 40.072L352.483 40.956L351.165 35.6758Z" stroke="#263238" stroke-width="0.5" stroke-linecap="round" stroke-linejoin="round"/>
<path d="M229.583 88.712L226.167 85.1758L224.166 88.1977L229.583 88.712Z" stroke="#263238" stroke-width="0.5" stroke-linecap="round" stroke-linejoin="round"/>
<path d="M402.995 88.1808L399.579 84.6445L397.578 87.6664L402.995 88.1808Z" stroke="#263238" stroke-width="0.5" stroke-linecap="round" stroke-linejoin="round"/>
<path d="M252.07 56.6047L256.073 53.7355L253.372 51.3164L252.07 56.6047Z" stroke="#263238" stroke-width="0.5" stroke-linecap="round" stroke-linejoin="round"/>
<path d="M207.689 51.9736L211.692 49.1125L208.991 46.6934L207.689 51.9736Z" stroke="#263238" stroke-width="0.5" stroke-linecap="round" stroke-linejoin="round"/>
<path d="M273.77 62.2297L277.772 59.3605L275.072 56.9414L273.77 62.2297Z" stroke="#263238" stroke-width="0.5" stroke-linecap="round" stroke-linejoin="round"/>
<path d="M376.594 158.255L380.596 155.394L377.896 152.967L376.594 158.255Z" stroke="#263238" stroke-width="0.5" stroke-linecap="round" stroke-linejoin="round"/>
<path d="M196.245 134.44L192.749 130.977L190.82 134.047L196.245 134.44Z" stroke="#263238" stroke-width="0.5" stroke-linecap="round" stroke-linejoin="round"/>
<path d="M230.105 132.134L226.609 128.678L224.68 131.748L230.105 132.134Z" stroke="#263238" stroke-width="0.5" stroke-linecap="round" stroke-linejoin="round"/>
<path d="M268.634 136.522L265.138 133.059L263.201 136.137L268.634 136.522Z" stroke="#263238" stroke-width="0.5" stroke-linecap="round" stroke-linejoin="round"/>
<path d="M173.027 121.132L175.221 116.736L171.701 115.852L173.027 121.132Z" stroke="#263238" stroke-width="0.5" stroke-linecap="round" stroke-linejoin="round"/>
<path d="M410.677 125.528L412.88 121.124L409.359 120.248L410.677 125.528Z" stroke="#263238" stroke-width="0.5" stroke-linecap="round" stroke-linejoin="round"/>
<path d="M464.943 176.489L467.145 172.085L463.625 171.209L464.943 176.489Z" stroke="#263238" stroke-width="0.5" stroke-linecap="round" stroke-linejoin="round"/>
<path d="M195.988 118.182L199.404 121.718L201.405 118.688L195.988 118.182Z" stroke="#263238" stroke-width="0.5" stroke-linecap="round" stroke-linejoin="round"/>
<path d="M216.041 116.873L219.457 120.409L221.458 117.379L216.041 116.873Z" stroke="#263238" stroke-width="0.5" stroke-linecap="round" stroke-linejoin="round"/>
<path d="M277.008 274.42L280.432 277.956L282.433 274.926L277.008 274.42Z" stroke="#263238" stroke-width="0.5" stroke-linecap="round" stroke-linejoin="round"/>
<path d="M503.866 155.168L499.863 158.029L502.564 160.448L503.866 155.168Z" stroke="#263238" stroke-width="0.5" stroke-linecap="round" stroke-linejoin="round"/>
<path d="M158.528 82.9082L154.525 85.7693L157.226 88.1884L158.528 82.9082Z" stroke="#263238" stroke-width="0.5" stroke-linecap="round" stroke-linejoin="round"/>
<path d="M301.441 119.026L303.643 114.63L300.123 113.746L301.441 119.026Z" stroke="#263238" stroke-width="0.5" stroke-linecap="round" stroke-linejoin="round"/>
<path d="M279.09 115.739L281.284 111.343L277.764 110.459L279.09 115.739Z" stroke="#263238" stroke-width="0.5" stroke-linecap="round" stroke-linejoin="round"/>
<path d="M292.038 117.072L288.035 119.933L290.736 122.353L292.038 117.072Z" stroke="#263238" stroke-width="0.5" stroke-linecap="round" stroke-linejoin="round"/>
<path d="M401.017 51.9344L397.521 48.4785L395.592 51.5486L401.017 51.9344Z" stroke="#263238" stroke-width="0.5" stroke-linecap="round" stroke-linejoin="round"/>
<path d="M488.82 185.435L485.324 181.971L483.387 185.041L488.82 185.435Z" stroke="#263238" stroke-width="0.5" stroke-linecap="round" stroke-linejoin="round"/>
<path d="M51.4938 121.436L53.6959 117.04L50.1758 116.156L51.4938 121.436Z" stroke="#263238" stroke-width="0.5" stroke-linecap="round" stroke-linejoin="round"/>
<path d="M432.345 86.4287L434.547 82.0245L431.027 81.1484L432.345 86.4287Z" stroke="#263238" stroke-width="0.5" stroke-linecap="round" stroke-linejoin="round"/>
<path d="M90.7051 114.164L94.1208 117.7L96.1219 114.67L90.7051 114.164Z" stroke="#263238" stroke-width="0.5" stroke-linecap="round" stroke-linejoin="round"/>
<path d="M248.172 105.324L244.17 108.185L246.878 110.604L248.172 105.324Z" stroke="#263238" stroke-width="0.5" stroke-linecap="round" stroke-linejoin="round"/>
<path d="M468.078 208.381L471.574 211.837L473.503 208.767L468.078 208.381Z" stroke="#263238" stroke-width="0.5" stroke-linecap="round" stroke-linejoin="round"/>
<path d="M14.8691 286.523L18.3732 289.987L20.3021 286.909L14.8691 286.523Z" stroke="#263238" stroke-width="0.5" stroke-linecap="round" stroke-linejoin="round"/>
<path d="M51.6543 146.721L55.1503 150.177L57.0792 147.106L51.6543 146.721Z" stroke="#263238" stroke-width="0.5" stroke-linecap="round" stroke-linejoin="round"/>
<path d="M437.842 111.592L435.648 115.996L439.169 116.872L437.842 111.592Z" stroke="#263238" stroke-width="0.5" stroke-linecap="round" stroke-linejoin="round"/>
<path d="M522.929 237.112L525.131 232.708L521.611 231.832L522.929 237.112Z" stroke="#263238" stroke-width="0.5" stroke-linecap="round" stroke-linejoin="round"/>
<path d="M464.943 283.237L467.145 278.841L463.625 277.957L464.943 283.237Z" stroke="#263238" stroke-width="0.5" stroke-linecap="round" stroke-linejoin="round"/>
<path d="M503.866 261.914L499.863 264.775L502.564 267.202L503.866 261.914Z" stroke="#263238" stroke-width="0.5" stroke-linecap="round" stroke-linejoin="round"/>
<path d="M488.82 292.182L485.324 288.727L483.387 291.797L488.82 292.182Z" stroke="#263238" stroke-width="0.5" stroke-linecap="round" stroke-linejoin="round"/>
<path d="M437.842 218.348L435.648 222.752L439.169 223.628L437.842 218.348Z" stroke="#263238" stroke-width="0.5" stroke-linecap="round" stroke-linejoin="round"/>
<path d="M124.3 165.062L120.884 161.525L118.883 164.547L124.3 165.062Z" stroke="#263238" stroke-width="0.5" stroke-linecap="round" stroke-linejoin="round"/>
<path d="M104.247 166.372L100.823 162.836L98.8301 165.866L104.247 166.372Z" stroke="#263238" stroke-width="0.5" stroke-linecap="round" stroke-linejoin="round"/>
<path d="M75.3153 153.224L71.8996 149.688L69.8984 152.717L75.3153 153.224Z" stroke="#263238" stroke-width="0.5" stroke-linecap="round" stroke-linejoin="round"/>
<path d="M147.445 150.611L151.448 147.749L148.747 145.322L147.445 150.611Z" stroke="#263238" stroke-width="0.5" stroke-linecap="round" stroke-linejoin="round"/>
<path d="M187.469 160.232L191.471 157.371L188.771 154.943L187.469 160.232Z" stroke="#263238" stroke-width="0.5" stroke-linecap="round" stroke-linejoin="round"/>
<path d="M3.00657 158.021L0.8125 162.418L4.33266 163.302L3.00657 158.021Z" stroke="#263238" stroke-width="0.5" stroke-linecap="round" stroke-linejoin="round"/>
<path d="M41.1982 167.506L38.9961 171.902L42.5163 172.786L41.1982 167.506Z" stroke="#263238" stroke-width="0.5" stroke-linecap="round" stroke-linejoin="round"/>
<path d="M28.9501 152.419L25.5264 148.883L23.5332 151.913L28.9501 152.419Z" stroke="#263238" stroke-width="0.5" stroke-linecap="round" stroke-linejoin="round"/>
<path d="M13.5117 191.198L17.5061 188.337L14.8057 185.918L13.5117 191.198Z" stroke="#263238" stroke-width="0.5" stroke-linecap="round" stroke-linejoin="round"/>
<path d="M122.74 187.124L126.743 184.263L124.042 181.844L122.74 187.124Z" stroke="#263238" stroke-width="0.5" stroke-linecap="round" stroke-linejoin="round"/>
<path d="M348.762 175.654L352.258 179.11L354.187 176.04L348.762 175.654Z" stroke="#263238" stroke-width="0.5" stroke-linecap="round" stroke-linejoin="round"/>
<path d="M268.786 161.807L266.592 166.203L270.112 167.087L268.786 161.807Z" stroke="#263238" stroke-width="0.5" stroke-linecap="round" stroke-linejoin="round"/>
<path d="M302.325 148.33L300.123 152.726L303.643 153.61L302.325 148.33Z" stroke="#263238" stroke-width="0.5" stroke-linecap="round" stroke-linejoin="round"/>
<path d="M326.684 97.6476L323.261 94.1113L321.268 97.1332L326.684 97.6476Z" stroke="#263238" stroke-width="0.5" stroke-linecap="round" stroke-linejoin="round"/>
<path d="M278.897 150.009L275.474 146.473L273.48 149.503L278.897 150.009Z" stroke="#263238" stroke-width="0.5" stroke-linecap="round" stroke-linejoin="round"/>
<path d="M228.023 191.142L232.026 188.28L229.325 185.861L228.023 191.142Z" stroke="#263238" stroke-width="0.5" stroke-linecap="round" stroke-linejoin="round"/>
<path d="M72.1074 177.921L76.1098 175.06L73.4094 172.633L72.1074 177.921Z" stroke="#263238" stroke-width="0.5" stroke-linecap="round" stroke-linejoin="round"/>
<path d="M230.105 212.505L226.609 209.049L224.68 212.119L230.105 212.505Z" stroke="#263238" stroke-width="0.5" stroke-linecap="round" stroke-linejoin="round"/>
<path d="M384.324 133.436L386.526 129.032L383.006 128.156L384.324 133.436Z" stroke="#263238" stroke-width="0.5" stroke-linecap="round" stroke-linejoin="round"/>
<path d="M326.508 327.609L330.51 324.747L327.81 322.32L326.508 327.609Z" stroke="#263238" stroke-width="0.5" stroke-linecap="round" stroke-linejoin="round"/>
<path d="M360.599 294.882L362.801 290.478L359.281 289.602L360.599 294.882Z" stroke="#263238" stroke-width="0.5" stroke-linecap="round" stroke-linejoin="round"/>
<path d="M334.24 302.782L336.442 298.386L332.922 297.502L334.24 302.782Z" stroke="#263238" stroke-width="0.5" stroke-linecap="round" stroke-linejoin="round"/>
<path d="M134.426 202.538L136.62 198.142L133.1 197.258L134.426 202.538Z" stroke="#263238" stroke-width="0.5" stroke-linecap="round" stroke-linejoin="round"/>
<path d="M195.988 198.553L199.404 202.089L201.405 199.059L195.988 198.553Z" stroke="#263238" stroke-width="0.5" stroke-linecap="round" stroke-linejoin="round"/>
<path d="M216.041 197.242L219.457 200.778L221.458 197.749L216.041 197.242Z" stroke="#263238" stroke-width="0.5" stroke-linecap="round" stroke-linejoin="round"/>
<path d="M244.965 210.391L248.389 213.927L250.39 210.897L244.965 210.391Z" stroke="#263238" stroke-width="0.5" stroke-linecap="round" stroke-linejoin="round"/>
<path d="M172.834 213.002L168.84 215.863L171.54 218.29L172.834 213.002Z" stroke="#263238" stroke-width="0.5" stroke-linecap="round" stroke-linejoin="round"/>
<path d="M147.373 203.873L143.371 206.734L146.071 209.153L147.373 203.873Z" stroke="#263238" stroke-width="0.5" stroke-linecap="round" stroke-linejoin="round"/>
<path d="M174.321 181.08L170.318 183.941L173.019 186.36L174.321 181.08Z" stroke="#263238" stroke-width="0.5" stroke-linecap="round" stroke-linejoin="round"/>
<path d="M304.591 176.925L306.794 172.529L303.273 171.645L304.591 176.925Z" stroke="#263238" stroke-width="0.5" stroke-linecap="round" stroke-linejoin="round"/>
<path d="M279.09 196.108L281.284 191.712L277.764 190.828L279.09 196.108Z" stroke="#263238" stroke-width="0.5" stroke-linecap="round" stroke-linejoin="round"/>
<path d="M292.038 197.443L288.035 200.304L290.736 202.724L292.038 197.443Z" stroke="#263238" stroke-width="0.5" stroke-linecap="round" stroke-linejoin="round"/>
<path d="M370.694 99.3672L366.691 102.228L369.392 104.647L370.694 99.3672Z" stroke="#263238" stroke-width="0.5" stroke-linecap="round" stroke-linejoin="round"/>
<path d="M90.962 210.792L87.466 207.328L85.5371 210.398L90.962 210.792Z" stroke="#263238" stroke-width="0.5" stroke-linecap="round" stroke-linejoin="round"/>
<path d="M124.821 208.485L121.325 205.029L119.396 208.099L124.821 208.485Z" stroke="#263238" stroke-width="0.5" stroke-linecap="round" stroke-linejoin="round"/>
<path d="M104.754 207.399L106.956 202.995L103.436 202.119L104.754 207.399Z" stroke="#263238" stroke-width="0.5" stroke-linecap="round" stroke-linejoin="round"/>
<path d="M17.9626 215.284L20.1647 210.888L16.6445 210.004L17.9626 215.284Z" stroke="#263238" stroke-width="0.5" stroke-linecap="round" stroke-linejoin="round"/>
<path d="M110.758 193.225L114.173 196.761L116.175 193.731L110.758 193.225Z" stroke="#263238" stroke-width="0.5" stroke-linecap="round" stroke-linejoin="round"/>
<path d="M39.7676 315.666L43.1833 319.202L45.1844 316.18L39.7676 315.666Z" stroke="#263238" stroke-width="0.5" stroke-linecap="round" stroke-linejoin="round"/>
<path d="M65.9279 311.053L61.9336 313.914L64.634 316.333L65.9279 311.053Z" stroke="#263238" stroke-width="0.5" stroke-linecap="round" stroke-linejoin="round"/>
<path d="M92.2641 172.473L88.2617 175.334L90.9621 177.753L92.2641 172.473Z" stroke="#263238" stroke-width="0.5" stroke-linecap="round" stroke-linejoin="round"/>
<path d="M223.763 295.749L220.267 292.285L218.33 295.363L223.763 295.749Z" stroke="#263238" stroke-width="0.5" stroke-linecap="round" stroke-linejoin="round"/>
<path d="M184.295 286.765L186.497 282.368L182.977 281.484L184.295 286.765Z" stroke="#263238" stroke-width="0.5" stroke-linecap="round" stroke-linejoin="round"/>
<path d="M150.766 300.243L152.96 295.847L149.439 294.963L150.766 300.243Z" stroke="#263238" stroke-width="0.5" stroke-linecap="round" stroke-linejoin="round"/>
<path d="M200.352 293.941L196.35 296.803L199.05 299.23L200.352 293.941Z" stroke="#263238" stroke-width="0.5" stroke-linecap="round" stroke-linejoin="round"/>
<path d="M170.889 287.674L173.589 290.093" stroke="#263238" stroke-width="0.5" stroke-linecap="round" stroke-linejoin="round"/>
<path d="M184.455 312.049L187.951 315.513L189.88 312.435L184.455 312.049Z" stroke="#263238" stroke-width="0.5" stroke-linecap="round" stroke-linejoin="round"/>
<path d="M257.1 330.388L253.677 326.852L251.684 329.881L257.1 330.388Z" stroke="#263238" stroke-width="0.5" stroke-linecap="round" stroke-linejoin="round"/>
<path d="M237.05 331.698L233.626 328.162L231.625 331.192L237.05 331.698Z" stroke="#263238" stroke-width="0.5" stroke-linecap="round" stroke-linejoin="round"/>
<path d="M208.116 318.55L204.692 315.014L202.699 318.044L208.116 318.55Z" stroke="#263238" stroke-width="0.5" stroke-linecap="round" stroke-linejoin="round"/>
<path d="M280.248 315.939L284.25 313.078L281.55 310.65L280.248 315.939Z" stroke="#263238" stroke-width="0.5" stroke-linecap="round" stroke-linejoin="round"/>
<path d="M135.808 323.35L133.605 327.746L137.126 328.63L135.808 323.35Z" stroke="#263238" stroke-width="0.5" stroke-linecap="round" stroke-linejoin="round"/>
<path d="M173.999 332.832L171.797 337.228L175.317 338.112L173.999 332.832Z" stroke="#263238" stroke-width="0.5" stroke-linecap="round" stroke-linejoin="round"/>
<path d="M161.751 317.747L158.327 314.211L156.326 317.241L161.751 317.747Z" stroke="#263238" stroke-width="0.5" stroke-linecap="round" stroke-linejoin="round"/>
<path d="M204.908 343.247L208.911 340.386L206.21 337.959L204.908 343.247Z" stroke="#263238" stroke-width="0.5" stroke-linecap="round" stroke-linejoin="round"/>
<path d="M225.065 337.799L221.062 340.66L223.763 343.079L225.065 337.799Z" stroke="#263238" stroke-width="0.5" stroke-linecap="round" stroke-linejoin="round"/>
<path d="M248.172 185.693L244.17 188.554L246.878 190.974L248.172 185.693Z" stroke="#263238" stroke-width="0.5" stroke-linecap="round" stroke-linejoin="round"/>
<path d="M399.152 313.632L403.155 310.771L400.454 308.352L399.152 313.632Z" stroke="#263238" stroke-width="0.5" stroke-linecap="round" stroke-linejoin="round"/>
<path d="M387.17 319.732L390.594 323.269L392.587 320.239L387.17 319.732Z" stroke="#263238" stroke-width="0.5" stroke-linecap="round" stroke-linejoin="round"/>
<path d="M475.72 299.415L477.923 295.019L474.402 294.135L475.72 299.415Z" stroke="#263238" stroke-width="0.5" stroke-linecap="round" stroke-linejoin="round"/>
<path d="M450.22 318.599L452.423 314.202L448.902 313.318L450.22 318.599Z" stroke="#263238" stroke-width="0.5" stroke-linecap="round" stroke-linejoin="round"/>
<path d="M463.166 319.934L459.172 322.795L461.872 325.214L463.166 319.934Z" stroke="#263238" stroke-width="0.5" stroke-linecap="round" stroke-linejoin="round"/>
<path d="M419.309 308.184L415.307 311.045L418.007 313.472L419.309 308.184Z" stroke="#263238" stroke-width="0.5" stroke-linecap="round" stroke-linejoin="round"/>
<path d="M90.1738 232.273L93.6779 235.737L95.6068 232.667L90.1738 232.273Z" stroke="#263238" stroke-width="0.5" stroke-linecap="round" stroke-linejoin="round"/>
<path d="M50.0293 329.963L53.5253 333.419L55.4542 330.349L50.0293 329.963Z" stroke="#263238" stroke-width="0.5" stroke-linecap="round" stroke-linejoin="round"/>
<path d="M163.503 238.961L161.309 243.357L164.829 244.241L163.503 238.961Z" stroke="#263238" stroke-width="0.5" stroke-linecap="round" stroke-linejoin="round"/>
<path d="M110.251 233.367L108.049 237.771L111.569 238.647L110.251 233.367Z" stroke="#263238" stroke-width="0.5" stroke-linecap="round" stroke-linejoin="round"/>
<path d="M185.862 242.248L183.66 246.644L187.18 247.528L185.862 242.248Z" stroke="#263238" stroke-width="0.5" stroke-linecap="round" stroke-linejoin="round"/>
<path d="M197.042 225.482L194.84 229.879L198.36 230.763L197.042 225.482Z" stroke="#263238" stroke-width="0.5" stroke-linecap="round" stroke-linejoin="round"/>
<path d="M81.5516 282.151L78.136 278.615L76.1348 281.645L81.5516 282.151Z" stroke="#263238" stroke-width="0.5" stroke-linecap="round" stroke-linejoin="round"/>
<path d="M147.445 231.784L151.448 228.923L148.747 226.496L147.445 231.784Z" stroke="#263238" stroke-width="0.5" stroke-linecap="round" stroke-linejoin="round"/>
<path d="M18.8386 245.391L16.6445 249.787L20.1647 250.671L18.8386 245.391Z" stroke="#263238" stroke-width="0.5" stroke-linecap="round" stroke-linejoin="round"/>
<path d="M41.1982 248.678L38.9961 253.074L42.5163 253.958L41.1982 248.678Z" stroke="#263238" stroke-width="0.5" stroke-linecap="round" stroke-linejoin="round"/>
<path d="M28.9501 233.593L25.5264 230.057L23.5332 233.087L28.9501 233.593Z" stroke="#263238" stroke-width="0.5" stroke-linecap="round" stroke-linejoin="round"/>
<path d="M215.534 237.387L213.332 241.791L216.852 242.667L215.534 237.387Z" stroke="#263238" stroke-width="0.5" stroke-linecap="round" stroke-linejoin="round"/>
<path d="M291.145 246.268L288.943 250.664L292.464 251.548L291.145 246.268Z" stroke="#263238" stroke-width="0.5" stroke-linecap="round" stroke-linejoin="round"/>
<path d="M302.325 229.502L300.123 233.898L303.643 234.782L302.325 229.502Z" stroke="#263238" stroke-width="0.5" stroke-linecap="round" stroke-linejoin="round"/>
<path d="M209.53 251.564L206.106 248.027L204.113 251.057L209.53 251.564Z" stroke="#263238" stroke-width="0.5" stroke-linecap="round" stroke-linejoin="round"/>
<path d="M278.897 231.183L275.474 227.646L273.48 230.676L278.897 231.183Z" stroke="#263238" stroke-width="0.5" stroke-linecap="round" stroke-linejoin="round"/>
<path d="M147.445 263.618L151.448 262.999L148.747 262.477L147.445 263.618Z" stroke="#263238" stroke-width="0.5" stroke-linecap="round" stroke-linejoin="round"/>
<path d="M143.781 112.795L178.492 129.595" stroke="#263238" stroke-linecap="round" stroke-linejoin="round"/>
<path d="M124.957 83.5313C135.942 88.8492 148.142 103.776 143.782 112.796C139.421 121.815 120.139 121.515 109.153 116.197C98.1683 110.879 92.8012 99.2551 97.1675 90.2414C101.534 81.2276 113.978 78.2192 124.963 83.537L124.957 83.5313Z" fill="#423DBD" stroke="#263238" stroke-linecap="round" stroke-linejoin="round"/>
<path d="M158.97 96.3389L178.494 129.596" stroke="#263238" stroke-linecap="round" stroke-linejoin="round"/>
<path d="M159.585 61.5546C165.766 72.0754 167.615 91.2708 158.97 96.3394C150.331 101.414 134.474 90.4516 128.286 79.925C122.104 69.4042 124.105 56.7541 132.744 51.6797C141.383 46.6054 153.402 51.0218 159.578 61.5489L159.585 61.5546Z" fill="white" stroke="#263238" stroke-linecap="round" stroke-linejoin="round"/>
<path d="M263.385 86.9473L260.344 125.393" stroke="#263238" stroke-linecap="round" stroke-linejoin="round"/>
<path d="M283.822 58.7828C282.857 70.9491 273.379 87.7364 263.392 86.9494C253.405 86.1623 246.682 68.0866 247.648 55.9202C248.614 43.7538 257.495 34.5321 267.479 35.3271C277.466 36.1142 284.785 46.6243 283.819 58.7907L283.822 58.7828Z" fill="#423DBD" stroke="#263238" stroke-linecap="round" stroke-linejoin="round"/>
<path d="M284.233 95.1224L260.344 125.393" stroke="#263238" stroke-linecap="round" stroke-linejoin="round"/>
<path d="M316.866 83.063C309.308 92.6431 292.094 101.336 284.232 95.1216C276.367 88.915 280.823 70.1599 288.384 60.5719C295.942 50.9918 308.455 48.2621 316.32 54.4687C324.185 60.6753 324.435 73.478 316.869 83.055L316.866 83.063Z" fill="white" stroke="#263238" stroke-linecap="round" stroke-linejoin="round"/>
<path d="M25.2463 22.963C29.5679 18.3953 33.7953 13.777 37.9214 9.10794C31.7395 7.89182 25.5793 6.55265 19.4336 5.09766C21.265 11.0624 23.1978 17.0127 25.2391 22.963H25.2463Z" fill="white" stroke="#263238" stroke-linecap="round" stroke-linejoin="round"/>
<path d="M51.3334 27.9073C55.4016 23.1225 59.3757 18.287 63.2484 13.408C57.0231 12.5177 50.8194 11.5042 44.623 10.375C46.7512 16.2312 48.988 22.0729 51.3334 27.9073Z" fill="#423DBD" stroke="#263238" stroke-linecap="round" stroke-linejoin="round"/>
<path d="M77.5812 31.4821C81.3888 26.4873 85.1023 21.4564 88.7072 16.3747C82.4529 15.8101 76.2131 15.1297 69.9805 14.3262C72.4055 20.0593 74.939 25.7852 77.5812 31.4821Z" fill="white" stroke="#263238" stroke-linecap="round" stroke-linejoin="round"/>
<path d="M103.952 33.6755C107.492 28.4925 110.93 23.2661 114.267 18.0108C107.998 17.7719 101.737 17.4172 95.4824 16.9395C98.2042 22.5423 101.027 28.1234 103.952 33.6755Z" fill="#423DBD" stroke="#263238" stroke-linecap="round" stroke-linejoin="round"/>
<path d="M130.382 34.4935C133.647 29.1295 136.81 23.7366 139.865 18.3148C133.596 18.4017 127.327 18.3727 121.059 18.2207C124.063 23.6715 127.168 29.1006 130.382 34.4935Z" fill="white" stroke="#263238" stroke-linecap="round" stroke-linejoin="round"/>
<path d="M156.81 33.9441C159.793 28.4209 162.674 22.8688 165.446 17.2949C159.185 17.7075 152.923 18.0043 146.654 18.1781C149.941 23.4696 153.321 28.725 156.81 33.9441Z" fill="#423DBD" stroke="#263238" stroke-linecap="round" stroke-linejoin="round"/>
<path d="M183.195 32.0099C185.888 26.3347 188.479 20.645 190.962 14.9336C184.722 15.6719 178.475 16.2945 172.221 16.794C175.775 21.9045 179.438 26.9789 183.195 32.0099Z" fill="white" stroke="#263238" stroke-linecap="round" stroke-linejoin="round"/>
<path d="M209.48 28.7041C211.883 22.8986 214.171 17.0786 216.364 11.2441C210.16 12.3082 203.942 13.2565 197.717 14.089C201.539 19.0041 205.462 23.883 209.48 28.7113V28.7041Z" fill="#423DBD" stroke="#263238" stroke-linecap="round" stroke-linejoin="round"/>
<path d="M235.605 24.0267C237.704 18.0982 239.702 12.1696 241.591 6.22656C235.438 7.61641 229.263 8.89043 223.074 10.0486C227.157 14.7611 231.334 19.4229 235.605 24.034V24.0267Z" fill="white" stroke="#263238" stroke-linecap="round" stroke-linejoin="round"/>
<path d="M3.35547 1C88.1867 24.1569 177.68 24.1569 262.511 1" stroke="#263238" stroke-linecap="round" stroke-linejoin="round"/>
<path d="M499.784 22.963C495.463 18.3953 491.235 13.777 487.109 9.10794C493.291 7.89182 499.451 6.55265 505.597 5.09766C503.766 11.0624 501.833 17.0127 499.784 22.963Z" fill="#423DBD" stroke="#263238" stroke-linecap="round" stroke-linejoin="round"/>
<path d="M473.696 27.9073C469.628 23.1225 465.654 18.287 461.781 13.408C468.007 12.5177 474.21 11.5042 480.407 10.375C478.278 16.2312 476.042 22.0729 473.696 27.9073Z" fill="white" stroke="#263238" stroke-linecap="round" stroke-linejoin="round"/>
<path d="M447.44 31.4821C443.633 26.4873 439.919 21.4564 436.314 16.3747C442.569 15.8101 448.809 15.1297 455.041 14.3262C452.616 20.0593 450.083 25.7852 447.44 31.4821Z" fill="#423DBD" stroke="#263238" stroke-linecap="round" stroke-linejoin="round"/>
<path d="M421.071 33.6755C417.531 28.4925 414.093 23.2661 410.756 18.0108C417.025 17.7719 423.286 17.4172 429.54 16.9395C426.819 22.5423 423.996 28.1234 421.071 33.6755Z" fill="white" stroke="#263238" stroke-linecap="round" stroke-linejoin="round"/>
<path d="M394.641 34.4935C391.376 29.1295 388.213 23.7366 385.158 18.3148C391.427 18.4017 397.696 18.3727 403.965 18.2207C400.96 23.6715 397.855 29.1006 394.641 34.4935Z" fill="#423DBD" stroke="#263238" stroke-linecap="round" stroke-linejoin="round"/>
<path d="M368.212 33.9441C365.23 28.4209 362.349 22.8688 359.576 17.2949C365.838 17.7075 372.099 18.0043 378.368 18.1781C375.082 23.4696 371.701 28.725 368.212 33.9441Z" fill="white" stroke="#263238" stroke-linecap="round" stroke-linejoin="round"/>
<path d="M341.828 32.0099C339.135 26.3347 336.543 20.645 334.061 14.9336C340.3 15.6719 346.547 16.2945 352.802 16.794C349.247 21.9045 345.585 26.9789 341.828 32.0099Z" fill="#423DBD" stroke="#263238" stroke-linecap="round" stroke-linejoin="round"/>
<path d="M315.55 28.7041C313.147 22.8986 310.859 17.0786 308.666 11.2441C314.87 12.3082 321.088 13.2565 327.313 14.089C323.491 19.0041 319.568 23.883 315.55 28.7113V28.7041Z" fill="white" stroke="#263238" stroke-linecap="round" stroke-linejoin="round"/>
<path d="M289.426 24.0267C287.327 18.0982 285.329 12.1696 283.439 6.22656C289.592 7.61641 295.767 8.89043 301.956 10.0486C297.874 14.7611 293.697 19.4229 289.426 24.034V24.0267Z" fill="#423DBD" stroke="#263238" stroke-linecap="round" stroke-linejoin="round"/>
<path d="M521.667 1C436.836 24.1569 347.343 24.1569 262.512 1" stroke="#263238" stroke-linecap="round" stroke-linejoin="round"/>
<path d="M205.693 157.847L203.656 129.428L226.272 145.346L205.693 157.847Z" fill="#423DBD" stroke="#263238" stroke-linecap="round" stroke-linejoin="round"/>
<path d="M203.656 129.428L204.202 137.071L205.71 130.876L203.656 129.428Z" fill="#263238"/>
<path d="M210.584 134.31L208.326 132.717L204.969 147.706L205.599 156.577L210.584 134.31Z" fill="#263238"/>
<path d="M215.842 138.009L213.627 136.449L207.781 156.585L211.011 154.617L215.842 138.009Z" fill="#263238"/>
<path d="M219.123 140.318L212.74 153.569L216.745 151.132L221.245 141.81L219.123 140.318Z" fill="#263238"/>
<path d="M178.815 130.441C178.815 130.441 180.162 126.674 179.352 124.126C178.543 121.578 175.995 117.539 174.785 117.812C173.575 118.085 167.661 123.862 167.797 125.2C167.934 126.546 170.618 132.588 172.501 133.125C174.384 133.662 178.815 130.441 178.815 130.441Z" fill="white" stroke="#263238" stroke-linecap="round" stroke-linejoin="round"/>
<path d="M177.206 120.495C177.206 120.495 174.786 116.064 173.985 116.192C173.175 116.329 165.923 122.507 166.861 123.853C167.798 125.199 169.145 126.946 169.145 126.946C169.145 126.946 176.669 122.379 177.069 122.106C177.47 121.833 177.206 120.495 177.206 120.495Z" fill="white" stroke="#263238" stroke-linecap="round" stroke-linejoin="round"/>
<path d="M179.09 127.884C179.09 127.884 180.027 121.833 179.362 120.359C178.698 118.885 177.479 117.539 176.269 116.729C175.059 115.92 169.819 121.16 170.219 122.37C170.62 123.58 172.366 122.643 172.903 122.234C173.44 121.833 174.65 121.024 174.65 121.024C174.65 121.024 172.631 125.455 173.304 126.401C173.977 127.347 175.988 128.011 175.988 128.011" fill="white"/>
<path d="M179.09 127.884C179.09 127.884 180.027 121.833 179.362 120.359C178.698 118.885 177.479 117.539 176.269 116.729C175.059 115.92 169.819 121.16 170.219 122.37C170.62 123.58 172.366 122.643 172.903 122.234C173.44 121.833 174.65 121.024 174.65 121.024C174.65 121.024 172.631 125.455 173.304 126.401C173.977 127.347 175.988 128.011 175.988 128.011" stroke="#263238" stroke-linecap="round" stroke-linejoin="round"/>
<path d="M180.435 134.736L178.824 130.433C178.824 130.433 174.12 129.086 172.51 133.117L174.393 137.548C174.393 137.548 176.54 134.591 180.443 134.728L180.435 134.736Z" fill="white" stroke="#263238" stroke-linecap="round" stroke-linejoin="round"/>
<path d="M261.056 127.084C261.056 127.084 258.209 124.28 257.817 121.63C257.434 118.98 257.971 114.242 259.181 113.953C260.382 113.671 268.222 116.296 268.691 117.566C269.159 118.835 269.372 125.448 267.907 126.752C266.45 128.055 261.056 127.084 261.056 127.084Z" fill="white" stroke="#263238" stroke-linecap="round" stroke-linejoin="round"/>
<path d="M258.184 117.429C258.184 117.429 258.431 112.384 259.215 112.154C259.999 111.924 269.219 114.327 268.963 115.946C268.699 117.565 268.256 119.721 268.256 119.721C268.256 119.721 259.496 118.886 259.01 118.818C258.533 118.75 258.184 117.429 258.184 117.429Z" fill="white" stroke="#263238" stroke-linecap="round" stroke-linejoin="round"/>
<path d="M259.709 124.902C259.709 124.902 256.233 119.866 256.19 118.247C256.147 116.628 256.659 114.89 257.391 113.637C258.133 112.384 265.129 114.822 265.291 116.083C265.453 117.344 263.476 117.259 262.811 117.131C262.155 117.003 260.715 116.807 260.715 116.807C260.715 116.807 264.464 119.917 264.268 121.059C264.072 122.201 262.555 123.684 262.555 123.684" fill="white"/>
<path d="M259.709 124.902C259.709 124.902 256.233 119.866 256.19 118.247C256.147 116.628 256.659 114.89 257.391 113.637C258.133 112.384 265.129 114.822 265.291 116.083C265.453 117.344 263.476 117.259 262.811 117.131C262.155 117.003 260.715 116.807 260.715 116.807C260.715 116.807 264.464 119.917 264.268 121.059C264.072 122.201 262.555 123.684 262.555 123.684" stroke="#263238" stroke-linecap="round" stroke-linejoin="round"/>
<path d="M267.471 131.718L267.889 127.142C267.889 127.142 264.241 123.887 261.037 126.81L260.799 131.625C260.799 131.625 264.02 129.903 267.471 131.718Z" fill="white" stroke="#263238" stroke-linecap="round" stroke-linejoin="round"/>
<path d="M220.478 183.913C220.478 183.913 215.373 182.166 212.016 180.82C208.658 179.473 200.998 167.16 198.714 164.075C196.43 160.99 185.284 140.113 182.728 136.619C180.171 133.125 175.74 133.262 174.13 135.946C172.519 138.63 180.717 160.939 186.222 171.284C191.726 181.629 205.701 205.148 208.531 207.969C211.351 210.789 212.561 213.209 212.561 213.209C212.561 213.209 215.118 238.203 215.654 241.96C216.191 245.727 214.18 245.454 215.791 247.874C217.401 250.294 230.575 254.189 241.184 252.578C251.794 250.968 255.16 246.528 254.887 243.844C254.614 241.159 253.95 238.33 253.95 238.33L253.413 197.615C253.413 197.615 264.03 172.622 266.178 161.067C268.325 149.512 268.981 133.04 266.962 129.947C264.942 126.854 260.911 128.6 259.974 130.756C259.037 132.904 254.486 153.406 252.066 160.53C249.646 167.654 244.269 176.653 241.721 179.609C239.165 182.566 236.217 183.103 236.217 183.103C236.217 183.103 227.082 185.66 220.495 183.913H220.478Z" fill="white" stroke="#263238" stroke-linecap="round" stroke-linejoin="round"/>
<path d="M212.544 213.208L208.701 192.578" stroke="#263238" stroke-linecap="round" stroke-linejoin="round"/>
<path d="M211.793 209.623L205.99 195.682" stroke="#263238" stroke-linecap="round" stroke-linejoin="round"/>
<path d="M253.395 197.625L251.094 181.545" stroke="#263238" stroke-linecap="round" stroke-linejoin="round"/>
<path d="M252.645 191.617V178.256" stroke="#263238" stroke-linecap="round" stroke-linejoin="round"/>
<path d="M246.451 221.619C246.451 221.619 239.872 235.168 232.51 241.363" stroke="#263238" stroke-linecap="round" stroke-linejoin="round"/>
<path d="M235.995 232.852C235.995 232.852 230.576 240.402 227.67 242.532" stroke="#263238" stroke-linecap="round" stroke-linejoin="round"/>
<path d="M222.351 181.501C222.351 181.501 219.667 182.711 218.585 185.267C217.511 187.824 216.838 192.519 219.122 198.169C221.405 203.81 221.806 205.42 221.806 205.42C221.806 205.42 224.627 202.327 226.237 201.39C227.848 200.453 233.088 197.496 233.088 197.496C233.088 197.496 240.34 197.632 242.76 198.032C245.18 198.433 245.981 198.706 245.981 198.706C245.981 198.706 242.624 189.034 238.729 184.466C234.835 179.899 229.185 177.879 222.334 181.509L222.351 181.501Z" fill="white" stroke="#263238" stroke-linecap="round" stroke-linejoin="round"/>
<path d="M230.413 151.132C230.413 151.132 225.308 148.985 220.869 149.658C216.437 150.331 210.788 156.373 211.197 162.824C211.597 169.274 218.994 174.915 220.604 177.872C222.215 180.829 221.951 180.829 222.079 185.669C222.215 190.51 225.036 195.213 226.782 197.088C228.529 198.971 234.707 205.013 234.707 205.013C234.707 205.013 237.264 193.057 236.727 190.637C236.19 188.217 234.844 184.323 234.707 183.113C234.571 181.903 234.307 180.829 234.307 180.829C234.307 180.829 238.354 180.625 238.491 173.637C238.508 172.836 238.491 170.944 238.491 170.084C238.371 163.394 237.076 156.134 230.413 151.141V151.132Z" fill="white" stroke="#263238" stroke-linecap="round" stroke-linejoin="round"/>
<path d="M214.154 171.958C214.154 171.958 217.519 169.257 218.465 167.382C218.874 166.564 217.46 165.081 217.792 162.772C217.971 161.511 218.559 160.718 218.465 159.628C218.346 158.119 216.932 158.997 216.974 157.719C217.11 153.825 224.226 151.268 226.518 151.669C228.81 152.069 232.432 154.489 233.642 154.489C234.852 154.489 239.419 151.396 238.746 148.311C238.073 145.218 235.116 146.701 233.369 146.292C231.622 145.891 235.389 142.798 232.296 140.114C229.202 137.429 225.172 139.04 223.962 140.514C222.752 141.988 222.888 144.545 220.868 144.408C218.849 144.272 216.301 143.335 214.955 144.945C213.608 146.556 213.881 147.902 213.344 148.84C212.807 149.777 206.493 151.933 205.683 157.838C204.874 163.752 209.347 167.143 214.145 171.95L214.154 171.958Z" fill="#263238" stroke="#263238" stroke-linecap="round" stroke-linejoin="round"/>
<path d="M217.12 169.179C217.12 169.179 212.322 165.591 210.712 167.602C209.101 169.622 212.714 174.403 214.589 174.403C216.463 174.403 217.682 172.656 217.682 172.656" fill="white"/>
<path d="M217.12 169.179C217.12 169.179 212.322 165.591 210.712 167.602C209.101 169.622 212.714 174.403 214.589 174.403C216.463 174.403 217.682 172.656 217.682 172.656" stroke="#263238" stroke-linecap="round" stroke-linejoin="round"/>
<path d="M222.623 163.225C222.623 163.225 223.296 161.342 226.39 161.342" stroke="#263238" stroke-linecap="round" stroke-linejoin="round"/>
<path d="M221.277 159.865C221.277 159.865 222.087 157.445 225.444 157.045" stroke="#263238" stroke-linecap="round" stroke-linejoin="round"/>
<path d="M232.432 159.73C232.432 159.73 233.642 158.12 235.389 158.656" stroke="#263238" stroke-linecap="round" stroke-linejoin="round"/>
<path d="M229.748 155.836C229.748 155.836 230.958 153.689 233.642 154.49" stroke="#263238" stroke-linecap="round" stroke-linejoin="round"/>
<path d="M225.045 169C225.045 169 227.465 171.556 232.433 170.21C232.433 170.21 230.822 173.84 228.939 174.241C227.056 174.641 225.045 170.346 225.045 169Z" stroke="#263238" stroke-linecap="round" stroke-linejoin="round"/>
<path d="M229.176 157.719L235.26 163.42L232.022 165.891L232.593 168.558" fill="white"/>
<path d="M229.176 157.719L235.26 163.42L232.022 165.891L232.593 168.558" stroke="#263238" stroke-linecap="round" stroke-linejoin="round"/>
<path d="M234.316 180.83C234.316 180.83 230.822 181.767 229.348 181.367C227.874 180.966 226.928 180.693 226.928 180.693L235.662 187.681L234.316 180.83Z" fill="#263238" stroke="#263238" stroke-linecap="round" stroke-linejoin="round"/>
<path d="M202.113 271.981C202.113 271.981 197.247 265.965 195.696 264.601C194.145 263.238 191.273 264.022 189.944 265.769C188.615 267.516 187.294 271.01 186.629 272.177C185.965 273.344 181.763 278.389 181.985 280.724C182.207 283.05 182.871 285.965 185.3 285.189C187.728 284.414 190.012 280.477 193.327 278.73C196.642 276.983 198.244 278.73 198.244 278.73L202.113 271.989V271.981Z" fill="white" stroke="#263238" stroke-linecap="round" stroke-linejoin="round"/>
<path d="M189.315 272.024C191.24 268.615 193.55 265.71 194.896 264.133C193.303 263.52 191.079 264.295 189.954 265.778C188.624 267.525 187.304 271.018 186.639 272.186C185.974 273.353 181.773 278.398 181.995 280.733C182.046 281.27 182.123 281.832 182.233 282.377C184.44 276.966 186.443 277.12 189.315 272.032V272.024Z" fill="white" stroke="#263238" stroke-linecap="round" stroke-linejoin="round"/>
<path d="M237.349 323.843C237.349 323.843 231.35 316.293 225.155 311.07C218.96 305.846 197.469 277.768 197.469 277.768L201.729 270.602C201.729 270.602 219.735 289.187 225.93 293.251C232.125 297.316 237.937 301.96 239.479 303.315C241.03 304.67 244.899 311.837 244.123 315.705C243.348 319.574 241.797 324.414 237.349 323.835V323.843Z" fill="#263238" stroke="#263238" stroke-linecap="round" stroke-linejoin="round"/>
<path d="M178.884 277.384C178.884 277.384 173.268 273.515 171.138 270.806C169.008 268.096 165.914 268.479 164.559 270.226C163.204 271.964 159.14 279.906 157.393 283.775C155.654 287.644 155.458 294.427 156.234 295.969C157.009 297.52 158.56 295.586 159.14 294.231C159.719 292.876 166.434 286.63 167.405 285.658C168.377 284.687 170.695 283.528 170.695 283.528L174.563 285.658L178.884 277.384Z" fill="white" stroke="#263238" stroke-linecap="round" stroke-linejoin="round"/>
<path d="M156.592 296.412C156.566 294.682 156.941 291.402 158.697 286.323C160.384 281.432 165.769 272.842 168.3 268.931C166.817 268.624 165.369 269.169 164.559 270.217C163.204 271.956 159.14 279.898 157.393 283.766C155.654 287.635 155.458 294.418 156.234 295.961C156.345 296.174 156.464 296.318 156.592 296.412Z" fill="white" stroke="#263238" stroke-linecap="round" stroke-linejoin="round"/>
<path d="M236.19 311.842L234.06 283.577L231.35 285.707C231.35 285.707 222.249 327.718 220.511 329.073C218.772 330.428 213.54 326.167 208.896 323.457C204.252 320.747 174.044 287.062 173.081 286.287C172.109 285.511 177.537 275.056 178.304 275.448C179.08 275.831 205.794 302.358 205.794 302.358C205.794 302.358 209.084 278.157 210.635 267.898C212.185 257.638 216.054 246.603 216.054 246.603C216.054 246.603 232.125 252.414 241.03 250.471C249.935 248.537 254.869 243.842 254.869 243.842C254.869 243.842 253.804 253.948 254.383 274.084C254.963 294.22 250.319 315.319 248.384 322.094C246.45 328.868 245.478 329.448 243.544 329.064C241.61 328.681 237.153 323.065 235.602 321.122" fill="#263238"/>
<path d="M236.19 311.842L234.06 283.577L231.35 285.707C231.35 285.707 222.249 327.718 220.511 329.073C218.772 330.428 213.54 326.167 208.896 323.457C204.252 320.747 174.044 287.062 173.081 286.287C172.109 285.511 177.537 275.056 178.304 275.448C179.08 275.831 205.794 302.358 205.794 302.358C205.794 302.358 209.084 278.157 210.635 267.898C212.185 257.638 216.054 246.603 216.054 246.603C216.054 246.603 232.125 252.414 241.03 250.471C249.935 248.537 254.869 243.842 254.869 243.842C254.869 243.842 253.804 253.948 254.383 274.084C254.963 294.22 250.319 315.319 248.384 322.094C246.45 328.868 245.478 329.448 243.544 329.064C241.61 328.681 237.153 323.065 235.602 321.122" stroke="#263238" stroke-linecap="round" stroke-linejoin="round"/>
</svg>
