<svg width="21" height="25" viewBox="0 0 21 25" fill="none" xmlns="http://www.w3.org/2000/svg">
<path d="M21.0008 22.6254C21.0008 21.4604 20.0561 20.5156 18.891 20.5156C17.726 20.5156 16.7812 21.4604 16.7812 22.6254C16.7812 23.7904 17.726 24.7352 18.891 24.7352C20.0561 24.7352 21.0008 23.7904 21.0008 22.6254Z" fill="white"/>
<path d="M17.202 0.0380598C16.7358 1.14802 16.3104 2.17062 15.8813 3.18374C15.8423 3.27489 15.8044 3.36604 15.7654 3.45719C14.2225 7.09851 12.6976 10.7493 11.1195 14.3755C11.0996 14.421 11.0797 14.4675 11.0597 14.5131C10.5442 15.6696 9.90324 16.771 9.33164 17.9038C9.26138 18.0424 9.19017 18.1829 9.12371 18.3244C9.0449 18.4934 8.97463 18.6672 8.92905 18.8447C8.8417 19.1884 8.7477 19.6917 9.0392 20.081C9.29746 20.4256 9.73043 20.5016 10.002 20.513C10.0675 20.5158 10.1235 20.5149 10.1643 20.513H16.3437L15.5917 24.7326H9.25759C9.08573 24.7126 8.91482 24.6889 8.74296 24.6613C8.2853 24.5873 7.85992 24.4591 7.46873 24.2853C5.27065 23.3074 4.1493 20.8785 4.60221 18.3235C4.68006 17.8857 4.80444 17.4442 4.9763 17.0046C5.20608 16.4197 5.49189 15.8538 5.80427 15.3069L5.82706 15.267L6.24483 14.5112H8.6727C8.69928 14.5074 8.72586 14.5027 8.7534 14.4979C8.10299 14.1666 7.44595 13.8485 6.79934 13.5114C6.53253 13.3728 6.26763 13.2304 6.00651 13.0822C5.68938 12.9028 5.35041 12.6113 5.21084 12.2894C4.96017 11.7112 4.7095 11.1339 4.45978 10.5556L4.4256 10.4749L0 0.0409053V0.0371094H4.65537C4.6886 0.0371094 4.72089 0.0399546 4.75222 0.0456516C4.76456 0.0475506 4.77691 0.0504007 4.78925 0.0532492C4.8035 0.0560977 4.81584 0.0598952 4.82914 0.0646427H4.83104C4.83104 0.0646427 4.83578 0.065594 4.83768 0.0665435H4.83863C4.93548 0.0978769 5.02093 0.154844 5.08645 0.229854C5.09309 0.236501 5.09974 0.244096 5.10638 0.252641C5.20798 0.374177 5.29723 0.531794 5.34376 0.657127C5.65804 1.49838 5.96948 2.34058 6.27997 3.18374C6.95411 5.01247 7.62065 6.84404 8.29195 8.67372C8.38879 8.93863 8.49894 9.19879 8.6613 9.61088C9.10946 8.29487 9.47787 7.12225 9.90514 5.97146C10.2508 5.03906 10.604 4.11044 10.9657 3.18374C11.3019 2.3159 11.6465 1.45091 11.9959 0.587816C12.0548 0.442543 12.2029 0.272584 12.3586 0.16719C12.3643 0.161493 12.3719 0.156743 12.3786 0.152945C12.4735 0.0807834 12.5903 0.0380598 12.7166 0.0380598H17.202Z" fill="white"/>
</svg>
