<svg width="32" height="32" viewBox="0 0 32 32" fill="none" xmlns="http://www.w3.org/2000/svg">
<g clip-path="url(#clip0_2208_16576)">
<path d="M29.1875 0H2.8125C1.26169 0 0 1.26169 0 2.8125V17.9375C0 19.4883 1.26169 20.75 2.8125 20.75H17V22.3624C17 26.7709 19.902 30.7238 24.2424 31.9639C24.3266 31.988 24.4132 32 24.5 32C24.5868 32 24.6734 31.988 24.7576 31.9639C28.9966 30.7528 32 26.8764 32 22.3624C32 20.6699 32 3.45919 32 2.8125C32 1.26169 30.7383 0 29.1875 0ZM2.8125 18.875C2.29556 18.875 1.875 18.4544 1.875 17.9375V2.8125C1.875 2.29556 2.29556 1.875 2.8125 1.875H29.1875C29.7044 1.875 30.125 2.29556 30.125 2.8125V16.6946L24.7576 15.1611C24.5893 15.1129 24.4108 15.1129 24.2425 15.1611L17.68 17.0361C17.2774 17.1511 17 17.5189 17 17.9375V18.875H2.8125ZM30.125 22.3624C30.125 25.8746 27.8254 29.0111 24.5 30.0828C21.1746 29.0111 18.875 25.8746 18.875 22.3624V18.6446L24.5 17.0375L30.125 18.6446V22.3624Z" fill="#452E8D"/>
<path d="M22.3504 22.8997C21.9843 22.5335 21.3907 22.5335 21.0246 22.8997C20.6585 23.2658 20.6585 23.8593 21.0246 24.2255L22.8996 26.1005C23.0827 26.2835 23.3226 26.375 23.5625 26.375C23.8025 26.375 24.0424 26.2835 24.2254 26.1004L27.9754 22.3504C28.3415 21.9843 28.3415 21.3907 27.9754 21.0246C27.6093 20.6585 27.0157 20.6585 26.6496 21.0246L23.5625 24.1117L22.3504 22.8997Z" fill="#452E8D"/>
<path d="M6.625 13.25H4.75C4.23225 13.25 3.8125 13.6697 3.8125 14.1875C3.8125 14.7053 4.23225 15.125 4.75 15.125H6.625C7.14275 15.125 7.5625 14.7053 7.5625 14.1875C7.5625 13.6697 7.14275 13.25 6.625 13.25Z" fill="#452E8D"/>
<path d="M12.25 13.25H10.375C9.85725 13.25 9.4375 13.6697 9.4375 14.1875C9.4375 14.7053 9.85725 15.125 10.375 15.125H12.25C12.7678 15.125 13.1875 14.7053 13.1875 14.1875C13.1875 13.6697 12.7678 13.25 12.25 13.25Z" fill="#452E8D"/>
<path d="M28.25 6.6875C28.25 6.16975 27.8302 5.75 27.3125 5.75H16C15.4822 5.75 15.0625 6.16975 15.0625 6.6875C15.0625 7.20525 15.4822 7.625 16 7.625H27.3125C27.8302 7.625 28.25 7.20525 28.25 6.6875Z" fill="#452E8D"/>
<path d="M6.625 9.5C5.07419 9.5 3.8125 8.23831 3.8125 6.6875C3.8125 5.13669 5.07419 3.875 6.625 3.875C8.17581 3.875 9.4375 5.13669 9.4375 6.6875C9.4375 8.23831 8.17581 9.5 6.625 9.5ZM6.625 5.75C6.10806 5.75 5.6875 6.17056 5.6875 6.6875C5.6875 7.20444 6.10806 7.625 6.625 7.625C7.14194 7.625 7.5625 7.20444 7.5625 6.6875C7.5625 6.17056 7.14194 5.75 6.625 5.75Z" fill="#452E8D"/>
</g>
<defs>
<clipPath id="clip0_2208_16576">
<rect width="32" height="32" fill="white"/>
</clipPath>
</defs>
</svg>
