<svg width="32" height="32" viewBox="0 0 32 32" fill="none" xmlns="http://www.w3.org/2000/svg">
<path d="M2.62793 20.7752V29.8493C2.62793 29.976 2.67824 30.0975 2.76779 30.187C2.85735 30.2766 2.97881 30.3269 3.10547 30.3269H5.96836C6.30969 30.326 6.63949 30.2034 6.89847 29.981C7.15746 29.7587 7.32863 29.4513 7.38122 29.114L11.9412 31.2165C13.0353 31.7047 14.2478 31.8639 15.4308 31.6747C16.6138 31.4855 17.7162 30.956 18.6034 30.1509L24.6798 24.6479C25.699 23.7851 24.9394 22.0308 23.6413 22.1424V16.9547C23.6409 16.5748 23.4899 16.2106 23.2213 15.942C22.9527 15.6734 22.5885 15.5224 22.2086 15.5219C20.4825 15.5245 16.7386 15.5201 15.0449 15.5219H10.7468C10.367 15.5224 10.0028 15.6734 9.73415 15.942C9.46554 16.2106 9.31445 16.5748 9.31402 16.9547V21.2685C9.30208 21.2395 7.40239 21.2575 7.31513 21.2528C7.21659 20.9741 7.03428 20.7327 6.79317 20.5617C6.55207 20.3907 6.26397 20.2984 5.96836 20.2975H3.10541C3.04268 20.2975 2.98058 20.3098 2.92264 20.3338C2.86469 20.3579 2.81205 20.393 2.76771 20.4374C2.72337 20.4818 2.68821 20.5344 2.66422 20.5924C2.64024 20.6503 2.62791 20.7125 2.62793 20.7752ZM17.433 16.4769V18.4378L16.7473 17.9691C16.3497 17.6823 15.9042 18.2244 15.5226 18.4378V16.4769H17.433ZM10.7469 16.4769H14.5676V19.3424C14.585 19.4829 14.6314 19.6245 14.7513 19.7096C14.8308 19.7718 14.9277 19.8077 15.0285 19.8126C15.1294 19.8174 15.2293 19.791 15.3145 19.7368L16.4779 18.9418L17.641 19.7368C17.7361 19.8004 17.8508 19.8278 17.9644 19.8141C18.078 19.8004 18.1829 19.7464 18.2602 19.6621C18.3446 19.58 18.3697 19.4545 18.3879 19.3424V16.4769H22.2089C22.3355 16.4771 22.4568 16.5275 22.5464 16.617C22.6359 16.7065 22.6863 16.8279 22.6865 16.9545V22.4807L15.6588 25.9083C16.5073 24.5535 15.4273 22.6402 13.8233 22.6856H10.6246C10.5373 22.4328 10.4389 22.0418 10.2692 21.8347V16.9547C10.2693 16.828 10.3197 16.7066 10.4092 16.617C10.4988 16.5275 10.6202 16.4771 10.7469 16.4769ZM9.56947 22.5354C9.74842 22.9514 9.76387 23.6447 10.2796 23.6407H13.8242C14.1408 23.6407 14.4445 23.7665 14.6684 23.9904C14.8922 24.2143 15.018 24.5179 15.018 24.8346C15.018 25.1512 14.8922 25.4549 14.6684 25.6787C14.4445 25.9026 14.1408 26.0284 13.8242 26.0284H11.702C11.6388 26.0277 11.5761 26.0395 11.5175 26.0632C11.459 26.0869 11.4057 26.1219 11.3607 26.1664C11.3158 26.2108 11.2802 26.2637 11.2558 26.322C11.2315 26.3803 11.2189 26.4428 11.2189 26.506C11.2189 26.5692 11.2315 26.6317 11.2558 26.69C11.2802 26.7483 11.3158 26.8012 11.3607 26.8456C11.4057 26.89 11.459 26.9251 11.5175 26.9488C11.5761 26.9724 11.6388 26.9843 11.702 26.9835H15.5226C15.5951 26.9835 15.6667 26.967 15.7319 26.9353C15.8297 26.8878 23.5489 23.1225 23.498 23.1475C23.601 23.09 23.7223 23.0745 23.8364 23.1044C23.9505 23.1342 24.0487 23.207 24.1104 23.3075C24.1805 23.4029 24.2119 23.5213 24.1983 23.6389C24.1847 23.7565 24.127 23.8645 24.0369 23.9413L17.9619 29.4429C17.213 30.1231 16.2824 30.5708 15.2835 30.7314C14.2846 30.8919 13.2606 30.7583 12.3363 30.347L7.40325 28.0725V22.2083H9.11655C9.21689 22.2081 9.31472 22.2396 9.39607 22.2983C9.47742 22.3571 9.53811 22.44 9.56947 22.5354ZM3.58301 21.2528H5.96836C6.09561 21.2529 6.21761 21.3036 6.30759 21.3935C6.39757 21.4835 6.4482 21.6055 6.44836 21.7328V28.8914C6.44815 29.0186 6.39751 29.1406 6.30754 29.2305C6.21757 29.3205 6.0956 29.3712 5.96836 29.3714H3.58301V21.2528Z" fill="#421695"/>
<path d="M18.3881 22.6856H19.8208C20.445 22.683 20.4457 21.7332 19.8208 21.7305H18.3881C17.7642 21.7332 17.7635 22.6829 18.3881 22.6856Z" fill="#421695"/>
<path d="M29.372 10.7461V3.58234C29.372 3.45568 29.3217 3.33421 29.2322 3.24465C29.1426 3.15508 29.0211 3.10476 28.8945 3.10474C28.5568 3.13366 25.8104 3.02474 25.5571 3.19089L21.4238 0.870894C20.5251 0.360559 19.4855 0.154542 18.4601 0.283595C17.4347 0.412648 16.4786 0.869851 15.7344 1.58696L13.5341 3.71853L9.99725 1.53022L8.37091 0.523941C8.31707 0.491025 8.25725 0.469052 8.1949 0.45928C8.13255 0.449507 8.06889 0.452126 8.00755 0.466987C7.94621 0.481849 7.88841 0.508661 7.83744 0.545888C7.78648 0.583116 7.74336 0.630028 7.71055 0.683941C7.14648 1.61994 5.93498 3.63213 5.36347 4.58056L4.36741 6.23397C4.30291 6.34097 4.2829 6.46898 4.31166 6.59055C4.34042 6.71213 4.41566 6.81761 4.52125 6.88437L14.3665 13.103C16.8088 14.5983 16.0968 14.7342 17.6799 12.3669C17.6799 12.3669 17.6804 12.3665 17.6806 12.3662C17.6808 12.3659 18.5816 10.97 18.5816 10.9696L19.5005 11.5267C20.0278 11.8491 20.6351 12.017 21.2531 12.0113C21.8712 12.0057 22.4753 11.8266 22.9966 11.4946L24.7353 10.3964C24.8501 10.643 25.0327 10.8518 25.2618 10.9983C25.4909 11.1449 25.757 11.2231 26.029 11.2239H28.8945C28.9573 11.2239 29.0194 11.2115 29.0773 11.1875C29.1353 11.1635 29.1879 11.1283 29.2322 11.0839C29.2766 11.0395 29.3117 10.9868 29.3357 10.9289C29.3597 10.8709 29.372 10.8088 29.372 10.7461ZM8.27928 1.59059L9.0199 2.0488C8.85717 2.18798 8.66435 2.28747 8.45663 2.33944C8.2489 2.39142 8.03195 2.39445 7.82285 2.34831L8.27928 1.59059ZM5.88187 5.57083C6.0205 5.73952 6.11868 5.9377 6.1689 6.15019C6.21911 6.36268 6.22004 6.58384 6.17159 6.79674L5.42698 6.32634L5.88187 5.57083ZM16.0937 13.0639L15.3486 12.5933C15.5167 12.4522 15.7159 12.3532 15.9298 12.3043C16.1437 12.2554 16.3662 12.258 16.5789 12.312L16.0937 13.0639ZM17.1125 11.4852C16.2301 11.1128 15.148 11.3633 14.5105 12.0636L7.00728 7.32462C7.17539 6.87831 7.20708 6.39211 7.09832 5.92776C6.98957 5.46341 6.74527 5.04185 6.39645 4.71662L7.31485 3.19182C8.19319 3.52929 9.24334 3.26308 9.86255 2.57028L15.0055 5.75243C13.8742 6.37268 13.8688 8.16412 14.997 8.79606L17.7646 10.4742L17.1125 11.4852ZM22.4863 10.6871C22.115 10.9237 21.6847 11.0512 21.2445 11.0553C20.8042 11.0594 20.3717 10.9399 19.996 10.7103L15.4925 7.97951C15.3981 7.92238 15.3163 7.84663 15.252 7.75687C15.1878 7.66712 15.1425 7.56523 15.1189 7.45742C14.9433 6.7848 15.7365 6.18314 16.3251 6.57243L19.3166 8.42C19.5218 8.56326 19.8201 8.73643 20.0616 8.57526C20.3713 8.41299 20.368 7.94296 20.0715 7.76351L14.3718 4.23686L16.399 2.27293C16.9946 1.69883 17.7601 1.33294 18.5809 1.22996C19.4017 1.12698 20.2338 1.29244 20.9528 1.7016L24.7799 3.84929C24.6613 4.05886 24.5981 4.29526 24.5965 4.53606V9.35452L22.4863 10.6871ZM28.4169 10.2687H26.0293C25.9026 10.2685 25.7813 10.2182 25.6917 10.1286C25.6022 10.0391 25.5518 9.91775 25.5517 9.79114V4.53631C25.5518 4.40999 25.602 4.28887 25.6913 4.19955C25.7806 4.11022 25.9018 4.05999 26.0281 4.05988H28.4169V10.2687Z" fill="#421695"/>
<path d="M12.1794 5.49414C9.65475 5.57414 9.65536 9.23494 12.1794 9.31482C14.704 9.23457 14.7034 5.57402 12.1794 5.49414ZM12.1794 8.35962C10.924 8.33734 10.924 6.47143 12.1794 6.44928C13.4346 6.47162 13.4344 8.33753 12.1794 8.35962Z" fill="#421695"/>
<path d="M27.3237 9.17587C27.5298 8.91698 27.4828 8.66578 27.3237 8.49772C27.0719 8.29722 26.8204 8.33002 26.6456 8.49772C26.5572 8.58848 26.5078 8.71014 26.5078 8.83679C26.5078 8.96345 26.5572 9.08511 26.6456 9.17587C26.8157 9.33698 27.0703 9.37778 27.3237 9.17587Z" fill="#421695"/>
<path d="M4.67665 27.6014C4.51449 27.7714 4.47308 28.0238 4.67665 28.2795C4.74371 28.3466 4.82915 28.3922 4.92216 28.4107C5.01518 28.4292 5.11159 28.4197 5.1992 28.3834C5.28682 28.3472 5.36171 28.2857 5.41439 28.2068C5.46708 28.128 5.4952 28.0353 5.4952 27.9404C5.4952 27.8456 5.46708 27.7529 5.41439 27.674C5.36171 27.5952 5.28682 27.5337 5.1992 27.4974C5.11159 27.4611 5.01518 27.4516 4.92216 27.4701C4.82915 27.4886 4.74371 27.5343 4.67665 27.6014Z" fill="#421695"/>
</svg>
