<svg width="159" height="68" viewBox="0 0 159 68" fill="none" xmlns="http://www.w3.org/2000/svg">
<path d="M50.5573 50.6978C54.243 55.1429 52.2372 62.3853 47.1223 65.5445C45.2347 66.7122 43.1751 67.314 40.9795 67.511C40.5962 67.5432 40.213 67.5325 39.8261 67.5325C35.0372 67.5325 30.2483 67.5325 25.334 67.5325C25.5381 66.1893 25.7316 64.8962 25.9357 63.6032C26.6808 58.893 27.4294 54.1865 28.178 49.48C28.8943 44.974 29.6071 40.4645 30.3486 35.9621C30.3772 35.783 30.6888 35.5179 30.8679 35.5179C35.9649 35.5394 41.0654 35.4427 46.1517 35.6755C50.9119 35.894 53.9171 39.9021 53.2867 44.6302C52.9786 46.9297 52.0868 48.9284 50.5573 50.7014M34.1095 54.7883C33.805 56.7332 33.4934 58.7319 33.1746 60.7699C36.298 60.7699 39.296 60.8487 42.2833 60.7413C44.2604 60.6696 45.1344 59.7921 45.5069 57.9689C45.5571 57.7182 45.5642 57.4639 45.5965 57.2096C45.7756 55.7661 45.2598 54.8778 43.8127 54.8276C40.6213 54.7094 37.4227 54.7918 34.1095 54.7918M35.2163 47.8466C38.1641 47.8466 41.0511 47.9434 43.9273 47.8108C45.5177 47.7392 46.0084 47.0765 46.3809 45.4468C46.9218 43.0899 46.2699 42.2518 43.8485 42.2375C41.4702 42.2232 39.0883 42.2339 36.7099 42.2375C36.5165 42.2375 36.3195 42.2733 36.0974 42.2948C35.8001 44.1681 35.51 45.9948 35.2163 47.8466Z" fill="white"/>
<path d="M41.6985 9.20213C39.5171 8.28876 37.2319 8.18132 34.9144 8.43563C31.68 8.79023 28.8253 9.94716 26.6117 12.4115C25.5157 13.6365 24.7313 15.037 24.3408 16.7169C26.472 16.7169 28.5209 16.7276 30.5697 16.6989C30.7488 16.6989 30.9959 16.4733 31.0926 16.2906C31.5296 15.4525 32.1708 14.7791 33.0662 14.5892C34.2482 14.3349 35.5019 14.0842 36.6767 14.2167C38.9691 14.471 39.7858 16.0435 38.9691 18.2714C37.6259 18.2714 36.2684 18.257 34.9144 18.2749C33.4566 18.2964 31.9952 18.3072 30.541 18.4075C25.8882 18.7334 23.0514 21.4699 22.5571 26.0619C22.2992 28.451 23.5385 30.729 25.7664 31.6388C26.7371 32.0364 27.8331 32.3086 28.8755 32.3265C32.0848 32.3802 35.0935 31.628 37.7477 29.5076C37.6295 30.3458 37.522 31.0872 37.411 31.8716H43.6792C44.2595 28.2504 44.8576 24.6829 45.3877 21.101C45.6671 19.2134 46.0003 17.3078 46.0003 15.4095C46.0003 12.4401 44.4457 10.3555 41.702 9.2093M36.2648 25.6679C34.7568 26.6923 33.1056 27.2009 31.2753 27.0254C30.1434 26.9179 29.5238 26.4022 29.3375 25.4924C29.1548 24.6005 29.6635 23.4615 30.5088 23.0245C30.9314 22.806 31.4186 22.609 31.8806 22.5982C34.0261 22.5553 36.1681 22.5767 38.3745 22.5767C38.156 23.988 37.3573 24.9264 36.2648 25.6643" fill="white"/>
<path d="M85.4562 31.8651H79.188C79.299 31.0843 79.4065 30.3392 79.5247 29.5011C76.867 31.6251 73.8618 32.3737 70.6525 32.32C69.6066 32.3021 68.5141 32.0299 67.5399 31.6323C65.312 30.7225 64.0726 28.448 64.3305 26.0553C64.8284 21.4634 67.6652 18.7233 72.318 18.4009C73.7723 18.3007 75.2337 18.2899 76.6915 18.2684C78.0454 18.2469 79.4029 18.2648 80.7461 18.2648C81.5664 16.0405 80.7461 14.4645 78.4573 14.2102C77.2789 14.0813 76.0253 14.332 74.8432 14.5827C73.9478 14.7761 73.3066 15.4459 72.8696 16.2841C72.7729 16.4668 72.5258 16.6888 72.3467 16.6924C70.3015 16.7211 68.2526 16.7103 66.1179 16.7103C66.5119 15.0304 67.2927 13.6299 68.3888 12.4049C70.5988 9.94063 73.4571 8.78371 76.6915 8.4291C79.0125 8.17479 81.2977 8.28583 83.4755 9.19562C86.2192 10.3418 87.7737 12.4264 87.7737 15.3958C87.7737 17.2942 87.4442 19.1997 87.1612 21.0873C86.6311 24.6656 86.0293 28.2367 85.4491 31.8579M80.1551 22.5344C79.8435 22.5344 79.6429 22.5344 79.4387 22.5344C77.5726 22.538 75.7029 22.5201 73.8367 22.563C73.3675 22.5738 72.8732 22.7278 72.4398 22.9177C71.5121 23.3224 70.9247 24.5008 71.1002 25.4464C71.2757 26.3813 71.9061 26.9043 73.0917 27.0117C74.8361 27.1729 76.4264 26.6929 77.8842 25.7545C79.0376 25.013 79.9044 24.0567 80.1551 22.5308" fill="white"/>
<path d="M144.602 53.9032C145.34 51.009 143.979 49.6945 141.192 49.7661C140.289 49.7912 139.365 49.981 138.499 50.2568C137.503 50.572 136.847 51.3421 136.464 52.32H129.873C130.586 49.7267 132.026 47.7173 134.204 46.2559C137.012 44.3719 140.164 43.8059 143.492 44.0101C145.114 44.1104 146.676 44.4471 148.112 45.2566C150.297 46.4888 151.54 48.3836 151.533 50.855C151.529 52.8537 151.21 54.8631 150.917 56.851C150.397 60.3827 149.799 63.9001 149.223 67.4783H142.962C143.065 66.7333 143.169 65.9919 143.298 65.0964C141.711 66.4969 139.921 67.1703 138.026 67.6001C136.314 67.987 134.591 68.1625 132.854 67.8079C129.286 67.0772 127.474 64.1866 128.272 60.5152C129.096 56.7292 131.922 54.2757 135.902 54.0572C138.481 53.9139 141.07 53.9461 143.656 53.9032C143.961 53.8996 144.265 53.9032 144.602 53.9032ZM143.921 58.2085C141.715 58.2085 139.57 58.1835 137.428 58.23C136.966 58.2408 136.478 58.4378 136.056 58.6563C135.21 59.0933 134.705 60.2359 134.888 61.1277C135.074 62.0375 135.694 62.5497 136.829 62.6572C138.688 62.8327 140.361 62.3062 141.88 61.2531C142.94 60.5188 143.721 59.5875 143.925 58.2085" fill="white"/>
<path d="M60.6582 57.9197C60.4648 60.1476 62.0157 61.9313 64.2401 62.1785C66.5826 62.4364 68.5884 61.8203 70.1537 59.99C70.2683 59.8539 70.4868 59.7285 70.6552 59.7285C72.6287 59.7106 74.5987 59.7178 76.5723 59.7142H77.346C76.6046 61.2973 75.6303 62.594 74.4411 63.7223C71.4181 66.5949 67.8505 68.1458 63.6276 67.9775C57.3629 67.7303 53.1184 62.6835 53.9673 56.5263C54.8377 50.2008 59.2756 45.3832 65.5725 44.1761C69.4123 43.4383 72.9905 44.0866 75.7557 47.1419C77.7651 49.3627 78.2952 52.0848 78.066 54.9861C78.0051 55.7455 77.7973 56.4905 77.7042 57.2463C77.6362 57.7979 77.3675 57.934 76.8374 57.9304C71.7404 57.9125 66.6435 57.9197 61.5501 57.9197H60.6618H60.6582ZM61.414 53.5427H71.3679C71.2282 51.8305 70.4761 50.5841 68.8857 49.9537C66.0202 48.8218 62.4241 50.5411 61.414 53.5427Z" fill="white"/>
<path d="M85.9463 57.9189C85.7851 60.2149 87.3576 61.9628 89.6249 62.1849C91.9459 62.4142 93.9159 61.7837 95.4561 59.9749C95.56 59.8531 95.7427 59.7278 95.8895 59.7278C98.1067 59.7134 100.324 59.717 102.645 59.717C101.667 61.7264 100.345 63.3275 98.6977 64.6492C95.8465 66.9344 92.6014 68.1379 88.9085 67.9803C82.6439 67.7153 78.428 62.6935 79.2662 56.5149C80.1187 50.218 84.5924 45.3717 90.8857 44.1754C94.7254 43.4447 98.3073 44.0966 101.065 47.1555C103.071 49.3798 103.601 52.102 103.361 55.0033C103.3 55.7627 103.093 56.5077 102.999 57.2634C102.931 57.8258 102.638 57.9368 102.118 57.9332C97.0465 57.9153 91.9782 57.9225 86.9063 57.9225H85.9463M96.6703 53.5491C96.5271 52.0268 95.954 50.834 94.5822 50.1499C91.6737 48.6993 87.7838 50.3362 86.7164 53.5491H96.6703Z" fill="white"/>
<path d="M110.284 67.5007H103.41C104.632 59.814 105.846 52.1632 107.067 44.4945H113.643C113.547 45.1285 113.461 45.7051 113.393 46.1636C114.528 45.6013 115.646 44.8527 116.878 44.4801C119.614 43.6527 122.351 43.7172 124.847 45.3255C126.929 46.6687 128.014 48.7067 128.082 51.1101C128.139 53.1052 127.881 55.1254 127.613 57.1133C127.176 60.3191 126.617 63.5105 126.108 66.7091C126.069 66.9598 126.001 67.2069 125.94 67.4971H119.063C119.346 65.7241 119.629 63.9725 119.901 62.221C120.291 59.7281 120.796 57.2458 121.036 54.7386C121.355 51.3788 119.002 49.681 115.778 50.8057C113.697 51.5328 112.651 53.1088 112.304 55.1827C111.656 59.0797 111.057 62.9839 110.434 66.8882C110.402 67.0887 110.341 67.2822 110.287 67.5007" fill="white"/>
<path d="M57.6066 0.0175781C55.9124 10.6628 54.2289 21.2507 52.5419 31.8601H45.6289C47.3195 21.2436 49.003 10.6592 50.6936 0.0175781H57.6066Z" fill="white"/>
<path d="M59.5195 0H66.4324C64.7382 10.656 63.0512 21.2583 61.3606 31.8713H54.4512C56.1418 21.2439 57.8253 10.6488 59.5195 0Z" fill="white"/>
<path d="M158.439 64.0466C158.439 62.1411 156.892 60.5938 154.986 60.5938C153.081 60.5938 151.533 62.1375 151.533 64.0466C151.533 65.9558 153.081 67.4995 154.986 67.4995C156.892 67.4995 158.439 65.9558 158.439 64.0466Z" fill="white"/>
<path d="M16.6205 35.5156C16.5525 35.5156 16.4629 35.5192 16.3555 35.5156H16.6205Z" fill="white"/>
<path d="M28.1318 2.01138C27.3689 3.82737 26.674 5.50009 25.9719 7.15848C25.9075 7.30892 25.8466 7.45578 25.7821 7.60621C23.2569 13.5664 20.7639 19.5374 18.1814 25.4689C18.1492 25.5441 18.117 25.6193 18.0847 25.6945C17.2394 27.5893 16.1935 29.391 15.2587 31.2428C15.144 31.4685 15.0258 31.6977 14.9184 31.9305C14.7894 32.2063 14.6748 32.4929 14.5996 32.783C14.4563 33.3453 14.3023 34.1692 14.7787 34.8067C15.2013 35.3727 15.9105 35.4945 16.3547 35.5124C16.4622 35.5159 16.5517 35.5124 16.6198 35.5124H26.7313L25.5027 42.4146H15.1405C14.8575 42.3823 14.5781 42.3429 14.2987 42.2964C13.5501 42.1746 12.8517 41.9668 12.2141 41.6803C8.61792 40.0792 6.78401 36.1069 7.52545 31.9269C7.6544 31.2106 7.85498 30.487 8.13795 29.7707C8.51404 28.8143 8.98326 27.8866 9.49188 26.9912L9.5277 26.9267L10.2118 25.691H14.1841C14.2271 25.6838 14.2701 25.6766 14.3166 25.6695C13.2528 25.125 12.1783 24.6057 11.1216 24.0541C10.6846 23.8248 10.2512 23.5956 9.825 23.352C9.30564 23.0583 8.75045 22.5819 8.52121 22.0554C8.10929 21.1098 7.70097 20.1642 7.29264 19.2186L7.23891 19.086L0 2.01496V2.00781H7.61859C7.67231 2.00781 7.72604 2.01139 7.77619 2.02213C7.79768 2.02213 7.81558 2.02928 7.83707 2.03287C7.86215 2.03645 7.88006 2.04363 7.90156 2.05079C7.90156 2.05079 7.90872 2.05079 7.9123 2.05079C8.0699 2.10094 8.20958 2.19407 8.31704 2.31943C8.32778 2.33018 8.33854 2.34091 8.34929 2.35524C8.51405 2.55224 8.6609 2.81371 8.73971 3.01787C9.25191 4.3933 9.76411 5.77232 10.2727 7.15133C11.3759 10.1422 12.4684 13.1402 13.5644 16.1346C13.722 16.568 13.9011 16.9942 14.1698 17.6676C14.9041 15.5149 15.5058 13.5951 16.2043 11.711C16.7702 10.1851 17.3469 8.66645 17.9379 7.15133C18.4895 5.73292 19.0518 4.31452 19.6213 2.90327C19.718 2.66329 19.958 2.38747 20.2159 2.21554C20.2267 2.2048 20.2374 2.19764 20.2482 2.19405C20.4022 2.07585 20.5956 2.00781 20.7998 2.00781H28.139L28.1318 2.01138Z" fill="white"/>
</svg>
