<svg width="37" height="16" viewBox="0 0 37 16" fill="none" xmlns="http://www.w3.org/2000/svg">
<g clip-path="url(#clip0_2208_16615)">
<path d="M8.00632 16C12.4244 16 16.0126 12.4223 16.0126 8.00176C16.0126 3.58099 12.4244 0 8.00632 0C3.5814 0 0 3.58099 0 8.00176C0 12.4223 3.5814 16 8.00632 16Z" fill="#A50034"/>
<path d="M7.68359 4.49023V11.5099H9.91521V10.8787H8.32679V4.49023H7.68359Z" fill="white"/>
<path d="M5.44913 6.40423C5.98005 6.40423 6.40802 5.97254 6.40802 5.44534C6.40802 4.91773 5.98005 4.48438 5.44913 4.48438C4.9182 4.48438 4.49023 4.91773 4.49023 5.44534C4.49023 5.97295 4.9182 6.40423 5.44913 6.40423Z" fill="white"/>
<path d="M8.32663 1.3062C8.24294 1.30205 8.08385 1.29688 8.00783 1.29688C4.31229 1.29688 1.30469 4.30551 1.30469 7.99878C1.30469 9.79269 2.00174 11.4741 3.26432 12.7386C4.53207 14.0001 6.21433 14.6972 8.00783 14.6972C9.79449 14.6972 11.4763 14.0001 12.7418 12.7386C14.0075 11.4741 14.7079 9.79269 14.7079 7.99878V7.70069H14.4367H9.92147V8.31758H14.0694C14.0694 8.33104 14.0694 8.3965 14.0665 8.41349C13.8557 11.5709 11.2186 14.0716 8.00783 14.0716C6.38254 14.0716 4.85854 13.4395 3.71155 12.2917C2.56084 11.1487 1.92676 9.62593 1.92676 7.99857C1.92676 6.38053 2.56084 4.8499 3.71155 3.70333C4.85854 2.55779 6.38254 1.92578 8.00783 1.92578C8.07785 1.92578 8.24812 1.92578 8.32663 1.92992V1.3062Z" fill="white"/>
<path d="M22.0347 2.69215H19.6289V13.1072H27.0183V11.0798H22.0347V2.69215ZM32.3108 9.13822H34.2702V10.9593C33.9089 11.0968 33.2044 11.2339 32.5341 11.2339C30.3688 11.2339 29.6475 10.1342 29.6475 7.9005C29.6475 5.77038 30.3344 4.51444 32.4997 4.51444C33.703 4.51444 34.3904 4.89269 34.9567 5.61461L36.4525 4.23934C35.5415 2.9343 33.9429 2.53906 32.4483 2.53906C29.0793 2.53906 27.3096 4.37772 27.3096 7.8831C27.3096 11.3715 28.9077 13.2617 32.4314 13.2617C34.0465 13.2617 35.6277 12.8495 36.4865 12.2481V7.19578H32.3108V9.13822Z" fill="#6B6B6B"/>
</g>
<defs>
<clipPath id="clip0_2208_16615">
<rect width="36.4856" height="16" fill="white"/>
</clipPath>
</defs>
</svg>
