<svg width="18" height="18" viewBox="0 0 18 18" fill="none" xmlns="http://www.w3.org/2000/svg">
<path d="M16.7665 4.96773L16.7532 4.9447C16.7347 4.90642 16.7134 4.86975 16.6896 4.83491L14.1855 0.505548C14.0051 0.193711 13.6693 0 13.309 0H4.69093C4.33012 0 3.99402 0.194168 3.8137 0.506849L1.26874 4.92199C1.24582 4.96179 1.22929 5.00341 1.21762 5.0457C1.1818 5.14242 1.16211 5.24694 1.16211 5.35599V16.7595C1.16211 17.4435 1.7186 18 2.4026 18H15.5969C16.2809 18 16.8374 17.4435 16.8374 16.7595V5.31419C16.8374 5.2989 16.8369 5.28371 16.8361 5.2686C16.8433 5.1671 16.8213 5.06244 16.7665 4.96773ZM9.54535 1.05508H13.2845L15.2544 4.46077H9.54535V1.05508ZM4.7155 1.05508H8.49027V4.46077H2.75237L4.7155 1.05508ZM15.7823 16.7595C15.7823 16.8617 15.6991 16.9449 15.5969 16.9449H2.4026C2.30037 16.9449 2.21719 16.8617 2.21719 16.7595V5.51585H15.7823V16.7595Z" fill="white"/>
<path d="M11.3943 9.49238C11.1883 9.2864 10.8542 9.2864 10.6482 9.49238L8.29266 11.8479L7.38689 10.9422C7.18091 10.7362 6.84686 10.7362 6.64084 10.9422C6.43482 11.1481 6.43482 11.4822 6.64084 11.6882L7.91969 12.967C8.02269 13.07 8.15773 13.1215 8.2927 13.1215C8.42766 13.1215 8.56273 13.07 8.6657 12.967L11.3943 10.2384C11.6003 10.0324 11.6003 9.69839 11.3943 9.49238Z" fill="white"/>
</svg>
