<svg width="79" height="14" viewBox="0 0 79 14" fill="none" xmlns="http://www.w3.org/2000/svg">
<mask id="mask0_2647_15469" style="mask-type:luminance" maskUnits="userSpaceOnUse" x="-6" y="-6" width="91" height="26">
<path d="M-6 -6.00031H84.3549V19.7012H-6V-6.00031Z" fill="white"/>
</mask>
<g mask="url(#mask0_2647_15469)">
<path d="M74.3869 6.0694V7.81861H75.5349V9.55412C75.5385 9.7092 75.5306 9.87645 75.5057 10.0103C75.4601 10.334 75.1729 10.8852 74.358 10.8852C73.548 10.8852 73.2659 10.334 73.217 10.0103C73.1965 9.87645 73.1877 9.7092 73.1877 9.55412V4.07254C73.1877 3.87864 73.1999 3.66642 73.2383 3.50579C73.294 3.21364 73.5357 2.6375 74.3519 2.6375C75.2087 2.6375 75.4226 3.2449 75.4716 3.50579C75.5038 3.67859 75.5057 3.96843 75.5057 3.96843V4.63405H78.3265V4.24056C78.3265 4.24056 78.3393 3.82998 78.305 3.44681C78.093 1.19692 76.3619 0.485095 74.3768 0.485095C72.3882 0.485095 70.6921 1.20354 70.445 3.44681C70.4227 3.65195 70.3886 4.02095 70.3886 4.24056V9.28306C70.3886 9.50268 70.3952 9.6727 70.4332 10.074C70.6173 12.262 72.3882 13.0376 74.3689 13.0376C76.3619 13.0376 78.1205 12.262 78.3078 10.074C78.341 9.6727 78.3445 9.50268 78.3489 9.28306V6.0694H74.3869ZM54.937 0.80774H52.1043V9.68056C52.1087 9.83518 52.1043 10.0089 52.0794 10.1363C52.0203 10.4341 51.7845 11.0073 51.003 11.0073C50.2316 11.0073 49.9896 10.4341 49.935 10.1363C49.9067 10.0089 49.9031 9.83518 49.9067 9.68056V0.80774H47.0748V9.40519C47.0712 9.62681 47.0874 10.0796 47.0997 10.1982C47.2951 12.4385 48.944 13.1659 51.003 13.1659C53.066 13.1659 54.7139 12.4385 54.913 10.1982C54.9287 10.0796 54.9492 9.62681 54.937 9.40519V0.80774ZM28.9094 0.80774L27.4963 10.1831L26.0841 0.80774H21.5147L21.2724 12.8015H24.0718L24.1476 1.69852L26.0736 12.8015H28.9138L30.8417 1.69852L30.9177 12.8015H33.7241L33.4736 0.80774H28.9094ZM11.9914 0.80774L9.91658 12.8015H12.9422L14.5057 1.69852L16.0316 12.8015H19.0362L16.9701 0.80774H11.9914ZM64.8369 10.4641L62.1992 0.80774H58.0427V12.6765H60.7923L60.6327 2.71111L63.4654 12.6765H67.4517V0.80774H64.6842L64.8369 10.4641ZM39.4036 3.92916C39.3538 3.6923 39.3682 3.44065 39.3939 3.30912C39.474 2.92519 39.7149 2.50644 40.409 2.50644C41.0559 2.50644 41.4352 2.93828 41.4352 3.58634V4.31972H44.1966V3.48377C44.1966 0.899529 42.0329 0.493566 40.4664 0.493566C38.4935 0.493566 36.8822 1.18999 36.5879 3.13448C36.5101 3.66365 36.4909 4.13337 36.6147 4.73277C37.0945 7.1573 41.0362 7.86065 41.6084 9.39395C41.7093 9.68441 41.6804 10.0548 41.6289 10.273C41.5432 10.6721 41.2925 11.0734 40.5494 11.0734C39.8524 11.0734 39.4329 10.6443 39.4329 9.99766L39.432 8.84661H36.4598V9.76156C36.4598 12.4128 38.3991 13.2127 40.4878 13.2127C42.4883 13.2127 44.1405 12.4807 44.4056 10.4965C44.532 9.47126 44.4366 8.80348 44.3859 8.55199C43.9228 6.06524 39.7216 5.31722 39.4036 3.92916ZM2.97713 3.89974C2.92291 3.65795 2.93556 3.40276 2.96577 3.2697C3.04228 2.88761 3.28462 2.46147 3.99093 2.46147C4.64605 2.46147 5.03178 2.89746 5.03178 3.55076V4.29308H7.82554V3.4505C7.82554 0.841468 5.62879 0.425648 4.04516 0.425648C2.05566 0.425648 0.43003 1.13285 0.132604 3.09136C0.0512005 3.629 0.0372451 4.10195 0.154892 4.70797C0.639863 7.16007 4.62059 7.86912 5.19976 9.42075C5.30821 9.7092 5.27542 10.0796 5.22163 10.3063C5.12972 10.7095 4.87703 11.1165 4.12771 11.1165C3.42801 11.1165 3.00949 10.6801 3.00949 10.0245L3.00561 8.87032H0V9.78744C0 12.469 1.96677 13.2754 4.07176 13.2754C6.0955 13.2754 7.75737 12.5369 8.02847 10.5298C8.16323 9.49513 8.06213 8.82181 8.01668 8.56647C7.54394 6.04922 3.29598 5.30367 2.97713 3.89974Z" fill="#1428A0"/>
</g>
</svg>
