<svg width="14" height="18" viewBox="0 0 14 18" fill="none" xmlns="http://www.w3.org/2000/svg">
<path d="M6.12565 9.58463L4.97982 8.41797C4.81315 8.2513 4.61537 8.16797 4.38648 8.16797C4.1576 8.16797 3.95954 8.2513 3.79232 8.41797C3.62565 8.58463 3.53871 8.78269 3.53148 9.01213C3.52426 9.24158 3.60426 9.43936 3.77148 9.60547L5.54232 11.3763C5.70898 11.543 5.90343 11.6263 6.12565 11.6263C6.34787 11.6263 6.54232 11.543 6.70898 11.3763L10.2507 7.83464C10.4173 7.66797 10.5007 7.47019 10.5007 7.2413C10.5007 7.01241 10.4173 6.81436 10.2507 6.64714C10.084 6.48047 9.88593 6.39714 9.65648 6.39714C9.42704 6.39714 9.22926 6.48047 9.06315 6.64714L6.12565 9.58463ZM7.00065 17.2721H6.79232C6.72287 17.2721 6.66037 17.2582 6.60482 17.2305C4.78537 16.661 3.28537 15.5324 2.10482 13.8446C0.924262 12.1569 0.333984 10.2924 0.333984 8.2513V4.3138C0.333984 3.96658 0.434818 3.65408 0.636484 3.3763C0.838151 3.09852 1.09843 2.89714 1.41732 2.77214L6.41732 0.897135C6.61176 0.827691 6.80621 0.792969 7.00065 0.792969C7.1951 0.792969 7.38954 0.827691 7.58398 0.897135L12.584 2.77214C12.9034 2.89714 13.164 3.09852 13.3657 3.3763C13.5673 3.65408 13.6679 3.96658 13.6673 4.3138V8.2513C13.6673 10.293 13.077 12.1577 11.8965 13.8455C10.7159 15.5332 9.21593 16.6616 7.39648 17.2305C7.32704 17.2582 7.1951 17.2721 7.00065 17.2721ZM7.00065 15.5846C8.4451 15.1263 9.63954 14.2096 10.584 12.8346C11.5284 11.4596 12.0007 9.93186 12.0007 8.2513V4.3138L7.00065 2.4388L2.00065 4.3138V8.2513C2.00065 9.93186 2.47287 11.4596 3.41732 12.8346C4.36176 14.2096 5.55621 15.1263 7.00065 15.5846Z" fill="#EDC442"/>
</svg>
