<svg width="18" height="18" viewBox="0 0 18 18" fill="none" xmlns="http://www.w3.org/2000/svg">
<path d="M13.3195 12.2935L13.3195 12.2936L13.3257 12.2956C14.4837 12.6712 15.7257 12.88 17.01 12.88C17.2739 12.88 17.5 13.1061 17.5 13.37V16.82C17.5 17.0209 17.4471 17.2077 17.362 17.3291C17.2911 17.43 17.1924 17.5 17.01 17.5C8.00595 17.5 0.5 10.0037 0.5 0.99C0.5 0.786469 0.575374 0.692931 0.670371 0.629427C0.791736 0.548298 0.981521 0.5 1.19 0.5H4.65C4.91386 0.5 5.14 0.726143 5.14 0.99C5.14 2.26974 5.33742 3.51163 5.72406 4.67333C5.77758 4.84758 5.74059 5.03643 5.61416 5.17777L3.68589 6.81927L3.39221 7.06928L3.55945 7.41682C5.02092 10.4538 7.75622 13.0843 10.6847 14.4813L11.0434 14.6524L11.291 14.3416L12.8418 12.3957C12.9021 12.3398 12.9759 12.3003 13.0561 12.2812C13.1433 12.2605 13.2346 12.2648 13.3195 12.2935Z" stroke="#DCA806"/>
</svg>
