<svg width="97" height="42" viewBox="0 0 97 42" fill="none" xmlns="http://www.w3.org/2000/svg">
<path d="M30.953 31.037C33.2095 33.7584 31.9815 38.1924 28.8501 40.1265C27.6944 40.8414 26.4335 41.2098 25.0893 41.3304C24.8546 41.3502 24.62 41.3436 24.3831 41.3436C21.4513 41.3436 18.5194 41.3436 15.5107 41.3436C15.6357 40.5213 15.7542 39.7296 15.8791 38.938C16.3353 36.0544 16.7936 33.1729 17.2519 30.2915C17.6905 27.5328 18.1269 24.772 18.5808 22.0155C18.5983 21.9059 18.7891 21.7436 18.8987 21.7436C22.0192 21.7568 25.1419 21.6976 28.2558 21.8401C31.1701 21.9739 33.0099 24.4277 32.624 27.3223C32.4354 28.7301 31.8894 29.9538 30.953 31.0392M20.8833 33.5413C20.6969 34.732 20.5061 35.9557 20.311 37.2034C22.2232 37.2034 24.0586 37.2517 25.8875 37.1859C27.0979 37.142 27.633 36.6048 27.8611 35.4886C27.8918 35.3351 27.8961 35.1794 27.9159 35.0237C28.0255 34.14 27.7098 33.5961 26.8238 33.5654C24.87 33.4931 22.9117 33.5435 20.8833 33.5435M21.5609 29.2915C23.3656 29.2915 25.1331 29.3507 26.894 29.2696C27.8676 29.2257 28.1681 28.82 28.3961 27.8223C28.7273 26.3794 28.3281 25.8662 26.8458 25.8575C25.3897 25.8487 23.9314 25.8553 22.4753 25.8575C22.3569 25.8575 22.2363 25.8794 22.1004 25.8925C21.9183 27.0394 21.7407 28.1578 21.5609 29.2915Z" fill="#452E8D"/>
<path d="M25.5294 5.6321C24.1939 5.07292 22.7949 5.00714 21.3761 5.16284C19.3959 5.37993 17.6482 6.08823 16.293 7.59693C15.622 8.3469 15.1417 9.20432 14.9027 10.2328C16.2075 10.2328 17.4618 10.2393 18.7161 10.2218C18.8258 10.2218 18.9771 10.0837 19.0363 9.97183C19.3038 9.45869 19.6963 9.04643 20.2446 8.93021C20.9682 8.77451 21.7357 8.621 22.455 8.70214C23.8584 8.85783 24.3584 9.82051 23.8584 11.1845C23.0361 11.1845 22.205 11.1757 21.3761 11.1867C20.4836 11.1998 19.5889 11.2064 18.6986 11.2678C15.85 11.4674 14.1133 13.1427 13.8106 15.954C13.6528 17.4167 14.4115 18.8113 15.7755 19.3683C16.3697 19.6117 17.0408 19.7784 17.6789 19.7894C19.6437 19.8223 21.4857 19.3617 23.1107 18.0636C23.0383 18.5767 22.9725 19.0306 22.9045 19.5109H26.7421C27.0973 17.2939 27.4635 15.1098 27.7881 12.9169C27.9591 11.7612 28.1631 10.5946 28.1631 9.43237C28.1631 7.61447 27.2114 6.33822 25.5316 5.63649M22.2028 15.7128C21.2796 16.34 20.2687 16.6513 19.1481 16.5439C18.4552 16.4781 18.0758 16.1623 17.9618 15.6053C17.8499 15.0593 18.1613 14.362 18.6788 14.0944C18.9376 13.9607 19.2358 13.8401 19.5187 13.8335C20.8323 13.8072 22.1436 13.8203 23.4944 13.8203C23.3606 14.6843 22.8716 15.2589 22.2028 15.7106" fill="#452E8D"/>
<path d="M52.3175 19.5066H48.48C48.5479 19.0285 48.6137 18.5724 48.6861 18.0593C47.059 19.3596 45.2191 19.8179 43.2543 19.7851C42.614 19.7741 41.9452 19.6074 41.3487 19.364C39.9847 18.807 39.226 17.4145 39.3839 15.9497C39.6887 13.1384 41.4255 11.4609 44.274 11.2635C45.1643 11.2021 46.059 11.1955 46.9515 11.1824C47.7804 11.1692 48.6115 11.1802 49.4339 11.1802C49.936 9.81839 49.4339 8.85353 48.0326 8.69784C47.3112 8.61889 46.5437 8.77239 45.82 8.92589C45.2718 9.04431 44.8793 9.45438 44.6117 9.96751C44.5525 10.0793 44.4012 10.2153 44.2916 10.2175C43.0394 10.235 41.7851 10.2285 40.4781 10.2285C40.7193 9.2 41.1974 8.34258 41.8684 7.59262C43.2214 6.08391 44.9714 5.37562 46.9515 5.15852C48.3725 5.00283 49.7716 5.07081 51.1048 5.6278C52.7846 6.32952 53.7363 7.60578 53.7363 9.42368C53.7363 10.5859 53.5346 11.7525 53.3613 12.9082C53.0368 15.0989 52.6684 17.2852 52.3131 19.5022M49.072 13.7941C48.8813 13.7941 48.7585 13.7941 48.6335 13.7941C47.491 13.7963 46.3463 13.7853 45.2038 13.8116C44.9165 13.8182 44.6139 13.9125 44.3486 14.0287C43.7806 14.2765 43.421 14.998 43.5284 15.5769C43.6359 16.1493 44.0218 16.4694 44.7477 16.5352C45.8156 16.6339 46.7893 16.34 47.6818 15.7655C48.3879 15.3116 48.9185 14.7261 49.072 13.7919" fill="#452E8D"/>
<path d="M88.5285 32.9988C88.9802 31.227 88.1469 30.4222 86.4409 30.4661C85.8883 30.4814 85.3225 30.5976 84.7918 30.7665C84.1822 30.9595 83.7809 31.4309 83.5463 32.0296H79.5113C79.9477 30.4419 80.8293 29.2117 82.1625 28.317C83.8818 27.1636 85.8115 26.8171 87.8487 26.9421C88.8421 27.0035 89.7982 27.2096 90.6775 27.7052C92.0152 28.4596 92.7761 29.6196 92.7717 31.1327C92.7695 32.3563 92.5744 33.5865 92.3945 34.8036C92.0766 36.9658 91.7104 39.1192 91.3573 41.3099H87.5241C87.5877 40.8537 87.6513 40.3998 87.7303 39.8516C86.7588 40.709 85.6624 41.1213 84.5023 41.3844C83.4542 41.6213 82.3994 41.7287 81.3358 41.5116C79.1517 41.0643 78.0421 39.2946 78.5311 37.0469C79.0355 34.729 80.7657 33.2269 83.202 33.0931C84.7808 33.0054 86.3663 33.0251 87.9496 32.9988C88.136 32.9966 88.3223 32.9988 88.5285 32.9988ZM88.1118 35.6347C86.761 35.6347 85.4475 35.6193 84.1361 35.6478C83.8533 35.6544 83.555 35.775 83.2963 35.9088C82.7787 36.1763 82.4695 36.8759 82.5814 37.4219C82.6954 37.9789 83.0748 38.2925 83.7699 38.3582C84.908 38.4657 85.9321 38.1433 86.8619 37.4986C87.511 37.0491 87.989 36.4789 88.114 35.6347" fill="#452E8D"/>
<path d="M37.136 35.4591C37.0176 36.8231 37.9671 37.9151 39.3289 38.0664C40.7631 38.2243 41.9911 37.8472 42.9494 36.7266C43.0195 36.6433 43.1533 36.5665 43.2564 36.5665C44.4647 36.5555 45.6707 36.5599 46.879 36.5577H47.3527C46.8988 37.527 46.3023 38.3208 45.5742 39.0116C43.7235 40.7703 41.5393 41.7198 38.9539 41.6167C35.1186 41.4654 32.52 38.3756 33.0397 34.6061C33.5726 30.7334 36.2896 27.784 40.1447 27.045C42.4954 26.5933 44.6861 26.9902 46.379 28.8607C47.6092 30.2203 47.9338 31.8869 47.7935 33.6631C47.7562 34.128 47.629 34.5841 47.572 35.0468C47.5303 35.3845 47.3658 35.4679 47.0413 35.4657C43.9208 35.4547 40.8003 35.4591 37.6821 35.4591H37.1382H37.136ZM37.5987 32.7794H43.6928C43.6072 31.7312 43.1467 30.9681 42.1731 30.5821C40.4188 29.8892 38.2171 30.9418 37.5987 32.7794Z" fill="#452E8D"/>
<path d="M52.6185 35.4602C52.5198 36.8658 53.4825 37.9359 54.8706 38.0719C56.2916 38.2122 57.4977 37.8263 58.4406 36.7189C58.5042 36.6443 58.616 36.5676 58.7059 36.5676C60.0633 36.5588 61.4207 36.561 62.8417 36.561C62.2431 37.7912 61.4339 38.7714 60.4252 39.5806C58.6796 40.9797 56.6929 41.7165 54.432 41.62C50.5967 41.4577 48.0156 38.3833 48.5288 34.6006C49.0507 30.7455 51.7896 27.7785 55.6425 27.0461C57.9933 26.5987 60.1861 26.9978 61.8747 28.8706C63.1027 30.2323 63.4272 31.8989 63.2803 33.6752C63.243 34.1401 63.1158 34.5962 63.0588 35.0589C63.0172 35.4032 62.8373 35.4711 62.5194 35.4689C59.4142 35.458 56.3113 35.4624 53.2062 35.4624H52.6185M59.184 32.7848C59.0963 31.8529 58.7454 31.1226 57.9056 30.7038C56.1249 29.8157 53.7435 30.8178 53.09 32.7848H59.184Z" fill="#452E8D"/>
<path d="M67.5187 41.3241H63.3105C64.0583 36.6182 64.8017 31.9342 65.5495 27.2392H69.5756C69.5164 27.6273 69.4638 27.9804 69.4221 28.2611C70.1173 27.9168 70.8014 27.4585 71.5558 27.2304C73.2312 26.7239 74.9065 26.7633 76.435 27.748C77.709 28.5703 78.3735 29.818 78.4151 31.2894C78.4502 32.5109 78.2923 33.7477 78.1279 34.9647C77.8603 36.9274 77.5182 38.8812 77.2068 40.8395C77.1827 40.993 77.1411 41.1443 77.1038 41.3219H72.8934C73.0667 40.2364 73.2399 39.1641 73.4066 38.0918C73.6456 36.5655 73.9548 35.0459 74.1017 33.5108C74.2969 31.4539 72.8562 30.4145 70.8826 31.1031C69.6085 31.5482 68.9682 32.5131 68.7555 33.7828C68.3586 36.1686 67.9924 38.5589 67.6108 40.9491C67.5911 41.0719 67.5538 41.1903 67.5209 41.3241" fill="#452E8D"/>
<path d="M35.2685 0.0117188C34.2313 6.52897 33.2007 13.0111 32.1678 19.5064H27.9355C28.9706 13.0067 30.0012 6.52677 31.0363 0.0117188H35.2685Z" fill="#452E8D"/>
<path d="M36.4389 0H40.6711C39.6339 6.52383 38.6011 13.0148 37.566 19.5123H33.3359C34.371 13.006 35.4016 6.51944 36.4389 0Z" fill="#452E8D"/>
<path d="M97.0003 39.2116C97.0003 38.045 96.053 37.0977 94.8864 37.0977C93.7198 37.0977 92.7725 38.0428 92.7725 39.2116C92.7725 40.3804 93.7198 41.3255 94.8864 41.3255C96.053 41.3255 97.0003 40.3804 97.0003 39.2116Z" fill="#EDC33F"/>
<path d="M10.175 21.7422C10.1333 21.7422 10.0785 21.7444 10.0127 21.7422H10.175Z" fill="#452E8D"/>
<path d="M17.2229 1.23265C16.7558 2.34444 16.3304 3.36852 15.9006 4.38382C15.8611 4.47592 15.8238 4.56583 15.7844 4.65793C14.2384 8.30689 12.7121 11.9624 11.1311 15.5939C11.1113 15.6399 11.0916 15.6859 11.0719 15.732C10.5544 16.892 9.91403 17.9951 9.34168 19.1288C9.27151 19.2669 9.19915 19.4073 9.13336 19.5498C9.05442 19.7187 8.98424 19.8941 8.93819 20.0717C8.85048 20.416 8.75618 20.9204 9.04784 21.3107C9.3066 21.6572 9.74079 21.7317 10.0127 21.7427C10.0785 21.7449 10.1333 21.7427 10.175 21.7427H16.3655L15.6133 25.9684H9.26932C9.09608 25.9486 8.92504 25.9245 8.75399 25.896C8.29568 25.8215 7.86807 25.6943 7.47773 25.5188C5.27608 24.5386 4.15332 22.1067 4.60725 19.5476C4.68619 19.109 4.80899 18.6661 4.98223 18.2275C5.21248 17.642 5.49975 17.074 5.81114 16.5258L5.83307 16.4863L6.25191 15.7298H8.68382C8.71013 15.7254 8.73645 15.721 8.76495 15.7167C8.11367 15.3833 7.45581 15.0654 6.80891 14.7277C6.54137 14.5873 6.27604 14.447 6.01508 14.2979C5.69712 14.118 5.35722 13.8264 5.21687 13.504C4.96469 12.9251 4.7147 12.3462 4.46471 11.7673L4.43182 11.6861L0 1.23485V1.23047H4.66427C4.69716 1.23047 4.73005 1.23266 4.76075 1.23924C4.77391 1.23924 4.78487 1.24361 4.79803 1.24581C4.81338 1.248 4.82435 1.2524 4.83751 1.25678C4.83751 1.25678 4.84189 1.25678 4.84408 1.25678C4.94057 1.28748 5.02609 1.3445 5.09188 1.42125C5.09845 1.42783 5.10504 1.4344 5.11162 1.44317C5.21249 1.56378 5.3024 1.72386 5.35064 1.84885C5.66422 2.69092 5.9778 3.53519 6.28919 4.37945C6.9646 6.2105 7.63343 8.04595 8.30445 9.8792C8.40094 10.1445 8.51059 10.4055 8.67505 10.8177C9.12459 9.49982 9.493 8.32444 9.92061 7.17098C10.2671 6.23681 10.6201 5.30704 10.982 4.37945C11.3197 3.51106 11.6639 2.64269 12.0126 1.77869C12.0718 1.63177 12.2187 1.4629 12.3766 1.35765C12.3832 1.35107 12.3898 1.34668 12.3964 1.34449C12.4907 1.27212 12.6091 1.23047 12.7341 1.23047H17.2273L17.2229 1.23265Z" fill="#452E8D"/>
</svg>
